<svg width="36" height="35" viewBox="0 0 36 35" fill="none" xmlns="http://www.w3.org/2000/svg">
<g clip-path="url(#clip0_1326_28986)">
<path d="M6.375 0.500003H29.625C30.4624 0.499238 31.2917 0.658443 32.0655 0.968506C32.8393 1.27857 33.5424 1.7334 34.1346 2.30698C34.7267 2.88055 35.1962 3.5616 35.5163 4.31116C35.8364 5.06072 36.0008 5.86406 36 6.67522V28.3248C36.0008 29.1359 35.8364 29.9393 35.5163 30.6888C35.1962 31.4384 34.7267 32.1195 34.1346 32.693C33.5424 33.2666 32.8393 33.7214 32.0655 34.0315C31.2917 34.3416 30.4624 34.5008 29.625 34.5H6.375C5.5376 34.5008 4.70827 34.3416 3.93446 34.0315C3.16066 33.7214 2.45757 33.2666 1.86544 32.693C1.27331 32.1195 0.803757 31.4384 0.483663 30.6888C0.163569 29.9393 -0.000786426 29.1359 2.82911e-06 28.3248V6.67522C-0.000786426 5.86406 0.163569 5.06072 0.483663 4.31116C0.803757 3.5616 1.27331 2.88055 1.86544 2.30698C2.45757 1.7334 3.16066 1.27857 3.93446 0.968506C4.70827 0.658443 5.5376 0.499238 6.375 0.500003Z" fill="#330000"/>
<path d="M17.4459 20.8997H11.8659L10.7259 24.3142C10.7131 24.3765 10.6768 24.4318 10.6241 24.4695C10.5714 24.5071 10.506 24.5243 10.4409 24.5177H7.62089C7.45589 24.5177 7.41089 24.4305 7.45589 24.2561L12.2859 10.7869C12.3309 10.6416 12.3759 10.4818 12.4359 10.3074C12.4963 9.99599 12.5264 9.6798 12.5259 9.36295C12.5214 9.32656 12.5313 9.28987 12.5535 9.26023C12.5758 9.23059 12.6088 9.2102 12.6459 9.20312H16.5309C16.6509 9.20312 16.7109 9.24671 16.7259 9.31936L22.2009 24.2852C22.2459 24.445 22.2009 24.5177 22.0509 24.5177H18.9159C18.8629 24.5226 18.8097 24.5093 18.7659 24.4801C18.722 24.4508 18.6901 24.4075 18.6759 24.3578L17.4459 20.8997ZM12.7359 17.9501H16.5459C16.4559 17.645 16.3359 17.2818 16.2009 16.904C16.0659 16.5262 15.9309 16.0903 15.7959 15.6544C15.6609 15.2185 15.5109 14.7681 15.3609 14.3177C15.2109 13.8672 15.0759 13.4459 14.9559 13.0245C14.8359 12.6031 14.7309 12.2399 14.6259 11.8912H14.5959C14.4611 12.5244 14.2908 13.1501 14.0859 13.7655C13.8609 14.463 13.6359 15.1894 13.3959 15.9159C13.1859 16.657 12.9609 17.3399 12.7359 17.9501Z" fill="#FF9A00"/>
<path d="M25.4711 11.6881C25.2249 11.6933 24.9801 11.651 24.7509 11.5637C24.5217 11.4764 24.3127 11.3458 24.1361 11.1795C23.7925 10.8155 23.6094 10.3358 23.6261 9.84278C23.6173 9.60258 23.6608 9.36326 23.7538 9.14044C23.8469 8.91763 23.9874 8.71631 24.1661 8.54962C24.5267 8.21952 25.005 8.03729 25.5011 8.04107C26.0861 8.04107 26.5361 8.21543 26.8661 8.54962C27.1984 8.90193 27.376 9.36578 27.3611 9.84278C27.3703 10.0883 27.3285 10.3331 27.2384 10.5627C27.1482 10.7922 27.0114 11.002 26.8361 11.1795C26.6594 11.3539 26.4461 11.4896 26.2106 11.5773C25.9751 11.665 25.723 11.7028 25.4711 11.6881ZM23.7911 24.3V13.112C23.7911 12.9667 23.8511 12.9086 23.9861 12.9086H26.9561C27.0911 12.9086 27.1511 12.9812 27.1511 13.112V24.3C27.1511 24.4599 27.0911 24.5325 26.9561 24.5325H24.0161C23.9846 24.535 23.9529 24.5306 23.9234 24.5196C23.8939 24.5086 23.8673 24.4913 23.8457 24.4689C23.824 24.4466 23.8079 24.4198 23.7984 24.3905C23.789 24.3613 23.7865 24.3304 23.7911 24.3Z" fill="#FF9A00"/>
</g>
<defs>
<clipPath id="clip0_1326_28986">
<rect width="36" height="34" fill="white" transform="translate(0 0.5)"/>
</clipPath>
</defs>
</svg>
