<svg width="24" height="24" viewBox="0 0 24 24" fill="none" xmlns="http://www.w3.org/2000/svg">
<path d="M20.4144 8.1816C20.2752 8.2896 17.8176 9.6744 17.8176 12.7536C17.8176 16.3152 20.9448 17.5752 21.0384 17.6064C21.024 17.6832 20.5416 19.332 19.3896 21.012C18.3624 22.4904 17.2896 23.9664 15.6576 23.9664C14.0256 23.9664 13.6056 23.0184 11.7216 23.0184C9.8856 23.0184 9.2328 23.9976 7.74 23.9976C6.2472 23.9976 5.2056 22.6296 4.008 20.9496C2.6208 18.9768 1.5 15.912 1.5 13.0032C1.5 8.3376 4.5336 5.8632 7.5192 5.8632C9.1056 5.8632 10.428 6.9048 11.424 6.9048C12.372 6.9048 13.8504 5.8008 15.6552 5.8008C16.3392 5.8008 18.7968 5.8632 20.4144 8.1816ZM14.7984 3.8256C15.5448 2.94 16.0728 1.7112 16.0728 0.4824C16.0728 0.312 16.0584 0.1392 16.0272 0C14.8128 0.0456 13.368 0.8088 12.4968 1.8192C11.8128 2.5968 11.1744 3.8256 11.1744 5.0712C11.1744 5.2584 11.2056 5.4456 11.22 5.5056C11.2968 5.52 11.4216 5.5368 11.5464 5.5368C12.636 5.5368 14.0064 4.8072 14.7984 3.8256Z" fill="#0A0A0A"/>
</svg>
