<svg width="48" height="49" viewBox="0 0 48 49" fill="none" xmlns="http://www.w3.org/2000/svg">
<circle cx="23.6111" cy="24.4998" r="23.6111" fill="#680A83"/>
<path d="M34.5142 17.7323L31.2653 14.4834C31.1648 14.3826 31.0455 14.3027 30.914 14.2482C30.7826 14.1937 30.6416 14.1658 30.4993 14.166H17.4994C17.3571 14.1658 17.2161 14.1937 17.0847 14.2482C16.9532 14.3027 16.8339 14.3826 16.7334 14.4834L13.4845 17.7323C13.3833 17.8327 13.303 17.9522 13.2484 18.0839C13.1937 18.2156 13.1657 18.3568 13.166 18.4993V32.5827C13.166 33.7776 14.1378 34.7493 15.3327 34.7493H32.666C33.8609 34.7493 34.8327 33.7776 34.8327 32.5827V18.4993C34.833 18.3568 34.805 18.2156 34.7504 18.0839C34.6957 17.9522 34.6154 17.8327 34.5142 17.7323ZM17.9479 16.3327H30.0509L31.1342 17.416H16.8645L17.9479 16.3327ZM15.3327 32.5827V19.5827H32.666L32.6682 32.5827H15.3327Z" fill="white"/>
<path d="M26.1673 21.75H21.834V25H18.584L24.0007 30.4167L29.4173 25H26.1673V21.75Z" fill="white"/>
</svg>
