<svg width="23" height="23" viewBox="0 0 20 20" fill="none" xmlns="http://www.w3.org/2000/svg">
<path d="M18.0877 4.41033L15.5885 1.91116C15.5113 1.83362 15.4194 1.77213 15.3183 1.73023C15.2172 1.68833 15.1088 1.66683 14.9994 1.66699H4.99935C4.8899 1.66683 4.78149 1.68833 4.68038 1.73023C4.57927 1.77213 4.48744 1.83362 4.41018 1.91116L1.91102 4.41033C1.83316 4.48755 1.77141 4.57948 1.72935 4.68076C1.68729 4.78204 1.66577 4.89066 1.66602 5.00033V15.8337C1.66602 16.7528 2.41352 17.5003 3.33268 17.5003H16.666C17.5852 17.5003 18.3327 16.7528 18.3327 15.8337V5.00033C18.3329 4.89066 18.3114 4.78204 18.2694 4.68076C18.2273 4.57948 18.1655 4.48755 18.0877 4.41033ZM5.34435 3.33366H14.6544L15.4877 4.16699H4.51102L5.34435 3.33366ZM3.33268 15.8337V5.83366H16.666L16.6677 15.8337H3.33268Z" fill="#616161"/>
<path d="M11.6673 7.5H8.33398V10H5.83398L10.0007 14.1667L14.1673 10H11.6673V7.5Z" fill="#616161"/>
</svg>
