<svg width="20" height="20" viewBox="0 0 20 20" fill="none" xmlns="http://www.w3.org/2000/svg">
<path d="M18.0877 4.40935L15.5885 1.91018C15.5113 1.83265 15.4194 1.77116 15.3183 1.72925C15.2172 1.68735 15.1088 1.66586 14.9994 1.66602H4.99935C4.8899 1.66586 4.78149 1.68735 4.68038 1.72925C4.57927 1.77116 4.48744 1.83265 4.41018 1.91018L1.91102 4.40935C1.83316 4.48658 1.77141 4.5785 1.72935 4.67978C1.68729 4.78106 1.66577 4.88968 1.66602 4.99935V15.8327C1.66602 16.7518 2.41352 17.4993 3.33268 17.4993H16.666C17.5852 17.4993 18.3327 16.7518 18.3327 15.8327V4.99935C18.3329 4.88968 18.3114 4.78106 18.2694 4.67978C18.2273 4.5785 18.1655 4.48658 18.0877 4.40935ZM5.34435 3.33268H14.6544L15.4877 4.16602H4.51102L5.34435 3.33268ZM3.33268 15.8327V5.83268H16.666L16.6677 15.8327H3.33268Z" fill="#E0E0E0"/>
<path d="M11.6673 7.5H8.33398V10H5.83398L10.0007 14.1667L14.1673 10H11.6673V7.5Z" fill="#E0E0E0"/>
</svg>
