<svg width="16" height="16" viewBox="0 0 16 16" fill="none" xmlns="http://www.w3.org/2000/svg">
<path d="M14.4713 3.52865L12.472 1.52932C12.4102 1.46729 12.3367 1.4181 12.2558 1.38457C12.1749 1.35105 12.0882 1.33386 12.0007 1.33399H4.00065C3.91309 1.33386 3.82637 1.35105 3.74548 1.38457C3.66459 1.4181 3.59112 1.46729 3.52932 1.52932L1.52999 3.52865C1.4677 3.59043 1.4183 3.66397 1.38465 3.745C1.35101 3.82602 1.33378 3.91292 1.33399 4.00065V12.6673C1.33399 13.4027 1.93199 14.0007 2.66732 14.0007H13.334C14.0693 14.0007 14.6673 13.4027 14.6673 12.6673V4.00065C14.6675 3.91292 14.6503 3.82602 14.6167 3.745C14.583 3.66397 14.5336 3.59043 14.4713 3.52865ZM4.27665 2.66732H11.7247L12.3913 3.33399H3.60999L4.27665 2.66732ZM2.66732 12.6673V4.66732H13.334L13.3353 12.6673H2.66732Z" fill="#9E9E9E"/>
<path d="M9.33268 6H6.66602V8H4.66602L7.99935 11.3333L11.3327 8H9.33268V6Z" fill="#9E9E9E"/>
</svg>
