<svg width="150" height="22" viewBox="0 0 150 22" fill="none" xmlns="http://www.w3.org/2000/svg">
<path d="M0.624996 17.1694C0.279875 17.1375 0 16.9593 0 16.77C0 12.9225 0 9.07498 0 5.22834C0 5.03899 0.279875 4.86088 0.624996 4.82976C0.970118 4.79863 1.24999 4.93005 1.24999 5.12286C1.24999 9.0404 1.24999 12.9588 1.24999 16.8763C1.25171 17.0691 0.970118 17.2006 0.624996 17.1694Z" fill="#680A83"/>
<path d="M2.87414 17.9928C2.52873 17.9608 2.25 17.8341 2.25 17.7096C2.25 13.2364 2.25 8.76365 2.25 4.2904C2.25 4.16641 2.53044 4.03918 2.87414 4.00723C3.21956 3.97529 3.5 4.05217 3.5 4.17886C3.5 8.72629 3.5 13.2737 3.5 17.8211C3.49829 17.9478 3.21956 18.0247 2.87414 17.9928Z" fill="#680A83"/>
<path d="M5.12415 14.3066C4.77967 14.2928 4.5 14.1129 4.5 13.9063C4.5 11.9687 4.5 10.0311 4.5 8.09353C4.5 7.88689 4.77967 7.70705 5.12415 7.69322C5.46862 7.67938 5.75 7.83933 5.75 8.04943C5.75 10.0164 5.75 11.9825 5.75 13.9495C5.74829 14.1605 5.46862 14.3204 5.12415 14.3066Z" fill="#680A83"/>
<path d="M7.375 14.5898C7.02929 14.576 6.75 14.3901 6.75 14.1748C6.75 12.0582 6.75 9.94253 6.75 7.82597C6.75 7.61068 7.02929 7.42479 7.375 7.41096C7.7207 7.39712 7.99999 7.56399 7.99999 7.78274C7.99999 9.92783 7.99999 12.0729 7.99999 14.2189C8.0017 14.4368 7.7207 14.6036 7.375 14.5898Z" fill="#680A83"/>
<path d="M9.625 16.4518C9.28023 16.4328 9 16.2365 9 16.0134C9 12.6709 9 9.32829 9 5.98572C9 5.76265 9.28023 5.56552 9.625 5.54736C9.96977 5.52834 10.25 5.69694 10.25 5.92347C10.25 9.30754 10.25 12.6916 10.25 16.0766C10.25 16.3022 9.96977 16.4708 9.625 16.4518Z" fill="#680A83"/>
<path d="M11.875 17.607C11.5295 17.5862 11.25 17.3822 11.25 17.1513C11.25 13.0505 11.25 8.94966 11.25 4.84796C11.25 4.61711 11.5295 4.41306 11.875 4.39231C12.2205 4.37156 12.5 4.54448 12.5 4.77793C12.5 8.92545 12.5 13.073 12.5 17.2205C12.5 17.4548 12.2205 17.6277 11.875 17.607Z" fill="#680A83"/>
<path d="M14.125 15.1208C13.7804 15.1087 13.5 14.9064 13.5 14.6686C13.5 12.2226 13.5 9.77665 13.5 7.33068C13.5 7.09291 13.7804 6.89059 14.125 6.87849C14.4696 6.86638 14.75 7.05227 14.75 7.29264C14.75 9.76368 14.75 12.2347 14.75 14.7058C14.75 14.947 14.4696 15.132 14.125 15.1208Z" fill="#680A83"/>
<path d="M16.375 19.8785C16.0297 19.8551 15.75 19.6381 15.75 19.3943C15.75 13.7977 15.75 8.20108 15.75 2.60533C15.75 2.36151 16.0297 2.1445 16.375 2.12115C16.7204 2.09781 17 2.28024 17 2.52665C17 8.17514 17 13.8245 17 19.473C17 19.7194 16.7204 19.9009 16.375 19.8785Z" fill="#680A83"/>
<path d="M18.625 20.0947C18.2797 20.0731 18 19.8526 18 19.6028C18 13.8678 18 8.13289 18 2.39795C18 2.14807 18.2797 1.9276 18.625 1.90599C18.9704 1.88437 19.25 2.07285 19.25 2.32532C19.25 8.10868 19.25 13.892 19.25 19.6754C19.25 19.9279 18.9704 20.1155 18.625 20.0947Z" fill="#680A83"/>
<path d="M20.875 15.2486C20.5306 15.24 20.25 15.0247 20.25 14.7688C20.25 12.2562 20.25 9.74365 20.25 7.2311C20.25 6.97518 20.5289 6.75989 20.875 6.75124C21.2194 6.7426 21.5 6.94405 21.5 7.20257C21.5 9.73414 21.5 12.2657 21.5 14.7973C21.5 15.0558 21.2211 15.2581 20.875 15.2486Z" fill="#680A83"/>
<path d="M23.1242 14.7808C22.7785 14.7739 22.4983 14.556 22.5 14.2949C22.5 12.0979 22.5 9.90093 22.5 7.70483C22.5 7.44372 22.7802 7.22583 23.1242 7.21892C23.4698 7.212 23.75 7.41951 23.75 7.68235C23.75 9.89401 23.75 12.1057 23.75 14.3173C23.7483 14.5811 23.4681 14.7886 23.1242 14.7808Z" fill="#680A83"/>
<path d="M25.375 15.7823C25.0298 15.7745 24.75 15.5523 24.75 15.286C24.75 12.4285 24.75 9.5718 24.75 6.71427C24.75 6.44883 25.0298 6.22663 25.375 6.21798C25.7202 6.2102 26 6.4203 26 6.68833C26 9.56315 26 12.4371 26 15.3119C26 15.58 25.7202 15.7901 25.375 15.7823Z" fill="#680A83"/>
<path d="M27.625 15.4758C27.2807 15.4689 27.0017 15.245 27 14.9752C27 12.3252 27 9.67517 27 7.02515C27 6.75539 27.2791 6.53059 27.625 6.52454C27.9709 6.51849 28.25 6.73291 28.25 7.0044C28.25 9.66825 28.25 12.333 28.25 14.9968C28.25 15.2683 27.9709 15.4827 27.625 15.4758Z" fill="#680A83"/>
<path d="M29.875 14.9591C29.5291 14.9539 29.25 14.7274 29.25 14.4541C29.25 12.1508 29.25 9.84838 29.25 7.54506C29.25 7.27098 29.5291 7.04532 29.875 7.04013C30.2209 7.03494 30.5 7.25369 30.5 7.5295C30.5 9.84319 30.5 12.1569 30.5 14.4706C30.5 14.7455 30.2193 14.9643 29.875 14.9591Z" fill="#680A83"/>
<path d="M32.125 14.617C31.7791 14.6127 31.5 14.3853 31.5 14.1078C31.5 12.0362 31.5 9.96459 31.5 7.89213C31.5 7.61545 31.7807 7.3872 32.125 7.38287C32.4709 7.37855 32.75 7.60162 32.75 7.87916C32.75 9.9594 32.75 12.0388 32.75 14.119C32.75 14.3992 32.4692 14.6214 32.125 14.617Z" fill="#680A83"/>
<path d="M34.375 19.9996C34.03 19.9911 33.75 19.8352 33.75 19.6509C33.75 13.8834 33.75 8.11656 33.75 2.34913C33.75 2.16479 34.03 2.00889 34.375 2.00036C34.72 1.99183 35 2.13577 35 2.32011C35 8.10632 35 13.8931 35 19.6793C35 19.8648 34.72 20.0082 34.375 19.9996Z" fill="#680A83"/>
<path d="M36.625 21.0227C36.28 21.0149 36 20.7797 36 20.4979C36 14.1655 36 7.8331 36 1.50158C36 1.21971 36.28 0.983676 36.625 0.976759C36.97 0.968978 37.25 1.19291 37.25 1.4765C37.25 7.82618 37.25 14.175 37.25 20.5247C37.25 20.8065 36.97 21.0305 36.625 21.0227Z" fill="#680A83"/>
<path d="M38.875 16.9007C38.53 16.8972 38.25 16.6638 38.25 16.3793C38.25 12.7929 38.25 9.2074 38.25 5.62101C38.25 5.33655 38.53 5.10311 38.875 5.09965C39.22 5.09619 39.5 5.32445 39.5 5.60977C39.5 9.20308 39.5 12.7964 39.5 16.3906C39.5 16.6759 39.22 16.9041 38.875 16.9007Z" fill="#680A83"/>
<path d="M41.125 14.5231C40.78 14.5214 40.5 14.2888 40.5 14.0035C40.5 12.0011 40.5 9.99863 40.5 7.9962C40.5 7.71088 40.78 7.47744 41.125 7.47657C41.47 7.47484 41.75 7.70569 41.75 7.99188C41.75 9.99777 41.75 12.0028 41.75 14.0087C41.75 14.294 41.47 14.5249 41.125 14.5231Z" fill="#680A83"/>
<path d="M43.375 16.3445C43.03 16.3428 42.75 16.1094 42.75 15.8232C42.75 12.6077 42.75 9.39309 42.75 6.17762C42.75 5.89057 43.03 5.65712 43.375 5.65626C43.72 5.65453 44 5.88624 44 6.17329C44 9.39137 44 12.6094 44 15.8275C44 16.1137 43.72 16.3454 43.375 16.3445Z" fill="#680A83"/>
<path d="M45.625 16.5547C45.28 16.5538 45 16.3212 45 16.0333C45 12.6778 45 9.32222 45 5.96667C45 5.67962 45.28 5.44618 45.625 5.44531C45.97 5.44445 46.25 5.67789 46.25 5.96494C46.25 9.32135 46.25 12.6778 46.25 16.0342C46.25 16.3221 45.97 16.5547 45.625 16.5547Z" fill="#680A83"/>
<path d="M47.875 17.8524C47.53 17.8576 47.25 17.632 47.25 17.3492C47.25 13.1161 47.25 8.88387 47.25 4.65075C47.25 4.36802 47.53 4.14236 47.875 4.14755C48.22 4.15274 48.5 4.38618 48.5 4.66804C48.5 8.88992 48.5 13.1109 48.5 17.3328C48.5 17.6147 48.22 17.8473 47.875 17.8524Z" fill="#680A83"/>
<path d="M50.125 18.9765C49.78 18.9843 49.5 18.7621 49.5 18.4811C49.5 13.494 49.5 8.50611 49.5 3.51906C49.5 3.23806 49.78 3.01585 50.125 3.02364C50.47 3.03142 50.75 3.264 50.75 3.54413C50.75 8.51476 50.75 13.4854 50.75 18.4569C50.75 18.7362 50.47 18.9687 50.125 18.9765Z" fill="#680A83"/>
<path d="M52.375 15.7844C52.0291 15.7896 51.75 15.5683 51.75 15.2899C51.75 12.4297 51.75 9.56961 51.75 6.70949C51.75 6.43108 52.0307 6.20975 52.375 6.21493C52.7209 6.22012 53 6.44924 53 6.72592C53 9.5748 53 12.4237 53 15.2717C53 15.5501 52.7209 15.7792 52.375 15.7844Z" fill="#680A83"/>
<path d="M54.625 20.9229C54.2791 20.9359 54 20.7224 54 20.4474C54 14.1487 54 7.85093 54 1.55227C54 1.27732 54.2791 1.06376 54.625 1.07673C54.9709 1.0897 55.25 1.32228 55.25 1.5955C55.25 7.86477 55.25 14.134 55.25 20.4033C55.25 20.6783 54.9693 20.9108 54.625 20.9229Z" fill="#680A83"/>
<path d="M56.8758 20.7905C56.5311 20.8052 56.25 20.596 56.25 20.3245C56.25 14.1079 56.25 7.8914 56.25 1.67574C56.25 1.40425 56.5295 1.19502 56.8758 1.20971C57.2206 1.22441 57.5 1.45526 57.5 1.72502C57.5 7.9087 57.5 14.0915 57.5 20.2752C57.5 20.5449 57.2206 20.7758 56.8758 20.7905Z" fill="#680A83"/>
<path d="M59.125 15.4075C58.7798 15.4153 58.5 15.2044 58.5 14.9363C58.5 12.3122 58.5 9.6873 58.5 7.06322C58.5 6.79519 58.7798 6.58422 59.125 6.59201C59.4702 6.59979 59.75 6.82113 59.75 7.08656C59.75 9.69508 59.75 12.3045 59.75 14.913C59.75 15.1784 59.4702 15.3998 59.125 15.4075Z" fill="#680A83"/>
<path d="M61.3758 14.7808C61.0302 14.7877 60.75 14.5802 60.75 14.3173C60.75 12.1057 60.75 9.89401 60.75 7.68235C60.75 7.41951 61.0302 7.212 61.3758 7.21892C61.7215 7.22583 62 7.44372 62 7.70483C62 9.9018 62 12.0988 62 14.2949C62.0017 14.556 61.7215 14.7739 61.3758 14.7808Z" fill="#680A83"/>
<path d="M63.625 15.6086C63.2806 15.6181 63 15.4166 63 15.159C63 12.3862 63 9.6134 63 6.8406C63 6.58209 63.2806 6.38063 63.625 6.39101C63.9694 6.40052 64.25 6.61667 64.25 6.8726C64.25 9.62464 64.25 12.3767 64.25 15.1279C64.25 15.3838 63.9694 15.5991 63.625 15.6086Z" fill="#680A83"/>
<path d="M65.875 15.1579C65.5296 15.1674 65.25 14.9703 65.25 14.7178C65.25 12.239 65.25 9.76104 65.25 7.28221C65.25 7.02975 65.5296 6.83262 65.875 6.84213C66.2203 6.85164 66.5 7.0626 66.5 7.31334C66.5 9.77142 66.5 12.2286 66.5 14.6867C66.5 14.9375 66.2203 15.1484 65.875 15.1579Z" fill="#680A83"/>
<path d="M68.125 14.5427C67.7796 14.5522 67.5 14.3594 67.5 14.1121C67.5 12.0371 67.5 9.96203 67.5 7.88697C67.5 7.63969 67.7796 7.44688 68.125 7.45639C68.4703 7.4659 68.75 7.67168 68.75 7.9155C68.75 9.97154 68.75 12.0267 68.75 14.0827C68.7483 14.3274 68.4687 14.5332 68.125 14.5427Z" fill="#680A83"/>
<path d="M70.375 14.1155C70.0304 14.1241 69.75 13.9365 69.75 13.6961C69.75 11.8986 69.75 10.102 69.75 8.30444C69.75 8.06408 70.0304 7.8756 70.375 7.88511C70.7196 7.89376 71 8.09435 71 8.33211C71 10.1106 71 11.89 71 13.6685C71 13.9062 70.7213 14.1068 70.375 14.1155Z" fill="#680A83"/>
<path d="M72.625 18.9965C72.2795 19.0216 72 18.9081 72 18.7427C72 13.5809 72 8.4191 72 3.25732C72 3.09254 72.2795 2.97842 72.625 3.00344C72.9705 3.02846 73.25 3.18103 73.25 3.34398C73.25 8.44779 73.25 13.5516 73.25 18.6554C73.25 18.819 72.9705 18.9715 72.625 18.9965Z" fill="#680A83"/>
<path d="M74.875 18.9748C74.5302 19.0025 74.25 18.8408 74.25 18.6143C74.25 13.5382 74.25 8.46122 74.25 3.38511C74.25 3.15858 74.5302 2.9969 74.875 3.02457C75.2198 3.05223 75.5 3.25542 75.5 3.47935C75.5 8.49321 75.5 13.5071 75.5 18.5209C75.5 18.7431 75.2198 18.9472 74.875 18.9748Z" fill="#680A83"/>
<path d="M77.125 15.503C76.7793 15.5203 76.5 15.3569 76.5 15.1373C76.5 12.3792 76.5 9.62106 76.5 6.86296C76.5 6.64421 76.781 6.4808 77.125 6.49723C77.4707 6.51452 77.75 6.70301 77.75 6.91829C77.75 9.63922 77.75 12.3601 77.75 15.0811C77.7517 15.2972 77.4707 15.4857 77.125 15.503Z" fill="#680A83"/>
<path d="M79.3758 13.5749C79.0314 13.5861 78.7517 13.4236 78.75 13.2126C78.75 11.7376 78.75 10.2626 78.75 8.78755C78.75 8.57658 79.0297 8.4149 79.3758 8.42528C79.7203 8.43652 80 8.6129 80 8.8204C80 10.2738 80 11.7263 80 13.1798C80 13.3873 79.7203 13.5636 79.3758 13.5749Z" fill="#680A83"/>
<path d="M81.6259 14.7298C81.2804 14.747 81 14.5966 81 14.3951C81 12.1316 81 9.86806 81 7.60452C81 7.4022 81.2804 7.25262 81.6259 7.26991C81.9713 7.28721 82.25 7.46186 82.25 7.65985C82.25 9.88622 82.25 12.1126 82.25 14.3389C82.25 14.5369 81.9713 14.7125 81.6259 14.7298Z" fill="#680A83"/>
<path d="M83.875 14.6927C83.5299 14.7118 83.25 14.57 83.25 14.3772C83.25 12.1257 83.25 9.87428 83.25 7.62198C83.25 7.42917 83.5299 7.28738 83.875 7.3064C84.2201 7.32542 84.5 7.49402 84.5 7.6825C84.5 9.89331 84.5 12.105 84.5 14.3158C84.5 14.5051 84.2201 14.6737 83.875 14.6927Z" fill="#9E9E9E"/>
<path d="M86.125 17.1694C85.7799 17.1375 85.5 16.9593 85.5 16.77C85.5 12.9225 85.5 9.07498 85.5 5.22834C85.5 5.03899 85.7799 4.86088 86.125 4.82976C86.4701 4.79863 86.75 4.93005 86.75 5.12286C86.75 9.0404 86.75 12.9588 86.75 16.8763C86.7517 17.0691 86.4701 17.2006 86.125 17.1694Z" fill="#9E9E9E"/>
<path d="M88.3741 17.9928C88.0287 17.9608 87.75 17.8341 87.75 17.7096C87.75 13.2364 87.75 8.76365 87.75 4.2904C87.75 4.16641 88.0304 4.03918 88.3741 4.00723C88.7196 3.97529 89 4.05217 89 4.17886C89 8.72629 89 13.2737 89 17.8211C88.9983 17.9478 88.7196 18.0247 88.3741 17.9928Z" fill="#9E9E9E"/>
<path d="M90.625 15.1208C90.2804 15.1087 90 14.9064 90 14.6686C90 12.2226 90 9.77665 90 7.33068C90 7.09291 90.2804 6.89059 90.625 6.87849C90.9696 6.86638 91.25 7.05227 91.25 7.29264C91.25 9.76368 91.25 12.2347 91.25 14.7058C91.25 14.947 90.9696 15.132 90.625 15.1208Z" fill="#9E9E9E"/>
<path d="M92.875 19.8785C92.5297 19.8551 92.25 19.6381 92.25 19.3943C92.25 13.7977 92.25 8.20108 92.25 2.60533C92.25 2.36151 92.5297 2.1445 92.875 2.12115C93.2204 2.09781 93.5 2.28024 93.5 2.52665C93.5 8.17514 93.5 13.8245 93.5 19.473C93.5 19.7194 93.2204 19.9009 92.875 19.8785Z" fill="#9E9E9E"/>
<path d="M95.125 20.0947C94.7797 20.0731 94.5 19.8526 94.5 19.6028C94.5 13.8678 94.5 8.13289 94.5 2.39795C94.5 2.14807 94.7797 1.9276 95.125 1.90599C95.4704 1.88437 95.75 2.07285 95.75 2.32532C95.75 8.10868 95.75 13.892 95.75 19.6754C95.75 19.9279 95.4704 20.1155 95.125 20.0947Z" fill="#9E9E9E"/>
<path d="M97.375 15.2486C97.0306 15.24 96.75 15.0247 96.75 14.7688C96.75 12.2562 96.75 9.74365 96.75 7.2311C96.75 6.97518 97.0289 6.75989 97.375 6.75124C97.7194 6.7426 98 6.94405 98 7.20257C98 9.73414 98 12.2657 98 14.7973C98 15.0558 97.7211 15.2581 97.375 15.2486Z" fill="#9E9E9E"/>
<path d="M99.6242 14.7808C99.2785 14.7739 98.9983 14.556 99 14.2949C99 12.0979 99 9.90093 99 7.70483C99 7.44372 99.2802 7.22583 99.6242 7.21892C99.9698 7.212 100.25 7.41951 100.25 7.68235C100.25 9.89401 100.25 12.1057 100.25 14.3173C100.248 14.5811 99.9681 14.7886 99.6242 14.7808Z" fill="#9E9E9E"/>
<path d="M101.875 19.9996C101.53 19.9911 101.25 19.8352 101.25 19.6509C101.25 13.8834 101.25 8.11656 101.25 2.34913C101.25 2.16479 101.53 2.00889 101.875 2.00036C102.22 1.99183 102.5 2.13577 102.5 2.32011C102.5 8.10632 102.5 13.8931 102.5 19.6793C102.5 19.8648 102.22 20.0082 101.875 19.9996Z" fill="#9E9E9E"/>
<path d="M104.125 21.0227C103.78 21.0149 103.5 20.7797 103.5 20.4979C103.5 14.1655 103.5 7.8331 103.5 1.50158C103.5 1.21971 103.78 0.983676 104.125 0.976759C104.47 0.968978 104.75 1.19291 104.75 1.4765C104.75 7.82618 104.75 14.175 104.75 20.5247C104.75 20.8065 104.47 21.0305 104.125 21.0227Z" fill="#9E9E9E"/>
<path d="M106.375 16.9007C106.03 16.8972 105.75 16.6638 105.75 16.3793C105.75 12.7929 105.75 9.2074 105.75 5.62101C105.75 5.33655 106.03 5.10311 106.375 5.09965C106.72 5.09619 107 5.32445 107 5.60977C107 9.20308 107 12.7964 107 16.3906C107 16.6759 106.72 16.9041 106.375 16.9007Z" fill="#9E9E9E"/>
<path d="M108.625 14.5231C108.28 14.5214 108 14.2888 108 14.0035C108 12.0011 108 9.99863 108 7.9962C108 7.71088 108.28 7.47744 108.625 7.47657C108.97 7.47484 109.25 7.70569 109.25 7.99188C109.25 9.99777 109.25 12.0028 109.25 14.0087C109.25 14.294 108.97 14.5249 108.625 14.5231Z" fill="#9E9E9E"/>
<path d="M110.875 16.3445C110.53 16.3428 110.25 16.1094 110.25 15.8232C110.25 12.6077 110.25 9.39309 110.25 6.17762C110.25 5.89057 110.53 5.65712 110.875 5.65626C111.22 5.65453 111.5 5.88624 111.5 6.17329C111.5 9.39137 111.5 12.6094 111.5 15.8275C111.5 16.1137 111.22 16.3454 110.875 16.3445Z" fill="#9E9E9E"/>
<path d="M113.125 16.5547C112.78 16.5538 112.5 16.3212 112.5 16.0333C112.5 12.6778 112.5 9.32222 112.5 5.96667C112.5 5.67962 112.78 5.44618 113.125 5.44531C113.47 5.44445 113.75 5.67789 113.75 5.96494C113.75 9.32135 113.75 12.6778 113.75 16.0342C113.75 16.3221 113.47 16.5547 113.125 16.5547Z" fill="#9E9E9E"/>
<path d="M115.375 20.2795C115.03 20.2804 114.75 20.0478 114.75 19.7608C114.75 13.9203 114.75 8.0799 114.75 2.23947C114.75 1.95242 115.03 1.71984 115.375 1.72071C115.72 1.72157 116 1.95501 116 2.24206C116 8.08076 116 13.9195 116 19.7582C116.002 20.0452 115.722 20.2787 115.375 20.2795Z" fill="#9E9E9E"/>
<path d="M117.625 21C117.28 21.0027 117 20.8589 117 20.6795C117 14.2267 117 7.77332 117 1.32049C117 1.14108 117.28 0.997336 117.625 1.00004C117.97 1.00274 118.25 1.15027 118.25 1.32914C118.25 7.77656 118.25 14.224 118.25 20.6714C118.25 20.8497 117.97 20.9973 117.625 21Z" fill="#9E9E9E"/>
<path d="M119.875 15.5253C119.53 15.5271 119.25 15.2962 119.25 15.0109C119.25 12.3367 119.25 9.6633 119.25 6.98907C119.25 6.70289 119.53 6.47204 119.875 6.47463C120.22 6.47636 120.5 6.7098 120.5 6.99513C120.5 9.66503 120.5 12.3349 120.5 15.0049C120.5 15.2902 120.22 15.5236 119.875 15.5253Z" fill="#9E9E9E"/>
<path d="M122.125 15.7038C121.78 15.7064 121.5 15.4773 121.5 15.1928C121.5 12.3976 121.5 9.60316 121.5 6.80788C121.5 6.52342 121.78 6.2943 122.125 6.2969C122.47 6.29949 122.75 6.53207 122.75 6.81653C122.75 9.60575 122.75 12.395 122.75 15.1842C122.75 15.4687 122.47 15.7012 122.125 15.7038Z" fill="#9E9E9E"/>
<path d="M124.375 17.8524C124.03 17.8576 123.75 17.632 123.75 17.3492C123.75 13.1161 123.75 8.88387 123.75 4.65075C123.75 4.36802 124.03 4.14236 124.375 4.14755C124.72 4.15274 125 4.38618 125 4.66804C125 8.88992 125 13.1109 125 17.3328C125 17.6147 124.72 17.8473 124.375 17.8524Z" fill="#9E9E9E"/>
<path d="M126.625 18.9765C126.28 18.9843 126 18.7621 126 18.4811C126 13.494 126 8.50611 126 3.51906C126 3.23806 126.28 3.01585 126.625 3.02364C126.97 3.03142 127.25 3.264 127.25 3.54413C127.25 8.51476 127.25 13.4854 127.25 18.4569C127.25 18.7362 126.97 18.9687 126.625 18.9765Z" fill="#9E9E9E"/>
<path d="M128.875 15.6086C128.531 15.6181 128.25 15.4166 128.25 15.159C128.25 12.3862 128.25 9.6134 128.25 6.8406C128.25 6.58209 128.531 6.38063 128.875 6.39101C129.219 6.40052 129.5 6.61667 129.5 6.8726C129.5 9.62464 129.5 12.3767 129.5 15.1279C129.5 15.3838 129.219 15.5991 128.875 15.6086Z" fill="#9E9E9E"/>
<path d="M131.125 15.1579C130.78 15.1674 130.5 14.9703 130.5 14.7178C130.5 12.239 130.5 9.76104 130.5 7.28221C130.5 7.02975 130.78 6.83262 131.125 6.84213C131.47 6.85164 131.75 7.0626 131.75 7.31334C131.75 9.77142 131.75 12.2286 131.75 14.6867C131.75 14.9375 131.47 15.1484 131.125 15.1579Z" fill="#9E9E9E"/>
<path d="M133.375 14.5427C133.03 14.5522 132.75 14.3594 132.75 14.1121C132.75 12.0371 132.75 9.96203 132.75 7.88697C132.75 7.63969 133.03 7.44688 133.375 7.45639C133.72 7.4659 134 7.67168 134 7.9155C134 9.97154 134 12.0267 134 14.0827C133.998 14.3274 133.719 14.5332 133.375 14.5427Z" fill="#9E9E9E"/>
<path d="M135.625 14.1155C135.28 14.1241 135 13.9365 135 13.6961C135 11.8986 135 10.102 135 8.30444C135 8.06408 135.28 7.8756 135.625 7.88511C135.97 7.89376 136.25 8.09435 136.25 8.33211C136.25 10.1106 136.25 11.89 136.25 13.6685C136.25 13.9062 135.971 14.1068 135.625 14.1155Z" fill="#9E9E9E"/>
<path d="M137.875 18.9965C137.529 19.0216 137.25 18.9081 137.25 18.7427C137.25 13.5809 137.25 8.4191 137.25 3.25732C137.25 3.09254 137.529 2.97842 137.875 3.00344C138.221 3.02846 138.5 3.18103 138.5 3.34398C138.5 8.44779 138.5 13.5516 138.5 18.6554C138.5 18.819 138.221 18.9715 137.875 18.9965Z" fill="#9E9E9E"/>
<path d="M140.125 18.9748C139.78 19.0025 139.5 18.8408 139.5 18.6143C139.5 13.5382 139.5 8.46122 139.5 3.38511C139.5 3.15858 139.78 2.9969 140.125 3.02457C140.47 3.05223 140.75 3.25542 140.75 3.47935C140.75 8.49321 140.75 13.5071 140.75 18.5209C140.75 18.7431 140.47 18.9472 140.125 18.9748Z" fill="#9E9E9E"/>
<path d="M142.375 15.503C142.029 15.5203 141.75 15.3569 141.75 15.1373C141.75 12.3792 141.75 9.62106 141.75 6.86296C141.75 6.64421 142.031 6.4808 142.375 6.49723C142.721 6.51452 143 6.70301 143 6.91829C143 9.63922 143 12.3601 143 15.0811C143.002 15.2972 142.721 15.4857 142.375 15.503Z" fill="#9E9E9E"/>
<path d="M144.626 13.5749C144.281 13.5861 144.002 13.4236 144 13.2126C144 11.7376 144 10.2626 144 8.78755C144 8.57658 144.28 8.4149 144.626 8.42528C144.97 8.43652 145.25 8.6129 145.25 8.8204C145.25 10.2738 145.25 11.7263 145.25 13.1798C145.25 13.3873 144.97 13.5636 144.626 13.5749Z" fill="#9E9E9E"/>
<path d="M146.876 14.7298C146.53 14.747 146.25 14.5966 146.25 14.3951C146.25 12.1316 146.25 9.86806 146.25 7.60452C146.25 7.4022 146.53 7.25262 146.876 7.26991C147.221 7.28721 147.5 7.46186 147.5 7.65985C147.5 9.88622 147.5 12.1126 147.5 14.3389C147.5 14.5369 147.221 14.7125 146.876 14.7298Z" fill="#9E9E9E"/>
<path d="M149.125 14.6927C148.78 14.7118 148.5 14.57 148.5 14.3772C148.5 12.1257 148.5 9.87428 148.5 7.62198C148.5 7.42917 148.78 7.28738 149.125 7.3064C149.47 7.32542 149.75 7.49402 149.75 7.6825C149.75 9.89331 149.75 12.105 149.75 14.3158C149.75 14.5051 149.47 14.6737 149.125 14.6927Z" fill="#9E9E9E"/>
</svg>
