<svg width="82" height="23" viewBox="0 0 82 23" fill="none" xmlns="http://www.w3.org/2000/svg">
<g clip-path="url(#clip0_1371_102211)">
<path d="M8.6981 18.1449C8.29777 18.1449 7.97461 17.8147 7.97461 17.4057V5.59275C7.97461 5.18371 8.29777 4.85352 8.6981 4.85352C9.09844 4.85352 9.4216 5.18371 9.4216 5.59275V17.4106C9.4216 17.8147 9.09844 18.1449 8.6981 18.1449Z" fill="#02A2B9"/>
<path d="M4.90123 16.2984C4.5009 16.2984 4.17773 15.9682 4.17773 15.5591V7.44236C4.17773 7.03332 4.5009 6.70312 4.90123 6.70312C5.30156 6.70312 5.62472 7.03332 5.62472 7.44236V15.5641C5.62472 15.9682 5.30156 16.2984 4.90123 16.2984Z" fill="#02A2B9"/>
<path d="M54.2879 18.1449C53.8876 18.1449 53.5645 17.8147 53.5645 17.4057V5.59275C53.5645 5.18371 53.8876 4.85352 54.2879 4.85352C54.6883 4.85352 55.0114 5.18371 55.0114 5.59275V17.4106C55.0114 17.8147 54.6883 18.1449 54.2879 18.1449Z" fill="#02A2B9"/>
<path d="M50.4872 16.2984C50.0868 16.2984 49.7637 15.9682 49.7637 15.5591V7.44236C49.7637 7.03332 50.0868 6.70312 50.4872 6.70312C50.8875 6.70312 51.2107 7.03332 51.2107 7.44236V15.5641C51.2107 15.9682 50.8875 16.2984 50.4872 16.2984Z" fill="#02A2B9"/>
<path d="M58.0868 16.2984C57.6864 16.2984 57.3633 15.9682 57.3633 15.5591V7.44236C57.3633 7.03332 57.6864 6.70312 58.0868 6.70312C58.4871 6.70312 58.8103 7.03332 58.8103 7.44236V15.5641C58.8103 15.9682 58.4823 16.2984 58.0868 16.2984Z" fill="#02A2B9"/>
<path d="M61.8837 14.6418C61.4833 14.6418 61.1602 14.3116 61.1602 13.9026V9.10251C61.1602 8.69347 61.4833 8.36328 61.8837 8.36328C62.284 8.36328 62.6072 8.69347 62.6072 9.10251V13.9026C62.6072 14.3067 62.284 14.6418 61.8837 14.6418Z" fill="#02A2B9"/>
<path d="M69.3797 18.1449C68.9794 18.1449 68.6562 17.8147 68.6562 17.4057V5.59275C68.6562 5.18371 68.9794 4.85352 69.3797 4.85352C69.7801 4.85352 70.1032 5.18371 70.1032 5.59275V17.4106C70.1032 17.8147 69.7753 18.1449 69.3797 18.1449Z" fill="#02A2B9"/>
<path d="M65.579 16.2984C65.1786 16.2984 64.8555 15.9682 64.8555 15.5591V7.44236C64.8555 7.03332 65.1786 6.70312 65.579 6.70312C65.9793 6.70312 66.3025 7.03332 66.3025 7.44236V15.5641C66.3025 15.9682 65.9793 16.2984 65.579 16.2984Z" fill="#02A2B9"/>
<path d="M73.1747 16.2984C72.7743 16.2984 72.4512 15.9682 72.4512 15.5591V7.44236C72.4512 7.03332 72.7743 6.70312 73.1747 6.70312C73.575 6.70312 73.8982 7.03332 73.8982 7.44236V15.5641C73.8982 15.9682 73.575 16.2984 73.1747 16.2984Z" fill="#02A2B9"/>
<path d="M76.9754 14.6418C76.5751 14.6418 76.252 14.3116 76.252 13.9026V9.10251C76.252 8.69347 76.5751 8.36328 76.9754 8.36328C77.3758 8.36328 77.6989 8.69347 77.6989 9.10251V13.9026C77.6989 14.3067 77.3758 14.6418 76.9754 14.6418Z" fill="#02A2B9"/>
<path d="M80.4012 13.9668C80.0009 13.9668 79.6777 13.6366 79.6777 13.2276V10.5713C79.6777 10.1622 80.0009 9.83203 80.4012 9.83203C80.8016 9.83203 81.1247 10.1622 81.1247 10.5713V13.2276C81.1247 13.6366 80.8016 13.9668 80.4012 13.9668Z" fill="#02A2B9"/>
<path d="M23.8954 18.0673C23.495 18.0673 23.1719 17.7371 23.1719 17.3281V5.67283C23.1719 5.26378 23.495 4.93359 23.8954 4.93359C24.2957 4.93359 24.6189 5.26378 24.6189 5.67283V17.3281C24.6189 17.7371 24.2957 18.0673 23.8954 18.0673Z" fill="#02A2B9"/>
<path d="M12.4969 19.8999C12.0966 19.8999 11.7734 19.5697 11.7734 19.1607V3.83884C11.7734 3.4298 12.0966 3.09961 12.4969 3.09961C12.8973 3.09961 13.2204 3.4298 13.2204 3.83884V19.1607C13.2204 19.5697 12.8973 19.8999 12.4969 19.8999Z" fill="#02A2B9"/>
<path d="M16.2977 23C15.8974 23 15.5742 22.6698 15.5742 22.2608V0.739233C15.5742 0.330191 15.8974 0 16.2977 0C16.698 0 17.0212 0.330191 17.0212 0.739233V22.2608C17.0212 22.6698 16.6932 23 16.2977 23Z" fill="#02A2B9"/>
<path d="M20.0946 19.8999C19.6943 19.8999 19.3711 19.5697 19.3711 19.1607V3.83884C19.3711 3.4298 19.6943 3.09961 20.0946 3.09961C20.4949 3.09961 20.8181 3.4298 20.8181 3.83884V19.1607C20.8181 19.5697 20.4949 19.8999 20.0946 19.8999Z" fill="#02A2B9"/>
<path d="M31.493 18.1449C31.0927 18.1449 30.7695 17.8147 30.7695 17.4057V5.59275C30.7695 5.18371 31.0927 4.85352 31.493 4.85352C31.8934 4.85352 32.2165 5.18371 32.2165 5.59275V17.4106C32.2165 17.8147 31.8934 18.1449 31.493 18.1449Z" fill="#02A2B9"/>
<path d="M27.6922 16.2984C27.2919 16.2984 26.9688 15.9682 26.9688 15.5591V7.44236C26.9688 7.03332 27.2919 6.70312 27.6922 6.70312C28.0926 6.70312 28.4157 7.03332 28.4157 7.44236V15.5641C28.4157 15.9682 28.0926 16.2984 27.6922 16.2984Z" fill="#02A2B9"/>
<path d="M46.6903 18.0673C46.29 18.0673 45.9668 17.7371 45.9668 17.3281V5.67283C45.9668 5.26378 46.29 4.93359 46.6903 4.93359C47.0906 4.93359 47.4138 5.26378 47.4138 5.67283V17.3281C47.4138 17.7371 47.0858 18.0673 46.6903 18.0673Z" fill="#02A2B9"/>
<path d="M35.2938 19.8999C34.8935 19.8999 34.5703 19.5697 34.5703 19.1607V3.83884C34.5703 3.4298 34.8935 3.09961 35.2938 3.09961C35.6941 3.09961 36.0173 3.4298 36.0173 3.83884V19.1607C36.0173 19.5697 35.6893 19.8999 35.2938 19.8999Z" fill="#02A2B9"/>
<path d="M39.0887 23C38.6884 23 38.3652 22.6698 38.3652 22.2608V0.739233C38.3652 0.330191 38.6884 0 39.0887 0C39.4891 0 39.8122 0.330191 39.8122 0.739233V22.2608C39.8122 22.6698 39.4891 23 39.0887 23Z" fill="#02A2B9"/>
<path d="M42.8895 19.8999C42.4892 19.8999 42.166 19.5697 42.166 19.1607V3.83884C42.166 3.4298 42.4892 3.09961 42.8895 3.09961C43.2898 3.09961 43.613 3.4298 43.613 3.83884V19.1607C43.613 19.5697 43.2898 19.8999 42.8895 19.8999Z" fill="#02A2B9"/>
<path d="M1.10045 15.1204C0.700114 15.1204 0.376953 14.7902 0.376953 14.3812V8.62009C0.376953 8.21105 0.700114 7.88086 1.10045 7.88086C1.50078 7.88086 1.82394 8.21105 1.82394 8.62009V14.3812C1.82394 14.7902 1.50078 15.1204 1.10045 15.1204Z" fill="#02A2B9"/>
</g>
<defs>
<clipPath id="clip0_1371_102211">
<rect width="80.7469" height="23" fill="white" transform="translate(0.376953)"/>
</clipPath>
</defs>
</svg>
