<svg width="18" height="18" viewBox="0 0 18 18" fill="none" xmlns="http://www.w3.org/2000/svg">
<path d="M12 9.00012V4.50012C12 2.83737 10.6613 1.48438 9.01575 1.48438C8.96296 1.48469 8.91038 1.49098 8.859 1.50312C8.08894 1.54046 7.36269 1.87239 6.83053 2.43024C6.29837 2.98809 6.00102 3.72916 6 4.50012V9.00012C6 10.6546 7.3455 12.0001 9 12.0001C10.6545 12.0001 12 10.6546 12 9.00012ZM7.5 9.00012V4.50012C7.5 3.67287 8.17275 3.00012 9 3.00012C9.04101 3.00014 9.08193 2.99637 9.12225 2.98888C9.891 3.04513 10.5 3.70138 10.5 4.50012V9.00012C10.5 9.82738 9.82725 10.5001 9 10.5001C8.17275 10.5001 7.5 9.82738 7.5 9.00012Z" fill="#616161"/>
<path d="M4.5 9H3C3 12.054 5.29575 14.577 8.25 14.9482V16.5H9.75V14.9482C12.7043 14.577 15 12.0547 15 9H13.5C13.5 11.4818 11.4818 13.5 9 13.5C6.51825 13.5 4.5 11.4818 4.5 9Z" fill="#616161"/>
</svg>
