<svg width="18" height="18" viewBox="0 0 18 18" fill="none" xmlns="http://www.w3.org/2000/svg">
<path d="M12.5342 9.96561C12.4646 9.8959 12.382 9.8406 12.291 9.80286C12.2 9.76513 12.1025 9.74571 12.004 9.74571C11.9055 9.74571 11.8079 9.76513 11.7169 9.80286C11.6259 9.8406 11.5433 9.8959 11.4737 9.96561L10.276 11.1626C9.65795 10.9789 8.65145 10.5844 8.03345 9.96561C7.37795 9.31011 7.00295 8.27586 6.83795 7.72161L8.03345 6.52611C8.10316 6.45652 8.15847 6.37386 8.1962 6.28288C8.23393 6.19189 8.25335 6.09436 8.25335 5.99586C8.25335 5.89736 8.23393 5.79982 8.1962 5.70884C8.15847 5.61785 8.10316 5.5352 8.03345 5.46561L5.03345 2.46561C4.89007 2.33027 4.70037 2.25488 4.5032 2.25488C4.30604 2.25488 4.11634 2.33027 3.97295 2.46561L1.9412 4.49811C1.6547 4.78311 1.49345 5.17611 1.5002 5.57586C1.5167 6.64311 1.7972 10.3511 4.72295 13.2769C7.64645 16.1996 11.3567 16.4824 12.4247 16.4996H12.4457C12.8417 16.4996 13.216 16.3436 13.4995 16.0601L15.5335 14.0261C15.6032 13.9565 15.6585 13.8739 15.6962 13.7829C15.7339 13.6919 15.7534 13.5944 15.7534 13.4959C15.7534 13.3974 15.7339 13.2998 15.6962 13.2088C15.6585 13.1179 15.6032 13.0352 15.5335 12.9656L12.5342 9.96561ZM12.439 14.9996C11.503 14.9839 8.30045 14.7326 5.78345 12.2156C3.25745 9.68961 3.01445 6.47661 3.0002 5.56011L4.5032 4.05636L6.4427 5.99586L5.47295 6.96561C5.29445 7.14411 5.21795 7.40211 5.2697 7.64961C5.2877 7.73586 5.72795 9.78111 6.97295 11.0261C8.21795 12.2711 10.2632 12.7114 10.3495 12.7294C10.4714 12.7554 10.5979 12.7504 10.7174 12.7149C10.8368 12.6794 10.9455 12.6145 11.0335 12.5261L12.0032 11.5564L13.9427 13.4959L12.439 14.9996Z" fill="#DE3E44"/>
<path d="M11.8464 5.09307L9.75391 2.99982V8.24607H15.0002L12.9069 6.15357L16.2842 2.77632L15.2237 1.71582L11.8464 5.09307Z" fill="#DE3E44"/>
</svg>
