<svg width="16" height="16" viewBox="0 0 16 16" fill="none" xmlns="http://www.w3.org/2000/svg">
<path d="M8.00065 14.6663L8.66732 13.333V11.333H12.0007C12.1775 11.333 12.347 11.2628 12.4721 11.1377C12.5971 11.0127 12.6673 10.8432 12.6673 10.6663V9.60901C12.6673 9.25834 12.5247 8.91434 12.2767 8.66634L11.334 7.72367V5.33301C11.5108 5.33301 11.6804 5.26277 11.8054 5.13775C11.9304 5.01272 12.0007 4.84315 12.0007 4.66634V2.66634C12.0007 1.93101 11.4027 1.33301 10.6673 1.33301H5.33398C4.59865 1.33301 4.00065 1.93101 4.00065 2.66634V4.66634C4.00065 4.84315 4.07089 5.01272 4.19591 5.13775C4.32094 5.26277 4.49051 5.33301 4.66732 5.33301V7.72367L3.72465 8.66634C3.4752 8.91674 3.33479 9.25556 3.33398 9.60901V10.6663C3.33398 10.8432 3.40422 11.0127 3.52925 11.1377C3.65427 11.2628 3.82384 11.333 4.00065 11.333H7.33398V13.333L8.00065 14.6663ZM5.33398 2.66634H10.6673V3.99967H5.33398V2.66634ZM4.66732 9.60901L5.80532 8.47101C5.86735 8.4092 5.91654 8.33574 5.95006 8.25485C5.98358 8.17396 6.00078 8.08724 6.00065 7.99967V5.33301H10.0007V7.99967C10.0007 8.17701 10.0707 8.34634 10.196 8.47101L11.334 9.60901V9.99967H4.66732V9.60901Z" fill="#616161"/>
</svg>
