<svg width="16" height="17" viewBox="0 0 16 17" fill="none" xmlns="http://www.w3.org/2000/svg">
<path d="M12.2563 9.24368C12.179 9.16623 12.0871 9.10478 11.986 9.06285C11.8849 9.02093 11.7766 8.99935 11.6671 8.99935C11.5577 8.99935 11.4493 9.02093 11.3482 9.06285C11.2471 9.10478 11.1553 9.16623 11.0779 9.24368L9.74961 10.572C9.13377 10.3887 7.98461 9.97202 7.25627 9.24368C6.52794 8.51535 6.11127 7.36618 5.92794 6.75035L7.25627 5.42202C7.33373 5.34469 7.39518 5.25286 7.4371 5.15176C7.47903 5.05067 7.50061 4.94229 7.50061 4.83285C7.50061 4.72341 7.47903 4.61503 7.4371 4.51394C7.39518 4.41284 7.33373 4.32101 7.25627 4.24368L3.92294 0.91035C3.84562 0.832895 3.75378 0.771447 3.65269 0.729521C3.55159 0.687596 3.44322 0.666016 3.33377 0.666016C3.22433 0.666016 3.11596 0.687596 3.01486 0.729521C2.91377 0.771447 2.82193 0.832895 2.74461 0.91035L0.484608 3.17035C0.167941 3.48702 -0.0103925 3.92202 -0.0037258 4.36618C0.0154409 5.55285 0.329608 9.67452 3.57794 12.9228C6.82627 16.1712 10.9479 16.4845 12.1354 16.5045H12.1588C12.5988 16.5045 13.0146 16.3312 13.3296 16.0162L15.5896 13.7562C15.6671 13.6789 15.7285 13.587 15.7704 13.4859C15.8124 13.3848 15.8339 13.2765 15.8339 13.167C15.8339 13.0576 15.8124 12.9492 15.7704 12.8481C15.7285 12.747 15.6671 12.6552 15.5896 12.5779L12.2563 9.24368ZM12.1504 14.837C11.1104 14.8195 7.55211 14.5403 4.75627 11.7437C1.95127 8.93868 1.67961 5.36785 1.66294 4.34868L3.33377 2.67785L5.48877 4.83285L4.41127 5.91035C4.31333 6.00822 4.24131 6.12896 4.20173 6.26166C4.16216 6.39435 4.15627 6.53481 4.18461 6.67035C4.20461 6.76618 4.69377 9.03868 6.07711 10.422C7.46044 11.8053 9.73294 12.2945 9.82877 12.3145C9.96423 12.3436 10.1048 12.3382 10.2376 12.2988C10.3705 12.2593 10.4912 12.1871 10.5888 12.0887L11.6671 11.0112L13.8221 13.1662L12.1504 14.837Z" fill="#616161"/>
</svg>
