<svg width="16" height="16" viewBox="0 0 16 16" fill="none" xmlns="http://www.w3.org/2000/svg">
<g clip-path="url(#clip0_1832_182123)">
<path d="M14.6673 7.38527V7.99861C14.6665 9.43622 14.201 10.8351 13.3402 11.9865C12.4794 13.1379 11.2695 13.9803 9.89089 14.3879C8.51227 14.7955 7.03882 14.7465 5.6903 14.2483C4.34177 13.7501 3.19042 12.8293 2.40796 11.6233C1.6255 10.4173 1.25385 8.99065 1.34844 7.55615C1.44303 6.12165 1.99879 4.75616 2.93284 3.66332C3.86689 2.57049 5.12917 1.80886 6.53144 1.49204C7.93371 1.17521 9.40083 1.32017 10.714 1.90527" stroke="#6B0887" stroke-width="1.2" stroke-linecap="round" stroke-linejoin="round"/>
<path d="M14.6667 2.66797L8 9.3413L6 7.3413" stroke="#6B0887" stroke-width="1.2" stroke-linecap="round" stroke-linejoin="round"/>
</g>
<defs>
<clipPath id="clip0_1832_182123">
<rect width="16" height="16" fill="white"/>
</clipPath>
</defs>
</svg>
