<svg width="18" height="18" viewBox="0 0 18 18" fill="none" xmlns="http://www.w3.org/2000/svg">
<g clip-path="url(#clip0_1219_90439)">
<path fill-rule="evenodd" clip-rule="evenodd" d="M0 0H34.2003V1.38463H0V0ZM0 2.76926H34.2003V4.15389H0V2.76926ZM0 5.53852H34.2003V6.92314H0V5.53852ZM0 8.30777H34.2003V9.6924H0V8.30777ZM0 11.077H34.2003V12.4617H0V11.077ZM0 13.8463H34.2003V15.2309H0V13.8463ZM0 16.6155H34.2003V18.0002H0V16.6155Z" fill="#BD3D44"/>
<path fill-rule="evenodd" clip-rule="evenodd" d="M0 1.38477H34.2003V2.76939H0V1.38477ZM0 4.15402H34.2003V5.53865H0V4.15402ZM0 6.92328H34.2003V8.30791H0V6.92328ZM0 9.69254H34.2003V11.0772H0V9.69254ZM0 12.4618H34.2003V13.8464H0V12.4618ZM0 15.2311H34.2003V16.6157H0V15.2311Z" fill="white"/>
<path fill-rule="evenodd" clip-rule="evenodd" d="M0 0H13.6801V9.6924H0V0Z" fill="#192F5D"/>
<path fill-rule="evenodd" clip-rule="evenodd" d="M1.13536 0.415039L1.27382 0.802735H1.66152L1.34305 1.03812L1.46767 1.41197L1.13536 1.17658L0.830741 1.41197L0.955358 1.03812L0.623047 0.802735H1.03844L1.13536 0.415039ZM3.42 0.415039L3.54461 0.802735H3.94616L3.61385 1.03812L3.75231 1.41197L3.42 1.17658L3.08769 1.41197L3.22615 1.03812L2.89384 0.802735H3.29538L3.42 0.415039ZM5.70464 0.415039L5.82925 0.802735H6.23079L5.89848 1.03812L6.03695 1.41197L5.70464 1.17658L5.37232 1.41197L5.51079 1.03812L5.17848 0.802735H5.58002L5.70464 0.415039ZM7.97543 0.415039L8.11389 0.802735H8.50159L8.18312 1.03812L8.30774 1.41197L7.97543 1.17658L7.65696 1.41197L7.78158 1.03812L7.44927 0.802735H7.86466L7.97543 0.415039ZM10.2601 0.415039L10.3847 0.802735H10.7862L10.4539 1.03812L10.5924 1.41197L10.2462 1.17658L9.92775 1.41197L10.0524 1.03812L9.72006 0.802735H10.1216L10.2601 0.415039ZM12.5447 0.415039L12.6693 0.802735H13.0709L12.7386 1.03812L12.877 1.41197L12.5447 1.17658L12.2124 1.41197L12.3509 1.03812L12.0185 0.802735H12.4201L12.5447 0.415039ZM2.2846 1.38428L2.40922 1.77198H2.81076L2.47845 2.00736L2.61691 2.38121L2.2846 2.14583L1.95229 2.38121L2.09075 2.00736L1.75844 1.77198H2.15999L2.2846 1.38428ZM4.55539 1.38428L4.69386 1.77198H5.08155L4.76309 2.00736L4.8877 2.38121L4.55539 2.14583L4.23693 2.38121L4.36155 2.00736L4.02923 1.77198H4.44462L4.55539 1.38428ZM6.84003 1.38428L6.96465 1.77198H7.36619L7.03388 2.00736L7.17234 2.38121L6.84003 2.14583L6.50772 2.38121L6.64618 2.00736L6.31387 1.77198H6.71541L6.84003 1.38428ZM9.12467 1.38428L9.24929 1.77198H9.65083L9.31852 2.00736L9.45698 2.38121L9.12467 2.14583L8.79236 2.38121L8.93082 2.00736L8.59851 1.77198H9.00005L9.12467 1.38428ZM11.3955 1.38428L11.5339 1.77198H11.9078L11.5893 2.00736L11.7139 2.38121L11.3816 2.14583L11.0631 2.38121L11.1878 2.00736L10.8555 1.77198H11.2708L11.3955 1.38428ZM1.14921 2.35352L1.25998 2.74122H1.67536L1.34305 2.9766L1.46767 3.35045L1.13536 3.11507L0.830741 3.35045L0.955358 2.9766L0.623047 2.74122H1.03844L1.14921 2.35352ZM3.42 2.35352L3.54461 2.74122H3.94616L3.62769 2.9766L3.75231 3.35045L3.42 3.11507L3.10153 3.35045L3.22615 2.9766L2.89384 2.74122H3.29538L3.42 2.35352ZM5.70464 2.35352L5.82925 2.74122H6.23079L5.89848 2.9766L6.03695 3.35045L5.70464 3.11507L5.37232 3.35045L5.51079 2.9766L5.17848 2.74122H5.58002L5.70464 2.35352ZM7.97543 2.35352L8.11389 2.74122H8.50159L8.18312 2.9766L8.30774 3.35045L7.97543 3.11507L7.65696 3.35045L7.78158 2.9766L7.44927 2.74122H7.86466L7.97543 2.35352ZM10.2601 2.35352L10.3847 2.74122H10.7862L10.4678 2.9766L10.5924 3.35045L10.2601 3.11507L9.9416 3.35045L10.0662 2.9766L9.73391 2.74122H10.1354L10.2601 2.35352ZM12.5447 2.35352L12.6693 2.74122H13.0709L12.7386 2.9766L12.877 3.35045L12.5447 3.11507L12.2124 3.35045L12.3509 2.9766L12.0185 2.74122H12.4201L12.5447 2.35352ZM2.2846 3.32276L2.40922 3.71046H2.81076L2.47845 3.94584L2.61691 4.31969L2.2846 4.08431L1.95229 4.31969L2.09075 3.94584L1.75844 3.71046H2.15999L2.2846 3.32276ZM4.55539 3.32276L4.69386 3.71046H5.08155L4.76309 3.94584L4.8877 4.31969L4.55539 4.08431L4.23693 4.31969L4.36155 3.94584L4.02923 3.71046H4.44462L4.55539 3.32276ZM6.84003 3.32276L6.96465 3.71046H7.36619L7.04773 3.94584L7.17234 4.31969L6.84003 4.08431L6.52157 4.31969L6.64618 3.94584L6.31387 3.71046H6.71541L6.84003 3.32276ZM9.12467 3.32276L9.24929 3.71046H9.65083L9.31852 3.94584L9.45698 4.31969L9.12467 4.08431L8.79236 4.31969L8.93082 3.94584L8.59851 3.71046H9.00005L9.12467 3.32276ZM11.3955 3.32276L11.5339 3.71046H11.9078L11.5893 3.94584L11.7139 4.31969L11.3816 4.08431L11.0631 4.31969L11.1878 3.94584L10.8555 3.71046H11.2708L11.3955 3.32276ZM1.14921 4.292L1.25998 4.6797H1.67536L1.34305 4.91508L1.46767 5.28893L1.13536 5.05355L0.830741 5.28893L0.955358 4.91508L0.623047 4.6797H1.03844L1.14921 4.292ZM3.42 4.292L3.54461 4.6797H3.94616L3.62769 4.91508L3.75231 5.28893L3.42 5.05355L3.10153 5.28893L3.22615 4.91508L2.89384 4.6797H3.29538L3.42 4.292ZM5.70464 4.292L5.82925 4.6797H6.23079L5.89848 4.91508L6.03695 5.28893L5.70464 5.05355L5.37232 5.28893L5.51079 4.91508L5.17848 4.6797H5.58002L5.70464 4.292ZM7.97543 4.292L8.11389 4.6797H8.50159L8.18312 4.91508L8.30774 5.28893L7.97543 5.05355L7.65696 5.28893L7.78158 4.91508L7.44927 4.6797H7.86466L7.97543 4.292ZM10.2601 4.292L10.3847 4.6797H10.7862L10.4678 4.91508L10.5924 5.28893L10.2601 5.05355L9.9416 5.28893L10.0662 4.91508L9.73391 4.6797H10.1354L10.2601 4.292ZM12.5447 4.292L12.6693 4.6797H13.0709L12.7386 4.91508L12.877 5.28893L12.5447 5.05355L12.2124 5.28893L12.3509 4.91508L12.0185 4.6797H12.4201L12.5447 4.292ZM2.2846 5.26124L2.40922 5.64894H2.81076L2.47845 5.88432L2.61691 6.25817L2.2846 6.02279L1.95229 6.25817L2.09075 5.88432L1.75844 5.64894H2.15999L2.2846 5.26124ZM4.55539 5.26124L4.69386 5.64894H5.08155L4.76309 5.88432L4.8877 6.25817L4.55539 6.02279L4.23693 6.25817L4.36155 5.88432L4.02923 5.64894H4.44462L4.55539 5.26124ZM6.84003 5.26124L6.96465 5.64894H7.36619L7.04773 5.88432L7.17234 6.25817L6.84003 6.02279L6.52157 6.25817L6.64618 5.88432L6.31387 5.64894H6.71541L6.84003 5.26124ZM9.12467 5.26124L9.24929 5.64894H9.65083L9.31852 5.88432L9.45698 6.25817L9.12467 6.02279L8.79236 6.25817L8.93082 5.88432L8.59851 5.64894H9.00005L9.12467 5.26124ZM11.3955 5.26124L11.5339 5.64894H11.9078L11.5893 5.88432L11.7139 6.25817L11.3816 6.02279L11.0631 6.25817L11.1878 5.88432L10.8555 5.64894H11.2708L11.3955 5.26124ZM1.14921 6.23048L1.25998 6.61818H1.67536L1.34305 6.85356L1.46767 7.22741L1.13536 6.99203L0.830741 7.22741L0.955358 6.85356L0.623047 6.61818H1.03844L1.14921 6.23048ZM3.42 6.23048L3.54461 6.61818H3.94616L3.62769 6.85356L3.75231 7.22741L3.42 6.99203L3.10153 7.22741L3.22615 6.85356L2.89384 6.61818H3.29538L3.42 6.23048ZM5.70464 6.23048L5.82925 6.61818H6.23079L5.89848 6.85356L6.03695 7.22741L5.70464 6.99203L5.37232 7.22741L5.51079 6.85356L5.17848 6.61818H5.58002L5.70464 6.23048ZM7.97543 6.23048L8.11389 6.61818H8.50159L8.18312 6.85356L8.30774 7.22741L7.97543 6.99203L7.65696 7.22741L7.78158 6.85356L7.44927 6.61818H7.86466L7.97543 6.23048ZM10.2601 6.23048L10.3847 6.61818H10.7862L10.4678 6.85356L10.5924 7.22741L10.2601 6.99203L9.9416 7.22741L10.0662 6.85356L9.73391 6.61818H10.1354L10.2601 6.23048ZM12.5447 6.23048L12.6693 6.61818H13.0709L12.7386 6.85356L12.877 7.22741L12.5447 6.99203L12.2124 7.22741L12.3509 6.85356L12.0185 6.61818H12.4201L12.5447 6.23048ZM2.2846 7.19972L2.40922 7.58742H2.81076L2.47845 7.8228L2.61691 8.19665L2.2846 7.96127L1.95229 8.19665L2.09075 7.8228L1.75844 7.58742H2.15999L2.2846 7.19972ZM4.55539 7.19972L4.69386 7.58742H5.08155L4.76309 7.8228L4.8877 8.19665L4.55539 7.96127L4.23693 8.19665L4.36155 7.8228L4.02923 7.58742H4.44462L4.55539 7.19972ZM6.84003 7.19972L6.96465 7.58742H7.36619L7.04773 7.8228L7.17234 8.19665L6.84003 7.96127L6.52157 8.19665L6.64618 7.8228L6.31387 7.58742H6.71541L6.84003 7.19972ZM9.12467 7.19972L9.24929 7.58742H9.65083L9.31852 7.8228L9.45698 8.19665L9.12467 7.96127L8.79236 8.19665L8.93082 7.8228L8.59851 7.58742H9.00005L9.12467 7.19972ZM11.3955 7.19972L11.5339 7.58742H11.9078L11.5893 7.8228L11.7139 8.19665L11.3816 7.96127L11.0631 8.19665L11.1878 7.8228L10.8555 7.58742H11.2708L11.3955 7.19972ZM1.14921 8.16896L1.25998 8.55666H1.67536L1.34305 8.79204L1.46767 9.16589L1.13536 8.93051L0.830741 9.16589L0.955358 8.79204L0.623047 8.55666H1.03844L1.14921 8.16896ZM3.42 8.16896L3.54461 8.55666H3.94616L3.62769 8.79204L3.75231 9.16589L3.42 8.93051L3.10153 9.16589L3.22615 8.79204L2.89384 8.55666H3.29538L3.42 8.16896ZM5.70464 8.16896L5.82925 8.55666H6.23079L5.89848 8.79204L6.03695 9.16589L5.70464 8.93051L5.37232 9.16589L5.51079 8.79204L5.17848 8.55666H5.58002L5.70464 8.16896ZM7.97543 8.16896L8.11389 8.55666H8.50159L8.18312 8.79204L8.30774 9.16589L7.97543 8.93051L7.65696 9.16589L7.78158 8.79204L7.44927 8.55666H7.86466L7.97543 8.16896ZM10.2601 8.16896L10.3847 8.55666H10.7862L10.4678 8.79204L10.5924 9.16589L10.2601 8.93051L9.9416 9.16589L10.0662 8.79204L9.73391 8.55666H10.1354L10.2601 8.16896ZM12.5447 8.16896L12.6693 8.55666H13.0709L12.7386 8.79204L12.877 9.16589L12.5447 8.93051L12.2124 9.16589L12.3509 8.79204L12.0185 8.55666H12.4201L12.5447 8.16896Z" fill="white"/>
</g>
<defs>
<clipPath id="clip0_1219_90439">
<rect width="18" height="18" rx="9" fill="white"/>
</clipPath>
</defs>
</svg>
