<svg width="50" height="50" viewBox="0 0 50 50" fill="none" xmlns="http://www.w3.org/2000/svg">
<g clip-path="url(#clip0_1209_90255)">
<path d="M49.5508 28.5898C49.0482 27.8477 48.3255 27.5052 47.4323 27.5065C46.2617 27.5091 45.0898 27.5065 43.9193 27.5065H43.3411V26.9271C43.3411 25.4805 43.3568 24.0326 43.3372 22.5859C43.3073 20.2539 41.7083 18.543 39.4062 18.349C39.3438 18.3438 39.2826 18.3281 39.1641 18.3073C39.1641 18.0807 39.1667 17.8581 39.1628 17.6354C39.1354 15.9779 39.2083 14.3112 39.0599 12.6654C38.5286 6.77213 34.0872 1.73828 28.3177 0.397135C27.6094 0.233073 26.888 0.13151 26.1719 0H23.8281C22.8932 0.191406 21.9453 0.333333 21.026 0.583333C15.6289 2.0599 11.4531 7.03646 10.9349 12.6146C10.8411 13.6159 10.8555 14.6276 10.8398 15.6341C10.8242 16.5117 10.8359 17.388 10.8359 18.3034C10.5807 18.3372 10.3424 18.3555 10.1094 18.3997C8.06901 18.7852 6.6862 20.4544 6.66146 22.5846C6.64583 24.0326 6.65885 25.4792 6.65885 26.9271V27.5065H4.3737C3.75521 27.5065 3.13672 27.4961 2.51953 27.5104C1.33073 27.5391 0.49349 28.1602 0.102865 29.2826C0.078125 29.3555 0.0351562 29.4232 0 29.4922V38.8672C0.0651042 39.0104 0.128906 39.1549 0.195312 39.2969C0.652344 40.2708 1.41016 40.8073 2.49219 40.8229C3.85547 40.8411 5.21875 40.8268 6.63281 40.8268C6.64323 41.0299 6.65755 41.2018 6.65755 41.3737C6.65885 42.7721 6.65625 44.1706 6.65885 45.569C6.66406 47.8607 7.89062 49.3997 10.1276 49.9323C10.1719 49.9427 10.2122 49.9766 10.2539 50H39.7461C40.0234 49.9167 40.306 49.8451 40.5781 49.7474C42.2656 49.1367 43.3229 47.6016 43.3385 45.7148C43.3516 44.2839 43.3411 42.8529 43.3411 41.4219V40.8281H44.9232C45.7357 40.8281 46.5495 40.8307 47.362 40.8268C48.6406 40.8203 49.4648 40.2305 49.9036 39.0221C49.9232 38.9661 49.9674 38.918 50 38.8672V29.4922C49.8529 29.1901 49.7383 28.8659 49.5508 28.5898ZM12.8737 11.1328C14.1328 6.04687 18.5273 2.23958 23.7435 1.73828C30.4544 1.09245 36.4414 5.72526 37.3477 12.3984C37.6107 14.3333 37.4961 16.319 37.556 18.3125H34.1719C34.1719 18.1276 34.1745 17.9414 34.1719 17.7552C34.1445 16.1784 34.2083 14.5924 34.0703 13.026C33.7122 8.95312 30.1458 5.45703 26.0599 5.06771C21.0807 4.59505 16.8685 7.71224 15.9909 12.6133C15.7865 13.7526 15.8646 14.9453 15.832 16.1146C15.8112 16.8294 15.8281 17.5443 15.8281 18.3177H12.5755C12.5495 18.2773 12.5169 18.2513 12.5182 18.2253C12.5547 15.8581 12.293 13.4766 12.8737 11.1328ZM17.7122 12.6094C18.2852 9.05599 21.694 6.49479 25.2734 6.66536C29.0117 6.84375 32.0846 9.6276 32.4141 13.2891C32.5612 14.9323 32.4388 16.6003 32.4388 18.3164H17.582C17.5599 18.2917 17.5182 18.2682 17.5195 18.2448C17.5664 16.3646 17.4141 14.4505 17.7122 12.6094ZM8.32682 22.707C8.33463 21.0286 9.35937 20.0091 11.043 20.0078C20.3503 20.0065 29.6562 20.0065 38.9635 20.0078C40.6445 20.0091 41.6654 21.0299 41.6732 22.7148C41.6797 24.1458 41.6758 25.5781 41.6732 27.0104C41.6732 27.1523 41.6589 27.2956 41.6471 27.4857H8.35677C8.34505 27.3125 8.32682 27.1576 8.32682 27.0026C8.32422 25.5716 8.32031 24.1393 8.32682 22.707ZM41.6732 44.7891C41.6706 45.2604 41.6862 45.737 41.6211 46.2005C41.4544 47.4115 40.474 48.2747 39.2552 48.332C39.1094 48.3398 38.9622 48.3359 38.8164 48.3359H11.1823C9.31771 48.3359 8.32682 47.3424 8.32552 45.4714C8.32422 44.1211 8.32552 42.7695 8.32552 41.4193V40.8607H41.6745C41.6745 42.1927 41.6784 43.4909 41.6732 44.7891ZM48.3359 38.0247C48.3359 38.8984 48.0716 39.1628 47.2044 39.1628C32.3997 39.1641 17.5951 39.1641 2.78906 39.1628C1.92448 39.1628 1.66406 38.8984 1.66406 38.0208C1.66276 35.4492 1.66276 32.8789 1.66406 30.3086C1.66406 29.4323 1.91797 29.1758 2.79427 29.1758C10.2135 29.1745 17.6315 29.1745 25.0508 29.1745H47.0638C48.1328 29.1745 48.3359 29.3815 48.3359 30.4596C48.3359 32.9818 48.3372 35.5039 48.3359 38.0247Z" fill="#680A83"/>
<path d="M9.86287 36.2718C9.58162 36.7132 9.08292 36.7692 8.54256 36.4176C8.24308 36.2223 7.9449 36.0257 7.64412 35.833C7.62199 35.8187 7.58423 35.8317 7.53214 35.8317C7.43839 36.4827 7.74308 37.4619 6.67147 37.4658C5.57772 37.4697 5.91886 36.4814 5.81079 35.7471C5.41886 36.0049 5.09725 36.2197 4.77173 36.4294C4.2535 36.7627 3.76261 36.7093 3.48397 36.2952C3.1949 35.8669 3.32121 35.4072 3.83423 35.0557C4.24829 34.7731 4.66756 34.4984 5.15714 34.1715C4.64933 33.8278 4.18058 33.527 3.73006 33.2002C3.24829 32.8499 3.1936 32.2731 3.59855 31.902C3.93058 31.5986 4.29647 31.5986 4.67147 31.8356C5.02563 32.0609 5.3824 32.2835 5.74048 32.5062C5.74829 32.5114 5.76782 32.4971 5.8186 32.4801C5.93449 31.8682 5.56079 30.8721 6.66365 30.8721C7.74829 30.8734 7.441 31.8434 7.53475 32.5726C7.91886 32.3213 8.25089 32.1012 8.58553 31.8851C9.07772 31.5687 9.54907 31.6208 9.83423 32.0192C10.1272 32.4281 10.0048 32.9307 9.51391 33.2718C9.09204 33.5661 8.66105 33.8447 8.17928 34.165C8.64412 34.4775 9.06079 34.7523 9.47355 35.0348C9.99048 35.3903 10.1324 35.8499 9.86287 36.2718Z" fill="#AD83C5"/>
<path d="M28.1977 36.2733C27.9204 36.7108 27.4125 36.7681 26.8748 36.4178C26.5649 36.2147 26.2576 36.0077 25.8357 35.7277C25.8357 36.0558 25.8409 36.2863 25.8344 36.5168C25.8149 37.1327 25.4881 37.5051 24.9855 37.4959C24.4959 37.4868 24.1873 37.1301 24.1665 36.5376C24.1573 36.3124 24.1651 36.0871 24.1651 35.7446C23.7172 36.0337 23.3722 36.3358 22.9698 36.4907C22.6912 36.5988 22.2771 36.6092 22.0323 36.4699C21.8331 36.3566 21.7068 35.9556 21.7146 35.6874C21.7198 35.4803 21.949 35.2342 22.1404 35.0858C22.5467 34.7681 22.9946 34.5025 23.4933 34.1704C23.0232 33.854 22.6 33.5702 22.1795 33.2837C21.6678 32.9334 21.5284 32.4647 21.8071 32.0454C22.0896 31.6236 22.574 31.565 23.0909 31.8944C23.4047 32.0949 23.7172 32.2993 24.0323 32.5012C24.0415 32.5077 24.0623 32.4973 24.1326 32.4881C24.2498 31.8514 23.9112 30.8879 24.9803 30.8723C26.0935 30.8566 25.7446 31.8514 25.8826 32.5611C26.2498 32.3215 26.5818 32.1014 26.9164 31.8866C27.4256 31.5611 27.923 31.6301 28.1951 32.0585C28.4581 32.4725 28.3305 32.9348 27.8461 33.2694C27.4243 33.5624 26.992 33.8423 26.5102 34.1639C26.979 34.479 27.3943 34.7564 27.8058 35.0376C28.3279 35.3944 28.4685 35.8449 28.1977 36.2733Z" fill="#AD83C5"/>
<path d="M19.0049 36.3152C18.7224 36.7071 18.2393 36.7592 17.7497 36.4441C17.4242 36.2345 17.1026 36.017 16.6729 35.7319C16.6729 36.0691 16.682 36.3152 16.6716 36.5613C16.6469 37.1381 16.3122 37.5014 15.8239 37.4962C15.3318 37.491 15.0245 37.1342 15.0075 36.5431C15.0023 36.3061 15.0075 36.0691 15.0075 35.7345C14.5831 36.0092 14.2497 36.2293 13.9138 36.4441C13.4021 36.7683 12.8995 36.6993 12.6325 36.2735C12.3682 35.853 12.4971 35.405 12.9841 35.0665C13.3969 34.78 13.8148 34.4988 14.2289 34.2136C14.2393 34.2071 14.2367 34.1837 14.2523 34.1173C13.8422 33.8425 13.4138 33.56 12.9906 33.2696C12.4971 32.9298 12.3669 32.4858 12.6273 32.0665C12.8956 31.6368 13.3969 31.56 13.9034 31.8803C14.2406 32.0952 14.5713 32.3217 15.0088 32.6108C15.0088 32.2345 14.9984 31.9662 15.0114 31.698C15.0375 31.172 15.3474 30.853 15.8213 30.8478C16.2901 30.8412 16.6247 31.1563 16.6664 31.6733C16.6872 31.9428 16.669 32.2162 16.669 32.5925C17.0857 32.3204 17.4177 32.1004 17.7523 31.8855C18.2445 31.5678 18.7159 31.6212 19.001 32.0209C19.2966 32.435 19.1729 32.9285 18.6755 33.2722C18.2536 33.5639 17.8226 33.8438 17.3435 34.1629C17.8252 34.4871 18.2575 34.767 18.6794 35.0626C19.1729 35.4077 19.2979 35.9077 19.0049 36.3152Z" fill="#AD83C5"/>
<path d="M37.3622 36.277C37.0758 36.7236 36.5718 36.7653 35.9976 36.389C35.6916 36.1872 35.387 35.9853 35.0302 35.7484C34.9117 36.4736 35.2554 37.4671 34.1682 37.4671C33.0888 37.4658 33.4013 36.4827 33.2867 35.764C32.9143 36.0101 32.5823 36.2327 32.245 36.4476C31.7385 36.7705 31.232 36.6976 30.9651 36.2679C30.706 35.8512 30.8401 35.3942 31.3271 35.0622C31.7515 34.7718 32.1812 34.488 32.6643 34.1663C32.1799 33.8434 31.7489 33.5622 31.3245 33.2718C30.8362 32.9372 30.7047 32.4814 30.9651 32.0661C31.2372 31.6325 31.7281 31.5596 32.2398 31.8799C32.5692 32.0856 32.8948 32.2965 33.2229 32.5036C33.232 32.5088 33.2541 32.4945 33.2971 32.4814C33.4117 31.8551 33.0784 30.8721 34.1695 30.8721C35.2711 30.8721 34.9013 31.8695 35.0367 32.5804C35.4234 32.3239 35.7541 32.0999 36.0888 31.8838C36.5797 31.5674 37.0562 31.6221 37.3375 32.0218C37.6343 32.4424 37.5146 32.9215 37.0107 33.2718C36.5979 33.5596 36.176 33.8317 35.6851 34.1598C36.1278 34.4606 36.5341 34.7353 36.9403 35.0127C37.4976 35.3929 37.6448 35.8369 37.3622 36.277Z" fill="#AD83C5"/>
<path d="M46.6673 36.6722C46.6634 37.1514 46.2806 37.4925 45.7155 37.4977C44.9199 37.5055 44.1244 37.5003 43.3275 37.5003C42.5319 37.5003 41.7363 37.5068 40.9408 37.4977C40.3587 37.4912 40.0111 37.1683 40.0137 36.6618C40.0163 36.1579 40.3639 35.8415 40.9512 35.8389C42.5423 35.8337 44.1348 35.8337 45.7259 35.8389C46.2884 35.8415 46.6712 36.1904 46.6673 36.6722Z" fill="#AD83C5"/>
<path d="M14.1605 22.5169C14.1514 22.9883 13.7933 23.3151 13.2543 23.3346C12.9951 23.3438 12.7347 23.3359 12.4756 23.3359H11.6631C11.6631 23.875 11.6709 24.3594 11.6618 24.8424C11.6488 25.4701 11.3389 25.8268 10.8272 25.8216C10.3207 25.8177 10.0056 25.4531 9.99645 24.8307C9.98733 24.1003 9.98343 23.3698 9.99775 22.6406C10.0108 21.9596 10.3102 21.6784 10.9991 21.6732C11.7464 21.668 12.4925 21.6667 13.2386 21.6745C13.8129 21.681 14.1709 22.0182 14.1605 22.5169Z" fill="#AD83C5"/>
</g>
<defs>
<clipPath id="clip0_1209_90255">
<rect width="50" height="50" fill="white"/>
</clipPath>
</defs>
</svg>
