<svg width="21" height="20" viewBox="0 0 21 20" fill="none" xmlns="http://www.w3.org/2000/svg">
<path d="M15.2563 10.2437C15.179 10.1662 15.0871 10.1048 14.986 10.0629C14.8849 10.0209 14.7766 9.99935 14.6671 9.99935C14.5577 9.99935 14.4493 10.0209 14.3482 10.0629C14.2471 10.1048 14.1553 10.1662 14.0779 10.2437L12.7496 11.572C12.1338 11.3887 10.9846 10.972 10.2563 10.2437C9.52794 9.51535 9.11127 8.36618 8.92794 7.75035L10.2563 6.42202C10.3337 6.34469 10.3952 6.25286 10.4371 6.15176C10.479 6.05067 10.5006 5.94229 10.5006 5.83285C10.5006 5.72341 10.479 5.61503 10.4371 5.51394C10.3952 5.41284 10.3337 5.32101 10.2563 5.24368L6.92294 1.91035C6.84562 1.8329 6.75378 1.77145 6.65269 1.72952C6.55159 1.6876 6.44322 1.66602 6.33377 1.66602C6.22433 1.66602 6.11596 1.6876 6.01486 1.72952C5.91377 1.77145 5.82193 1.8329 5.74461 1.91035L3.48461 4.17035C3.16794 4.48702 2.98961 4.92202 2.99627 5.36618C3.01544 6.55285 3.32961 10.6745 6.57794 13.9228C9.82627 17.1712 13.9479 17.4845 15.1354 17.5045H15.1588C15.5988 17.5045 16.0146 17.3312 16.3296 17.0162L18.5896 14.7562C18.6671 14.6789 18.7285 14.587 18.7704 14.4859C18.8124 14.3848 18.8339 14.2765 18.8339 14.167C18.8339 14.0576 18.8124 13.9492 18.7704 13.8481C18.7285 13.747 18.6671 13.6552 18.5896 13.5779L15.2563 10.2437ZM15.1504 15.837C14.1104 15.8195 10.5521 15.5403 7.75627 12.7437C4.95127 9.93868 4.67961 6.36785 4.66294 5.34868L6.33377 3.67785L8.48877 5.83285L7.41127 6.91035C7.31333 7.00822 7.24131 7.12896 7.20173 7.26166C7.16216 7.39435 7.15627 7.53481 7.18461 7.67035C7.20461 7.76618 7.69377 10.0387 9.07711 11.422C10.4604 12.8053 12.7329 13.2945 12.8288 13.3145C12.9642 13.3436 13.1048 13.3382 13.2376 13.2988C13.3705 13.2593 13.4912 13.1871 13.5888 13.0887L14.6671 12.0112L16.8221 14.1662L15.1504 15.837Z" fill="#9E9E9E"/>
</svg>
