<svg width="21" height="20" viewBox="0 0 21 20" fill="none" xmlns="http://www.w3.org/2000/svg">
<path d="M13.8327 1.66602H7.16602C4.40852 1.66602 2.16602 3.90852 2.16602 6.66602V16.666C2.16602 16.887 2.25381 17.099 2.41009 17.2553C2.56637 17.4116 2.77834 17.4993 2.99935 17.4993H13.8327C16.5902 17.4993 18.8327 15.2568 18.8327 12.4993V6.66602C18.8327 3.90852 16.5902 1.66602 13.8327 1.66602ZM17.166 12.4993C17.166 14.3377 15.671 15.8327 13.8327 15.8327H3.83268V6.66602C3.83268 4.82768 5.32768 3.33268 7.16602 3.33268H13.8327C15.671 3.33268 17.166 4.82768 17.166 6.66602V12.4993Z" fill="#9E9E9E"/>
<path d="M8.41602 10.834C9.10637 10.834 9.66602 10.2743 9.66602 9.58398C9.66602 8.89363 9.10637 8.33398 8.41602 8.33398C7.72566 8.33398 7.16602 8.89363 7.16602 9.58398C7.16602 10.2743 7.72566 10.834 8.41602 10.834Z" fill="#9E9E9E"/>
<path d="M12.584 10.834C13.2743 10.834 13.834 10.2743 13.834 9.58398C13.834 8.89363 13.2743 8.33398 12.584 8.33398C11.8936 8.33398 11.334 8.89363 11.334 9.58398C11.334 10.2743 11.8936 10.834 12.584 10.834Z" fill="#9E9E9E"/>
</svg>
