<svg width="48" height="49" viewBox="0 0 48 49" fill="none" xmlns="http://www.w3.org/2000/svg">
<circle cx="23.6111" cy="24.4998" r="23.6111" fill="#680A83"/>
<g clip-path="url(#clip0_1469_131074)">
<path d="M34.9131 16.7216C34.6118 15.6826 33.7976 15.0568 32.7223 15.0511C31.6221 15.0454 30.5218 15.0498 29.4221 15.0498H29.1367C29.1367 14.808 29.1385 14.5897 29.1361 14.372C29.1232 12.9903 28.1825 12.0097 26.8499 12.0052C24.9513 11.9983 23.0528 11.9983 21.1542 12.0052C19.821 12.0097 18.8809 12.9903 18.868 14.372C18.8656 14.5897 18.8674 14.8074 18.8674 15.0498H18.582C17.5068 15.0498 16.4309 15.0467 15.3551 15.053C15.1363 15.0543 14.9119 15.0651 14.7005 15.1177C13.7347 15.3564 13.0928 16.1631 13.0066 17.2198C12.9327 18.13 13.4828 19.0293 14.3478 19.44C14.4272 19.4774 14.5091 19.5999 14.5195 19.6919C14.577 20.2041 14.6155 20.7182 14.6558 21.233C14.8258 23.382 14.9932 25.5317 15.1638 27.6814C15.3728 30.3109 15.5868 32.9404 15.7909 35.5706C15.8423 36.2389 16.0024 36.8482 16.4792 37.3363C16.8338 37.7 17.2727 37.8796 17.7427 38.0002H30.2614C30.5817 37.8643 30.9295 37.7736 31.2168 37.5832C31.9424 37.104 32.1612 36.3455 32.2199 35.495C32.3409 33.7573 32.4882 32.0214 32.627 30.2849C32.7657 28.5401 32.9076 26.796 33.0475 25.0513C33.1894 23.2811 33.3348 21.5116 33.4687 19.7408C33.4834 19.5498 33.5586 19.4736 33.7193 19.4006C34.6967 18.9608 35.2187 17.7752 34.9131 16.7216ZM20.3528 14.1568C20.3987 13.7646 20.7177 13.5279 21.1462 13.5272C22.3675 13.5253 23.5888 13.5266 24.8095 13.5266C25.4856 13.5266 26.161 13.5247 26.8371 13.5272C27.3781 13.5291 27.6654 13.8281 27.6696 14.3872C27.6709 14.5973 27.6696 14.8074 27.6696 15.0409H20.3461C20.3461 14.7407 20.3192 14.445 20.3528 14.1568ZM31.8544 21.5611C31.7321 23.0951 31.608 24.6285 31.4851 26.1626C31.3439 27.9238 31.2021 29.6851 31.0615 31.4464C30.957 32.7614 30.8543 34.0759 30.7498 35.391C30.7382 35.5344 30.7278 35.6778 30.7064 35.82C30.6532 36.1862 30.3861 36.4426 30.0316 36.4731C29.9582 36.4794 29.8849 36.4769 29.8115 36.4769H18.2005C17.5746 36.4769 17.324 36.2516 17.2702 35.6017C17.1284 33.8741 16.9976 32.1458 16.8594 30.4182C16.7048 28.4798 16.5465 26.5421 16.3918 24.6038C16.2598 22.953 16.1308 21.3021 15.9988 19.6348H32.0041C31.954 20.2847 31.9057 20.9232 31.8544 21.5611ZM32.877 18.09C32.8043 18.0989 32.7303 18.0963 32.6569 18.0963C26.8872 18.0963 21.1169 18.0951 15.3472 18.0989C14.992 18.0995 14.7011 18.003 14.5391 17.6527C14.3221 17.1843 14.6234 16.6385 15.1271 16.5794C15.2243 16.5686 15.3227 16.5731 15.4205 16.5731H32.5836C32.6814 16.5731 32.7798 16.5686 32.877 16.5794C33.2529 16.6226 33.5359 16.9495 33.5359 17.3347C33.5359 17.72 33.2523 18.0462 32.877 18.09Z" fill="white"/>
<path d="M20.3566 34.9518C19.933 34.9671 19.6267 34.6345 19.5974 34.1401C19.4244 31.2548 19.249 28.3695 19.076 25.4842C19.0161 24.4884 18.9605 23.4926 18.903 22.4974H18.8999C18.8895 22.3031 18.8694 22.1089 18.8712 21.9154C18.8749 21.4907 19.1738 21.1652 19.5656 21.1455C19.9648 21.1252 20.3016 21.4343 20.3309 21.8678C20.3865 22.6941 20.4312 23.5217 20.4813 24.3481C20.6054 26.4153 20.7295 28.4825 20.8535 30.549C20.9244 31.7219 20.9984 32.8942 21.062 34.0677C21.0895 34.5761 20.7918 34.936 20.3566 34.9518Z" fill="white"/>
<path d="M29.1351 21.9354C29.1357 21.9856 29.1351 22.0364 29.1351 22.0871H29.129C28.9731 24.669 28.8166 27.2503 28.6614 29.8322C28.5746 31.2749 28.4896 32.7175 28.4053 34.1602C28.371 34.7466 27.8814 35.1021 27.3906 34.8939C27.0874 34.765 26.9199 34.4743 26.9413 34.0726C26.9902 33.1694 27.0476 32.2669 27.1014 31.3637C27.1931 29.8367 27.2854 28.3096 27.3771 26.7826C27.4749 25.1463 27.5709 23.5088 27.6724 21.8726C27.6999 21.4366 28.033 21.1275 28.4334 21.1453C28.835 21.1624 29.1302 21.495 29.1351 21.9354Z" fill="white"/>
<path d="M24.7286 34.2712C24.6858 34.6609 24.3685 34.9535 23.9981 34.9516C23.6271 34.9496 23.3141 34.6539 23.2744 34.2629C23.2646 34.1709 23.2683 34.077 23.2683 33.9843V22.1036C23.2683 21.4981 23.5427 21.142 24.0054 21.1445C24.4682 21.1471 24.7353 21.5012 24.7353 22.1118V33.9925C24.7353 34.0852 24.739 34.1791 24.7286 34.2712Z" fill="white"/>
</g>
<defs>
<clipPath id="clip0_1469_131074">
<rect width="22" height="26" fill="white" transform="translate(13 12)"/>
</clipPath>
</defs>
</svg>
