<svg width="16" height="23" viewBox="0 0 16 23" fill="none" xmlns="http://www.w3.org/2000/svg">
<path d="M4.25 22.3978C6.32107 22.3978 8 20.7715 8 18.7653V15.1328H4.25C2.17893 15.1328 0.5 16.7591 0.5 18.7653C0.5 20.7715 2.17893 22.3978 4.25 22.3978Z" fill="#0ACF83"/>
<path d="M0.5 11.4997C0.5 9.4935 2.17893 7.86719 4.25 7.86719H8V15.1321H4.25C2.17893 15.1321 0.5 13.5058 0.5 11.4997Z" fill="#A259FF"/>
<path d="M0.5 4.23502C0.5 2.22885 2.17893 0.602539 4.25 0.602539H8V7.8675H4.25C2.17893 7.8675 0.5 6.24118 0.5 4.23502Z" fill="#F24E1E"/>
<path d="M8 0.602539H11.75C13.8211 0.602539 15.5 2.22885 15.5 4.23502C15.5 6.24118 13.8211 7.8675 11.75 7.8675H8V0.602539Z" fill="#FF7262"/>
<path d="M15.5 11.4997C15.5 13.5058 13.8211 15.1321 11.75 15.1321C9.67893 15.1321 8 13.5058 8 11.4997C8 9.4935 9.67893 7.86719 11.75 7.86719C13.8211 7.86719 15.5 9.4935 15.5 11.4997Z" fill="#1ABCFE"/>
</svg>
