<svg width="46" height="50" viewBox="0 0 46 50" fill="none" xmlns="http://www.w3.org/2000/svg">
<path d="M45.7609 37.0964C44.6626 32.0039 40.1579 28.4609 34.8409 28.5078C34.567 28.5091 34.2931 28.5078 33.9873 28.5078V27.9141C33.9873 26.1406 33.9913 24.3659 33.986 22.5924C33.9833 21.8021 33.6363 21.4688 32.8292 21.4609C32.2349 21.4557 31.6419 21.4596 30.9891 21.4596V20.8828C30.9891 18.7513 31.0103 16.6185 30.9797 14.487C30.9664 13.4974 30.9066 12.5026 30.7737 11.5221C30.0198 5.98047 25.9685 1.63932 20.4095 0.391927C19.6848 0.230469 18.9456 0.128906 18.213 0H15.8197C14.8624 0.186198 13.8825 0.299479 12.9518 0.571615C7.70119 2.10677 4.52346 5.55469 3.37602 10.7721C3.11941 11.9375 3.05027 13.1562 3.02102 14.3542C2.9665 16.5482 2.99576 18.7461 3.01304 20.9414C3.0157 21.3359 2.91864 21.4987 2.49051 21.4674C2.01053 21.4336 1.52655 21.4505 1.04524 21.4635C0.422989 21.4805 0.0666576 21.8151 0.00948505 22.4232C-0.0051405 22.569 0.00150748 22.7161 0.00150748 22.862C0.000177882 29.7604 0.000177882 36.6576 0.00150748 43.556C0.00150748 44.6562 0.291359 44.9388 1.41886 44.9388C9.27676 44.9401 17.1347 44.944 24.9926 44.9297C25.4513 44.9284 25.7252 45.0443 26.0004 45.4297C27.8206 47.9948 30.3123 49.513 33.4927 49.9141C33.5871 49.9258 33.6775 49.9701 33.7692 50H35.8633C36.221 49.9362 36.5773 49.8672 36.935 49.8073C43.0432 48.7917 47.0413 43.0352 45.7609 37.0964ZM5.05796 13.0911C5.33983 6.16406 11.3443 1.20703 18.3725 2.02604C24.2294 2.70833 28.3458 6.73698 28.8723 12.4701C29.0665 14.5859 28.9641 16.7279 28.9893 18.8581C29 19.7018 28.992 20.5469 28.992 21.4258H26.1866V20.8893C26.1866 18.513 26.2331 16.1367 26.1759 13.7617C26.0975 10.5456 24.8942 7.84766 22.0329 6.08073C16.8302 2.86849 8.86725 5.21875 7.9352 12.5026C7.81687 13.4336 7.83814 14.3841 7.83149 15.3268C7.81687 17.3438 7.8275 19.3607 7.8275 21.4349H5.06461C5.04466 21.3268 5.01275 21.2357 5.01275 21.1445C5.02073 18.4596 4.95026 15.7721 5.05796 13.0911ZM24.1017 37.8958C23.8146 39.5091 24.002 41.1042 24.5551 42.6549C24.5871 42.7435 24.5964 42.8411 24.6216 42.9596H2.04111V23.4401C2.22991 23.431 2.42137 23.4141 2.6115 23.4141C5.76796 23.4128 8.92575 23.4141 12.0822 23.4115C12.2816 23.4115 12.4837 23.4115 12.6779 23.375C13.2017 23.276 13.5288 22.8607 13.4929 22.3672C13.4557 21.8581 13.0967 21.4896 12.5542 21.4714C11.8402 21.4479 11.1249 21.4622 10.4109 21.4596H9.85248C9.84051 21.2604 9.82589 21.1185 9.82589 20.9753C9.82456 18.5508 9.81126 16.1263 9.82987 13.7018C9.85115 10.6471 11.5557 8.13802 14.2641 7.1263C18.4696 5.55729 23.905 7.71875 24.1642 13.4883C24.2786 16.0703 24.1855 18.6615 24.1855 21.2487C24.1855 21.2956 24.1669 21.3424 24.1416 21.4596C23.4955 21.4596 22.836 21.4583 22.1778 21.4609C21.9119 21.4609 21.6447 21.4505 21.3814 21.4753C20.8948 21.5208 20.557 21.8672 20.5118 22.3333C20.4653 22.8164 20.7565 23.2396 21.2431 23.3542C21.4492 23.4023 21.6699 23.4102 21.8853 23.4102C25.0418 23.4141 28.1996 23.4128 31.356 23.4128H31.9543C31.9663 23.5703 31.9876 23.7083 31.9876 23.8464C31.9902 25.3919 31.9823 26.9388 31.9956 28.4844C31.9982 28.7878 31.9158 28.9193 31.5967 29.0286C27.2901 30.5117 24.8742 33.5534 24.1017 37.8958ZM34.9951 48.069C30.0849 48.0703 26.023 44.1576 25.9964 39.401C25.9698 34.3633 29.8403 30.5299 34.9712 30.5117C40.0928 30.4948 44.0031 34.3281 43.9898 39.3529C43.9765 44.1432 39.9279 48.0677 34.9951 48.069Z" fill="#680A83"/>
<path d="M21.9046 30.3616C21.5616 28.3369 19.8611 26.6507 17.864 26.3668C15.5691 26.04 13.5468 27.0387 12.5616 28.9853C11.5697 30.9463 11.9074 33.2705 13.5229 34.6689C14.0973 35.1663 14.298 35.6533 14.2103 36.3343C14.2063 36.3668 14.209 36.3994 14.209 36.4319H14.2209C14.2209 36.7418 14.205 37.0517 14.2236 37.359C14.3127 38.8356 15.4415 39.9554 16.9306 40.0582C18.5541 40.1689 19.8611 39.2535 20.1044 37.7327C20.2294 36.9528 20.1589 36.1442 20.2134 35.3512C20.2294 35.1364 20.3224 34.8772 20.474 34.7262C21.7012 33.5022 22.1932 32.0595 21.9046 30.3616ZM19.0021 33.3369C18.3427 33.859 18.1419 34.415 18.1964 35.1806C18.2403 35.7952 18.2137 36.415 18.2031 37.0322C18.1911 37.7197 17.8095 38.1233 17.1992 38.122C16.5889 38.1207 16.2193 37.7171 16.2087 37.0283C16.2033 36.6546 16.2073 36.2809 16.2073 35.9072C16.2073 35.777 16.194 35.6455 16.21 35.5179C16.3203 34.6325 16.0491 34.0257 15.2115 33.5035C13.7662 32.6025 13.6106 30.5726 14.7488 29.2509C15.8217 28.0048 17.8547 27.9137 19.0606 29.0569C20.3211 30.2535 20.345 32.2718 19.0021 33.3369Z" fill="#AD83C5"/>
<path d="M17.9968 22.445C17.9849 22.9736 17.5448 23.3994 17.0076 23.4033C16.4465 23.4072 16.0078 22.9684 16.0157 22.4098C16.0237 21.863 16.4346 21.4671 16.9956 21.4658C17.574 21.4632 18.0088 21.889 17.9968 22.445Z" fill="#AD83C5"/>
<path d="M37.4729 38.5654C37.1485 38.9561 36.7363 39.2816 36.4491 39.693C36.2271 40.0094 36.0582 40.404 36.0051 40.7829C35.908 41.4847 35.5477 41.9183 34.9467 41.887C34.3524 41.8558 33.9894 41.3805 33.9921 40.6865C33.996 39.7764 34.3377 39.012 34.9613 38.3532C35.2552 38.0433 35.5517 37.7373 35.8389 37.4222C36.2617 36.9574 36.3295 36.4313 36.041 35.9443C35.7804 35.5042 35.2671 35.2738 34.7685 35.3714C34.2181 35.4808 33.8485 35.9001 33.7713 36.5042C33.6982 37.0837 33.4389 37.4105 32.9842 37.499C32.3207 37.6279 31.7836 37.1774 31.7756 36.4873C31.7543 34.8128 33.2448 33.3949 35.2698 33.3975C36.3587 33.443 37.3413 34.0485 37.8971 35.2321C38.4489 36.4105 38.3212 37.5472 37.4729 38.5654Z" fill="#AD83C5"/>
<path d="M35.9794 44.1522C35.982 44.7225 35.5605 45.1313 34.9795 45.1235C34.4091 45.1157 33.9743 44.673 33.9969 44.1209C34.0182 43.6092 34.4915 43.1717 35.0114 43.1808C35.5459 43.1899 35.978 43.6235 35.9794 44.1522Z" fill="#AD83C5"/>
</svg>
