<svg width="48" height="49" viewBox="0 0 48 49" fill="none" xmlns="http://www.w3.org/2000/svg">
<circle cx="23.6111" cy="24.4998" r="23.6111" fill="#680A83"/>
<g clip-path="url(#clip0_1466_128243)">
<path d="M34.9921 22.894C34.9755 22.5708 34.747 22.2995 34.4392 22.217C33.928 22.0787 33.4718 22.4409 33.4647 23.0041C33.4564 23.66 33.4628 24.3159 33.4628 24.9718V25.2624C33.3297 25.1529 33.244 25.0838 33.1595 25.0121C31.9118 23.9614 30.3166 23.9639 29.0707 25.0262C27.7385 26.1627 26.4146 27.3095 25.0786 28.4415C24.8879 28.6034 24.6646 28.7544 24.4304 28.8331C23.8072 29.043 23.2857 28.8248 22.8077 28.4006C21.6841 27.4048 20.2073 27.3229 18.9614 28.1619C18.1795 28.6885 17.3963 29.2139 16.6131 29.7393C16.0302 30.1303 15.4466 30.52 14.8503 30.9193C14.8253 30.8489 14.7978 30.7996 14.7908 30.7472C14.7044 30.0669 14.5559 29.386 14.5483 28.7045C14.5195 26.2498 14.5252 23.7944 14.5483 21.339C14.554 20.7112 14.6321 20.0777 14.7453 19.4595C14.9699 18.2334 15.4857 17.1647 16.5773 16.4602C17.3259 15.977 18.1642 15.7454 19.0363 15.652C19.7261 15.5777 20.4229 15.5489 21.1172 15.54C22.3886 15.5227 23.66 15.5368 24.9314 15.5342C25.3934 15.5329 25.7255 15.2706 25.7754 14.8796C25.8388 14.3817 25.4996 14.0009 24.9724 14.0009C23.3573 14.0009 21.7417 13.9939 20.1266 14.0182C19.1975 14.0329 18.2813 14.1737 17.3867 14.4399C15.5509 14.9858 14.2571 16.1204 13.5884 17.9326C13.2077 18.9629 13.0254 20.0361 13.0158 21.1272C12.9934 23.7099 12.9966 26.2933 13.0145 28.876C13.0215 29.8045 13.1693 30.7222 13.4368 31.6162C13.9461 33.319 14.9629 34.5816 16.6221 35.2861C17.7418 35.7616 18.923 35.9696 20.1266 35.9824C22.7092 36.0099 25.2923 36.0009 27.8748 35.9849C28.7553 35.9792 29.6255 35.8422 30.4765 35.6029C32.3705 35.0711 33.7207 33.934 34.4066 32.0622C34.788 31.0236 34.9614 29.9428 34.9793 28.844C35.0068 27.0925 34.994 25.3411 34.9978 23.5896C34.9985 23.3579 35.0042 23.1256 34.9921 22.894ZM33.0955 31.1868C32.5695 32.9811 31.3135 33.9423 29.5314 34.252C28.7719 34.3839 27.9919 34.4498 27.2202 34.4568C24.861 34.4798 22.5018 34.4773 20.1426 34.4472C19.0273 34.4331 17.9293 34.2559 16.9183 33.7324C16.3105 33.4182 15.8171 32.9767 15.4422 32.3777C16.0091 31.9963 16.5645 31.6219 17.1199 31.2482C17.9895 30.6646 18.8597 30.0829 19.7286 29.4987C20.5182 28.9669 21.1658 29.0046 21.8824 29.6273C22.9254 30.5334 24.2423 30.7145 25.3972 30.0951C25.627 29.9709 25.8445 29.8135 26.0435 29.6433C27.4071 28.4825 28.7636 27.312 30.1246 26.1474C30.7101 25.6463 31.5138 25.638 32.1031 26.1288C32.5209 26.4763 32.9311 26.8334 33.3406 27.1917C33.395 27.2397 33.4577 27.3178 33.4583 27.3824C33.4724 28.6629 33.4609 29.9409 33.0955 31.1868Z" fill="white"/>
<path d="M20.9049 18.0899C19.3801 18.0943 18.11 19.3659 18.1074 20.8902C18.1049 22.4522 19.3654 23.7174 20.9222 23.7148C22.488 23.7122 23.7517 22.4497 23.7421 20.8966C23.7325 19.3371 22.4675 18.086 20.9049 18.0899ZM20.9318 22.1777C20.2164 22.1803 19.6457 21.6158 19.6457 20.9055C19.6457 20.2016 20.2228 19.627 20.9312 19.6263C21.6305 19.6263 22.2122 20.2144 22.2071 20.9164C22.202 21.6114 21.6325 22.1751 20.9318 22.1777Z" fill="white"/>
<path d="M34.2285 17.8298C34.2304 18.2963 33.8868 18.6041 33.3564 18.606C32.7255 18.6086 32.0945 18.6067 31.4227 18.6067C31.4227 19.2421 31.424 19.8475 31.4214 20.4529C31.4214 20.5719 31.4188 20.6935 31.3952 20.8099C31.3145 21.2028 30.9728 21.4447 30.5659 21.4083C30.1986 21.3756 29.8998 21.0723 29.8927 20.6896C29.8806 20.09 29.8883 19.4904 29.887 18.8914V18.6067H29.1703C28.7384 18.6067 28.3072 18.6131 27.8759 18.6047C27.4043 18.5958 27.0671 18.2669 27.0684 17.833C27.069 17.3953 27.4037 17.076 27.8797 17.0728C28.5343 17.0676 29.1889 17.0715 29.8729 17.0715C29.878 16.9729 29.8863 16.8891 29.8863 16.8053C29.8876 16.2377 29.8851 15.6701 29.8876 15.1031C29.8902 14.5905 30.2018 14.2488 30.6568 14.252C31.1079 14.2558 31.4195 14.6039 31.422 15.1152C31.4252 15.7539 31.4227 16.3925 31.4227 17.0593C31.5231 17.0638 31.6076 17.0702 31.6914 17.0702C32.2507 17.0715 32.8106 17.0696 33.3698 17.0715C33.8907 17.0734 34.2266 17.3716 34.2285 17.8298Z" fill="white"/>
</g>
<defs>
<clipPath id="clip0_1466_128243">
<rect width="22" height="22" fill="white" transform="translate(13 14)"/>
</clipPath>
</defs>
</svg>
