<svg width="24" height="24" viewBox="0 0 24 24" fill="none" xmlns="http://www.w3.org/2000/svg">
<g clip-path="url(#clip0_1832_167905)">
<rect width="24" height="24" fill="#343637"/>
<path d="M23.4894 12.2705C23.4894 11.2805 23.4145 10.5605 23.2347 9.81055H11.9844V14.2655H18.5908C18.4559 15.3755 17.7369 17.0405 16.134 18.1655L16.119 18.3155L19.6694 21.0755L19.909 21.1055C22.1861 19.0055 23.4894 15.9155 23.4894 12.2705Z" fill="#4285F4"/>
<path d="M11.9851 23.9991C15.2209 23.9991 17.9324 22.9341 19.9248 21.0891L16.1497 18.1491C15.131 18.8541 13.7828 19.3491 12.0001 19.3491C8.82423 19.3491 6.14273 17.2491 5.18398 14.3691L5.04916 14.3841L1.334 17.2491L1.28906 17.3841C3.2515 21.2991 7.29623 23.9991 11.9851 23.9991Z" fill="#34A853"/>
<path d="M5.16826 14.3697C4.91359 13.6197 4.76379 12.8247 4.76379 11.9997C4.76379 11.1747 4.91359 10.3797 5.15328 9.62969V9.46469L1.40816 6.55469L1.28832 6.61469C0.464394 8.23469 0 10.0647 0 11.9997C0 13.9347 0.464394 15.7647 1.27334 17.3847L5.16826 14.3697Z" fill="#FBBC05"/>
<path d="M11.9845 4.635C14.2315 4.635 15.7595 5.61 16.6134 6.42L19.999 3.12C17.9167 1.185 15.2202 0 11.9845 0C7.29558 0 3.25086 2.7 1.27344 6.615L5.15338 9.63C6.12711 6.735 8.80861 4.635 11.9845 4.635Z" fill="#EB4335"/>
</g>
<defs>
<clipPath id="clip0_1832_167905">
<rect width="24" height="24" fill="white"/>
</clipPath>
</defs>
</svg>
