<svg width="24" height="24" viewBox="0 0 24 24" fill="none" xmlns="http://www.w3.org/2000/svg">
<g clip-path="url(#clip0_1204_89512)">
<rect width="24" height="24" fill="#F8ECFF"/>
<path d="M23.4894 12.2696C23.4894 11.2796 23.4145 10.5596 23.2347 9.80957H11.9844V14.2646H18.5908C18.4559 15.3746 17.7369 17.0396 16.134 18.1646L16.119 18.3146L19.6694 21.0746L19.909 21.1046C22.1861 19.0046 23.4894 15.9146 23.4894 12.2696Z" fill="#4285F4"/>
<path d="M11.9851 24.0001C15.2209 24.0001 17.9324 22.9351 19.9248 21.0901L16.1497 18.1501C15.131 18.8551 13.7828 19.3501 12.0001 19.3501C8.82423 19.3501 6.14273 17.2501 5.18398 14.3701L5.04916 14.3851L1.334 17.2501L1.28906 17.3851C3.2515 21.3001 7.29623 24.0001 11.9851 24.0001Z" fill="#34A853"/>
<path d="M5.16826 14.3697C4.91359 13.6197 4.76379 12.8247 4.76379 11.9997C4.76379 11.1747 4.91359 10.3797 5.15328 9.62969V9.46469L1.40816 6.55469L1.28832 6.61469C0.464394 8.23469 0 10.0647 0 11.9997C0 13.9347 0.464394 15.7647 1.27334 17.3847L5.16826 14.3697Z" fill="#FBBC05"/>
<path d="M11.9845 4.635C14.2315 4.635 15.7595 5.61 16.6134 6.42L19.999 3.12C17.9167 1.185 15.2202 0 11.9845 0C7.29558 0 3.25086 2.7 1.27344 6.615L5.15338 9.63C6.12711 6.735 8.80861 4.635 11.9845 4.635Z" fill="#EB4335"/>
</g>
<defs>
<clipPath id="clip0_1204_89512">
<rect width="24" height="24" fill="white"/>
</clipPath>
</defs>
</svg>
