<svg width="48" height="49" viewBox="0 0 48 49" fill="none" xmlns="http://www.w3.org/2000/svg">
<circle cx="23.6111" cy="24.4998" r="23.6111" fill="#680A83"/>
<g clip-path="url(#clip0_1499_137806)">
<path d="M29.6046 23.048C30.2136 22.0101 30.4766 20.8053 30.3556 19.608C30.1766 17.824 29.1806 16.247 27.5526 15.168L26.4476 16.834C27.5666 17.576 28.2476 18.633 28.3656 19.808C28.42 20.3541 28.352 20.9054 28.1666 21.422C27.9811 21.9385 27.6829 22.4072 27.2936 22.794L26.1016 23.986L27.7196 24.461C31.9516 25.701 32.0006 29.957 32.0006 30H34.0006C34.0006 28.211 33.0446 24.715 29.6046 23.048Z" fill="white"/>
<path d="M22.5 24C24.706 24 26.5 22.206 26.5 20C26.5 17.794 24.706 16 22.5 16C20.294 16 18.5 17.794 18.5 20C18.5 22.206 20.294 24 22.5 24ZM22.5 18C23.603 18 24.5 18.897 24.5 20C24.5 21.103 23.603 22 22.5 22C21.397 22 20.5 21.103 20.5 20C20.5 18.897 21.397 18 22.5 18ZM24 25H21C17.691 25 15 27.691 15 31V32H17V31C17 28.794 18.794 27 21 27H24C26.206 27 28 28.794 28 31V32H30V31C30 27.691 27.309 25 24 25Z" fill="white"/>
</g>
<defs>
<clipPath id="clip0_1499_137806">
<rect width="22" height="22" fill="white" transform="translate(13 12)"/>
</clipPath>
</defs>
</svg>
