<svg width="36" height="35" viewBox="0 0 36 35" fill="none" xmlns="http://www.w3.org/2000/svg">
<path d="M6.375 0.500003H29.625C30.4624 0.499238 31.2917 0.658443 32.0655 0.968506C32.8393 1.27857 33.5424 1.7334 34.1346 2.30698C34.7267 2.88055 35.1962 3.5616 35.5163 4.31116C35.8364 5.06072 36.0008 5.86406 36 6.67522V28.3248C36.0008 29.1359 35.8364 29.9393 35.5163 30.6888C35.1962 31.4384 34.7267 32.1195 34.1346 32.693C33.5424 33.2666 32.8393 33.7214 32.0655 34.0315C31.2917 34.3416 30.4624 34.5008 29.625 34.5H6.375C5.5376 34.5008 4.70827 34.3416 3.93446 34.0315C3.16066 33.7214 2.45757 33.2666 1.86544 32.693C1.27331 32.1195 0.803757 31.4384 0.483663 30.6888C0.163569 29.9393 -0.000786426 29.1359 2.82911e-06 28.3248V6.67522C-0.000786426 5.86406 0.163569 5.06072 0.483663 4.31116C0.803757 3.5616 1.27331 2.88055 1.86544 2.30698C2.45757 1.7334 3.16066 1.27857 3.93446 0.968506C4.70827 0.658443 5.5376 0.499238 6.375 0.500003Z" fill="#49021F"/>
<path d="M13.0794 9.39304V24.3007C13.0794 24.4606 13.0044 24.5332 12.8694 24.5332H9.92937C9.79437 24.5332 9.73438 24.4606 9.73438 24.3007V9.39304C9.73438 9.26227 9.80938 9.20415 9.94438 9.20415H12.8694C12.8921 9.20068 12.9153 9.20173 12.9377 9.20724C12.96 9.21275 12.9809 9.2226 12.9991 9.2362C13.0174 9.24979 13.0326 9.26685 13.0438 9.28632C13.055 9.30579 13.062 9.32727 13.0644 9.34945C13.07 9.35519 13.0743 9.36208 13.0769 9.36962C13.0795 9.37715 13.0804 9.38515 13.0794 9.39304Z" fill="#FF3366"/>
<path d="M21.7199 24.7654C20.608 24.7831 19.5061 24.5597 18.4949 24.1116C17.554 23.6854 16.7655 22.9975 16.2299 22.1355C15.6749 21.2492 15.4049 20.1449 15.4049 18.8227C15.3897 17.7474 15.6747 16.6881 16.2299 15.7569C16.7991 14.8104 17.6236 14.0318 18.6149 13.5047C19.6649 12.9381 20.9249 12.662 22.4099 12.662C22.5151 12.6608 22.6203 12.6657 22.7249 12.6765C22.8599 12.6911 23.0099 12.6911 23.1899 12.7056V8.11414C23.1899 8.01243 23.2349 7.95431 23.3399 7.95431H26.3849C26.4185 7.9499 26.4526 7.95792 26.4804 7.97676C26.5082 7.99561 26.5276 8.02391 26.5349 8.05602V21.9176C26.5349 22.1791 26.5499 22.4697 26.5649 22.7893C26.5799 23.109 26.6099 23.3851 26.6249 23.6321C26.6281 23.6812 26.6153 23.73 26.5884 23.7717C26.5615 23.8134 26.5218 23.8458 26.4749 23.8646C25.6892 24.1844 24.8691 24.4183 24.0299 24.562C23.2676 24.6958 22.4946 24.7639 21.7199 24.7654ZM23.1899 21.8594V15.4663C23.0563 15.435 22.9211 15.4108 22.7849 15.3936C22.6199 15.3791 22.4549 15.3646 22.2899 15.3646C21.7019 15.3581 21.1208 15.4877 20.5949 15.7423C20.0823 15.9897 19.6434 16.3598 19.3199 16.8176C18.9899 17.2825 18.8249 17.9073 18.8249 18.6629C18.8118 19.1728 18.8983 19.6806 19.0799 20.1594C19.2249 20.5467 19.4553 20.8987 19.7549 21.1911C20.0441 21.4584 20.3932 21.6573 20.7749 21.7723C21.1767 21.8997 21.5971 21.9635 22.0199 21.9611C22.2449 21.9611 22.4549 21.9466 22.6499 21.9321C22.8332 21.9458 23.0174 21.921 23.1899 21.8594Z" fill="#FF3366"/>
</svg>
