<svg width="18" height="19" viewBox="0 0 18 19" fill="none" xmlns="http://www.w3.org/2000/svg">
<path d="M12.5342 10.4646C12.4646 10.3949 12.382 10.3396 12.291 10.3019C12.2 10.2642 12.1025 10.2447 12.004 10.2447C11.9055 10.2447 11.8079 10.2642 11.7169 10.3019C11.6259 10.3396 11.5433 10.3949 11.4737 10.4646L10.276 11.6616C9.65795 11.4779 8.65145 11.0834 8.03345 10.4646C7.37795 9.80913 7.00295 8.77488 6.83795 8.22063L8.03345 7.02513C8.10316 6.95554 8.15847 6.87289 8.1962 6.7819C8.23393 6.69092 8.25335 6.59338 8.25335 6.49488C8.25335 6.39638 8.23393 6.29885 8.1962 6.20786C8.15847 6.11688 8.10316 6.03422 8.03345 5.96463L5.03345 2.96463C4.89007 2.8293 4.70037 2.75391 4.5032 2.75391C4.30604 2.75391 4.11634 2.8293 3.97295 2.96463L1.9412 4.99713C1.6547 5.28213 1.49345 5.67513 1.5002 6.07488C1.5167 7.14213 1.7972 10.8501 4.72295 13.7759C7.64645 16.6986 11.3567 16.9814 12.4247 16.9986H12.4457C12.8417 16.9986 13.216 16.8426 13.4995 16.5591L15.5335 14.5251C15.6032 14.4555 15.6585 14.3729 15.6962 14.2819C15.7339 14.1909 15.7534 14.0934 15.7534 13.9949C15.7534 13.8964 15.7339 13.7988 15.6962 13.7079C15.6585 13.6169 15.6032 13.5342 15.5335 13.4646L12.5342 10.4646ZM12.439 15.4986C11.503 15.4829 8.30045 15.2316 5.78345 12.7146C3.25745 10.1886 3.01445 6.97563 3.0002 6.05913L4.5032 4.55538L6.4427 6.49488L5.47295 7.46463C5.29445 7.64313 5.21795 7.90113 5.2697 8.14863C5.2877 8.23488 5.72795 10.2801 6.97295 11.5251C8.21795 12.7701 10.2632 13.2104 10.3495 13.2284C10.4714 13.2544 10.5979 13.2494 10.7174 13.2139C10.8368 13.1784 10.9455 13.1135 11.0335 13.0251L12.0032 12.0554L13.9427 13.9949L12.439 15.4986Z" fill="#34A853"/>
<path d="M11.8464 5.59209L9.75391 3.49884V8.74509H15.0002L12.9069 6.65259L16.2842 3.27534L15.2237 2.21484L11.8464 5.59209Z" fill="#34A853"/>
</svg>
