<svg width="48" height="49" viewBox="0 0 48 49" fill="none" xmlns="http://www.w3.org/2000/svg">
<circle cx="23.6111" cy="24.4998" r="23.6111" fill="#680A83"/>
<g clip-path="url(#clip0_1469_135491)">
<path d="M24.0007 15.834C18.9462 15.834 14.834 19.9462 14.834 25.0007C14.834 30.0552 18.9462 34.1673 24.0007 34.1673C29.0552 34.1673 33.1673 30.0552 33.1673 25.0007C33.1673 19.9462 29.0552 15.834 24.0007 15.834ZM24.0007 32.334C19.9572 32.334 16.6673 29.0441 16.6673 25.0007C16.6673 20.9572 19.9572 17.6673 24.0007 17.6673C28.0441 17.6673 31.334 20.9572 31.334 25.0007C31.334 29.0441 28.0441 32.334 24.0007 32.334Z" fill="white"/>
<path d="M21.25 22.25H26.75V27.75H21.25V22.25Z" fill="white"/>
</g>
<defs>
<clipPath id="clip0_1469_135491">
<rect width="22" height="22" fill="white" transform="translate(13 14)"/>
</clipPath>
</defs>
</svg>
