<svg width="50" height="50" viewBox="0 0 50 50" fill="none" xmlns="http://www.w3.org/2000/svg">
<g clip-path="url(#clip0_1204_89423)">
<path d="M50 9.92685C50.0065 8.04998 48.8325 6.71586 46.7983 6.75231C42.8795 6.82259 38.958 6.76662 35.0366 6.78094C34.6448 6.78224 34.4522 6.67812 34.2947 6.29676C33.2561 3.77691 31.4835 1.93648 28.982 0.858776C26.1694 -0.355593 23.3529 -0.270991 20.582 1.0423C19.9911 1.32084 19.874 1.89873 20.3061 2.29441C20.6471 2.60549 20.9855 2.4519 21.3447 2.29702C24.6479 0.882204 27.7729 1.21801 30.519 3.54002C33.2483 5.84901 34.1528 8.87127 33.2717 12.3361C32.2383 16.3996 28.1269 19.168 24.0662 18.6357C19.6489 18.0565 16.4237 14.4993 16.3951 10.1781C16.3821 8.06169 17.0654 6.19523 18.3968 4.55655C18.7417 4.13224 18.7014 3.74176 18.3239 3.45281C17.9712 3.18209 17.5534 3.21593 17.271 3.64805C16.7048 4.5136 16.1634 5.40127 15.6832 6.31628C15.5049 6.65469 15.3591 6.78354 14.9751 6.78224C10.9405 6.76662 6.9058 6.77443 2.87112 6.77053C1.99651 6.77053 1.21431 7.01913 0.670276 7.72068C0.38004 8.09553 0.218653 8.57061 0 9.00013V47.8521C0.347502 48.9363 1.06333 49.6522 2.14749 49.9997H47.8304C49.4794 49.4453 50.0026 48.2634 49.9974 46.5805C49.9609 34.3626 49.9571 22.1447 50 9.92685ZM1.47461 9.42184C1.47981 8.80359 1.91191 8.35975 2.52492 8.26213C2.70063 8.2335 2.88154 8.2374 3.05984 8.2374C6.86415 8.2361 10.6698 8.2374 14.4741 8.2374H15.0767C14.7122 10.5737 15.0324 12.7669 16.1374 14.8767H1.4681C1.4681 13.0298 1.45639 11.2258 1.47461 9.42184ZM48.5137 46.8968C48.5137 48.132 48.1128 48.5355 46.8881 48.5355H3.07286C1.87547 48.5355 1.4642 48.1255 1.4642 46.9306V16.4035C1.67504 16.3931 1.84814 16.3775 2.01994 16.3775C6.89929 16.3762 11.7786 16.3801 16.658 16.3696C16.9964 16.3696 17.2215 16.4673 17.4493 16.7237C21.536 21.3013 28.4653 21.2844 32.5702 16.7081C32.729 16.5297 33.0205 16.3696 33.2509 16.3683C38.194 16.3527 43.1385 16.3605 48.0829 16.3657C48.2104 16.3657 48.3367 16.3827 48.5137 16.3957V46.8968ZM48.5137 14.8728H33.8444C34.9285 12.7747 35.2721 10.5985 34.8986 8.26213C35.116 8.25172 35.2865 8.2374 35.457 8.2374C39.2938 8.2361 43.1306 8.2361 46.9675 8.2374C48.0673 8.2374 48.5124 8.67994 48.5137 9.76415C48.515 11.4549 48.5137 13.1443 48.5137 14.8728Z" fill="#680A83"/>
<path d="M0 47.8525C0.347502 48.9368 1.06333 49.6526 2.14749 50.0001C1.43166 50.0001 0.715829 50.0001 0 50.0001C0 49.2843 0 48.5684 0 47.8525Z" fill="white"/>
<path d="M29.1082 10.1677C29.0991 9.37759 28.6891 8.78538 27.9408 8.5524C27.6219 8.45217 27.5985 8.28948 27.5959 8.02656C27.5907 7.44345 27.6141 6.85254 27.5321 6.27855C27.3551 5.04595 26.2566 4.13745 25.0111 4.12704C23.7473 4.11663 22.6241 5.03033 22.4458 6.28245C22.3612 6.87336 22.3898 7.4799 22.3807 8.07992C22.3768 8.309 22.3521 8.44567 22.0788 8.53548C21.2731 8.79839 20.8749 9.37369 20.8684 10.221C20.8593 11.4549 20.8528 12.6901 20.871 13.9253C20.884 14.9366 21.592 15.6265 22.6033 15.6395C23.1473 15.646 23.6926 15.6434 24.2367 15.6421C24.4879 15.6408 24.7391 15.6408 24.9915 15.6408C25.628 15.6421 26.2631 15.646 26.8996 15.6421C27.0427 15.6434 27.1859 15.6421 27.3304 15.6408C28.382 15.6317 29.0926 14.9548 29.1069 13.9201C29.1251 12.6693 29.1212 11.4185 29.1082 10.1677ZM23.8723 6.59873C23.9217 5.9935 24.3929 5.64338 25.0241 5.65249C25.6332 5.659 26.0614 6.00131 26.1082 6.60914C26.1525 7.18704 26.1174 7.77145 26.1174 8.41183H23.8618C23.8618 7.78967 23.8241 7.19095 23.8723 6.59873ZM27.0857 14.1843C26.3881 14.157 25.6879 14.1778 24.9889 14.1778C24.2744 14.1778 23.5586 14.1622 22.8441 14.183C22.4731 14.1947 22.3156 14.088 22.3222 13.691C22.3417 12.586 22.3391 11.4809 22.3235 10.3759C22.3183 10.005 22.4744 9.89692 22.8193 9.89953C24.2653 9.90864 25.7126 9.91254 27.1586 9.89823C27.5503 9.89432 27.6609 10.0557 27.6544 10.4241C27.6375 11.4966 27.631 12.5704 27.657 13.6429C27.6687 14.0867 27.4983 14.2012 27.0857 14.1843Z" fill="#AD83C5"/>
<path d="M44.2432 37.82C43.5924 36.2203 42.2766 35.3795 40.3374 35.3782C30.1049 35.3717 19.8712 35.3717 9.63872 35.386C9.07907 35.3873 8.49209 35.468 7.96628 35.6541C5.57932 36.4963 4.62141 39.6461 6.02704 41.9512C6.8561 43.3126 8.12637 43.802 9.66475 43.7994C14.7719 43.789 19.8803 43.7955 24.9887 43.7955C30.032 43.7955 35.0754 43.7955 40.1187 43.7942C40.4441 43.7929 40.7708 43.7877 41.0935 43.7551C41.9629 43.6692 42.723 43.3295 43.3504 42.7152C44.5686 41.5203 44.9317 39.5146 44.2432 37.82ZM40.3621 42.3416C35.2381 42.3052 30.1127 42.3312 24.9887 42.3312C19.8803 42.3312 14.7719 42.3325 9.66345 42.3299C8.22008 42.3286 7.30512 41.7091 6.93549 40.5038C6.33289 38.5436 7.55761 36.8516 9.61529 36.8438C13.2426 36.8295 16.8712 36.8399 20.4985 36.8399C27.088 36.8399 33.6763 36.8425 40.2645 36.8373C41.4736 36.836 42.438 37.2356 42.9378 38.407C43.6185 40.0027 42.8766 42.3599 40.3621 42.3416Z" fill="#AD83C5"/>
<path d="M43.7186 31.2333C43.0601 32.1652 42.1074 32.6494 40.9802 32.7145C40.0067 32.7692 39.0293 32.747 38.0532 32.7392C37.5677 32.7353 37.3009 32.4672 37.2931 32.0351C37.284 31.586 37.5638 31.2971 38.0688 31.2867C38.8497 31.2698 39.6319 31.2633 40.4115 31.2841C42.6175 31.3413 43.5273 29.359 43.0509 27.68C42.7347 26.5659 41.8653 25.8786 40.7043 25.8044C40.6067 25.7979 40.5091 25.7979 40.4115 25.7979C30.1296 25.7979 19.849 25.7979 9.56708 25.7966C8.4686 25.7966 7.58228 26.1936 7.10332 27.2219C6.60615 28.2905 6.68164 29.3447 7.38185 30.3131C7.80614 30.8988 8.40874 31.1995 9.12587 31.2593C9.40048 31.2828 9.6777 31.2802 9.95362 31.2802C17.7952 31.2815 25.6368 31.2815 33.4784 31.2815C33.6241 31.2815 33.7712 31.2789 33.917 31.2815C34.5013 31.2945 34.8033 31.5496 34.7981 32.026C34.7942 32.4997 34.5013 32.7431 33.9014 32.7444C25.7839 32.7457 17.6664 32.7523 9.54886 32.7392C7.49378 32.7366 6.09075 31.6915 5.57145 29.8641C5.03002 27.9573 5.69509 25.9502 7.19313 24.9701C7.94149 24.4807 8.77706 24.3311 9.65558 24.3324C14.7796 24.335 19.9049 24.3337 25.029 24.3337C30.1205 24.3337 35.212 24.3389 40.3048 24.3311C41.9863 24.3285 43.3477 24.9103 44.1026 26.4787C44.89 28.1147 44.7767 29.7339 43.7186 31.2333Z" fill="#AD83C5"/>
<path d="M38.4014 29.2117C38.2074 29.2755 37.9875 29.2833 37.7779 29.2833C29.2544 29.2872 20.7295 29.2872 12.2059 29.2833C11.9964 29.2833 11.7777 29.2781 11.5812 29.2182C11.2142 29.1063 11.0918 28.8082 11.1296 28.4503C11.166 28.1054 11.3574 27.8776 11.714 27.8347C11.891 27.8138 12.0719 27.8229 12.2502 27.8229C16.497 27.8216 20.7425 27.8216 24.988 27.8216C29.2336 27.8216 33.4804 27.8216 37.7259 27.8229C37.9042 27.8229 38.0864 27.8112 38.2621 27.8373C38.607 27.888 38.8165 28.0976 38.8595 28.4464C38.9037 28.8121 38.758 29.0946 38.4014 29.2117Z" fill="#680A83"/>
<path d="M25.683 12.061C25.6765 12.4775 25.3811 12.7795 24.9854 12.7782C24.5872 12.7769 24.2969 12.4749 24.293 12.0571C24.2878 11.6081 24.5768 11.3165 25.0141 11.3295C25.4253 11.3412 25.6896 11.6302 25.683 12.061Z" fill="#680A83"/>
<path d="M16.2931 39.6285C16.2735 40.0359 15.956 40.3379 15.5642 40.3249C15.1686 40.3106 14.8796 39.9943 14.8848 39.5817C14.8913 39.1444 15.2076 38.8437 15.6358 38.8697C16.0289 38.8945 16.3139 39.2225 16.2931 39.6285Z" fill="#680A83"/>
<path d="M35.0933 39.6025C35.0881 40.0151 34.79 40.3236 34.3931 40.3249C34.0013 40.3262 33.6928 40.0138 33.6837 39.6077C33.6759 39.1808 33.9935 38.858 34.4126 38.8684C34.816 38.8788 35.0998 39.1847 35.0933 39.6025Z" fill="#680A83"/>
<path d="M12.5201 39.5901C12.5214 40.0118 12.239 40.3164 11.8407 40.3242C11.4451 40.3333 11.1405 40.0326 11.1275 39.62C11.1132 39.2009 11.3865 38.8898 11.7861 38.8703C12.2182 38.8482 12.5188 39.1436 12.5201 39.5901Z" fill="#680A83"/>
<path d="M20.0411 39.6092C20.0333 40.0283 19.7405 40.3277 19.3409 40.3238C18.9465 40.3212 18.6485 40.0114 18.6446 39.6014C18.6394 39.1667 18.9518 38.8543 19.3747 38.8686C19.7795 38.883 20.0489 39.181 20.0411 39.6092Z" fill="#680A83"/>
<path d="M23.8137 39.6104C23.8033 40.0178 23.4961 40.3262 23.1044 40.3249C22.6879 40.3223 22.3911 39.9904 22.4133 39.5518C22.4328 39.1288 22.7256 38.8542 23.1382 38.8698C23.5378 38.8841 23.8228 39.1978 23.8137 39.6104Z" fill="#680A83"/>
<path d="M27.5645 39.6252C27.5476 40.043 27.247 40.3358 26.8474 40.3241C26.4543 40.3124 26.1602 39.9948 26.1641 39.5861C26.168 39.154 26.4882 38.8481 26.9125 38.8703C27.3146 38.8911 27.5801 39.1983 27.5645 39.6252Z" fill="#680A83"/>
<path d="M31.3326 39.5983C31.33 40.0083 31.0306 40.3194 30.6376 40.3233C30.2198 40.3285 29.9217 40.0044 29.936 39.5632C29.9504 39.1375 30.2354 38.859 30.648 38.8694C31.0501 38.8785 31.3365 39.1831 31.3326 39.5983Z" fill="#680A83"/>
<path d="M38.8519 39.5926C38.8519 40.0052 38.5591 40.3163 38.1647 40.3241C37.747 40.3319 37.4476 40.013 37.4593 39.5692C37.4697 39.1423 37.7522 38.8637 38.1647 38.8702C38.5682 38.8767 38.8519 39.1748 38.8519 39.5926Z" fill="#680A83"/>
</g>
<defs>
<clipPath id="clip0_1204_89423">
<rect width="50" height="50" fill="white"/>
</clipPath>
</defs>
</svg>
