<svg width="207" height="46" viewBox="0 0 207 46" fill="none" xmlns="http://www.w3.org/2000/svg">
<path d="M0 11.0354C0 4.9407 4.85593 0 10.846 0H34.3648C40.3549 0 45.2108 4.9407 45.2108 11.0354V46H19.5229C8.74068 46 0 37.1067 0 26.1364V11.0354Z" fill="#680A83"/>
<path d="M32.8653 20.9602L32.8204 21.0049C32.3035 14.9465 27.1913 10.186 20.9556 10.186C14.3753 10.186 9.0421 15.482 9.0421 22.0165C9.0421 28.1344 13.7236 33.17 19.7197 33.7799L19.656 33.8432H36.1686L32.8653 20.9602Z" fill="white"/>
<path d="M26.5988 22.3429C26.5988 25.7907 23.7847 28.5857 20.3134 28.5857C16.8421 28.5857 14.028 25.7907 14.028 22.3429C14.028 18.895 16.8421 16.1 20.3134 16.1C23.7847 16.1 26.5988 18.895 26.5988 22.3429Z" fill="#680A83"/>
<path d="M65.0157 15.3194C66.6064 15.3194 68.0019 15.6357 69.2022 16.2684C70.417 16.9011 71.3498 17.806 72.0005 18.9831C72.6657 20.1455 72.9983 21.4992 72.9983 23.0441C72.9983 24.5891 72.6657 25.9428 72.0005 27.1052C71.3498 28.2528 70.417 29.143 69.2022 29.7757C68.0019 30.4084 66.6064 30.7247 65.0157 30.7247H59.7228V15.3194H65.0157ZM64.9072 28.0983C66.498 28.0983 67.7272 27.6569 68.5949 26.7741C69.4625 25.8913 69.8964 24.6479 69.8964 23.0441C69.8964 21.4403 69.4625 20.1897 68.5949 19.2921C67.7272 18.3799 66.498 17.9237 64.9072 17.9237H62.7597V28.0983H64.9072Z" fill="#680A83"/>
<path d="M83.0807 30.7247L79.7402 24.7215H78.3085V30.7247H75.2716V15.3194H80.9549C82.1263 15.3194 83.1241 15.5327 83.9484 15.9594C84.7727 16.3714 85.3873 16.9379 85.7923 17.6589C86.2116 18.3652 86.4213 19.1597 86.4213 20.0425C86.4213 21.0578 86.1321 21.9774 85.5536 22.8014C84.9752 23.6106 84.1147 24.1697 82.9723 24.4787L86.5949 30.7247H83.0807ZM78.3085 22.4041H80.8465C81.6708 22.4041 82.2854 22.2055 82.6903 21.8082C83.0952 21.3962 83.2977 20.8297 83.2977 20.1087C83.2977 19.4025 83.0952 18.8581 82.6903 18.4755C82.2854 18.0782 81.6708 17.8796 80.8465 17.8796H78.3085V22.4041Z" fill="#680A83"/>
<path d="M92.205 17.8134V21.6758H97.3026V24.1256H92.205V28.2087H97.9534V30.7247H89.1681V15.2973H97.9534V17.8134H92.205Z" fill="#680A83"/>
<path d="M109.997 27.7893H103.967L102.969 30.7247H99.7804L105.225 15.2973H108.761L114.206 30.7247H110.995L109.997 27.7893ZM109.173 25.3174L106.982 18.8728L104.791 25.3174H109.173Z" fill="#680A83"/>
<path d="M132.748 15.3194V30.7247H129.712V20.7046L125.655 30.7247H123.356L119.278 20.7046V30.7247H116.241V15.3194H119.69L124.505 26.7741L129.321 15.3194H132.748Z" fill="#680A83"/>
<path d="M140.979 30.8792C139.923 30.8792 138.969 30.6953 138.115 30.3275C137.277 29.9596 136.611 29.4299 136.12 28.7384C135.628 28.0468 135.375 27.2302 135.36 26.2885H138.614C138.658 26.9212 138.875 27.4215 139.265 27.7893C139.67 28.1572 140.219 28.3411 140.914 28.3411C141.622 28.3411 142.179 28.1719 142.584 27.8335C142.989 27.4804 143.191 27.0242 143.191 26.4651C143.191 26.009 143.054 25.6338 142.779 25.3395C142.504 25.0452 142.157 24.8172 141.738 24.6553C141.333 24.4787 140.769 24.2875 140.046 24.0815C139.063 23.7872 138.26 23.5003 137.638 23.2207C137.031 22.9264 136.503 22.4924 136.055 21.9185C135.621 21.33 135.404 20.5501 135.404 19.579C135.404 18.6668 135.628 17.8722 136.076 17.1954C136.525 16.5186 137.154 16.0036 137.964 15.6505C138.773 15.2826 139.699 15.0987 140.74 15.0987C142.302 15.0987 143.567 15.4886 144.536 16.2684C145.52 17.0336 146.062 18.1077 146.163 19.4908H142.823C142.794 18.9611 142.569 18.527 142.15 18.1886C141.745 17.8355 141.203 17.6589 140.523 17.6589C139.93 17.6589 139.453 17.8134 139.092 18.1224C138.744 18.4314 138.571 18.8801 138.571 19.4687C138.571 19.8807 138.701 20.2264 138.961 20.506C139.236 20.7709 139.569 20.9916 139.959 21.1681C140.364 21.33 140.928 21.5213 141.651 21.742C142.635 22.0362 143.437 22.3305 144.059 22.6248C144.681 22.9191 145.216 23.3605 145.664 23.949C146.113 24.5376 146.337 25.3101 146.337 26.2665C146.337 27.0904 146.127 27.8556 145.708 28.5618C145.288 29.2681 144.674 29.8346 143.864 30.2613C143.054 30.6732 142.092 30.8792 140.979 30.8792Z" fill="#680A83"/>
<path d="M148.232 23C148.232 21.4845 148.565 20.1308 149.23 18.939C149.91 17.7325 150.828 16.7981 151.985 16.136C153.156 15.4592 154.465 15.1208 155.911 15.1208C157.603 15.1208 159.085 15.5622 160.358 16.445C161.63 17.3278 162.52 18.5491 163.026 20.1087H159.534C159.186 19.373 158.695 18.8213 158.058 18.4534C157.437 18.0856 156.714 17.9017 155.889 17.9017C155.007 17.9017 154.219 18.115 153.525 18.5417C152.845 18.9537 152.31 19.5423 151.92 20.3074C151.544 21.0725 151.356 21.97 151.356 23C151.356 24.0153 151.544 24.9128 151.92 25.6926C152.31 26.4577 152.845 27.0537 153.525 27.4804C154.219 27.8923 155.007 28.0983 155.889 28.0983C156.714 28.0983 157.437 27.9144 158.058 27.5466C158.695 27.164 159.186 26.6049 159.534 25.8692H163.026C162.52 27.4436 161.63 28.6722 160.358 29.555C159.1 30.4231 157.617 30.8572 155.911 30.8572C154.465 30.8572 153.156 30.5261 151.985 29.864C150.828 29.1872 149.91 28.2528 149.23 27.061C148.565 25.8692 148.232 24.5155 148.232 23Z" fill="#680A83"/>
<path d="M178.18 15.3194V30.7247H175.143V24.1697H168.657V30.7247H165.62V15.3194H168.657V21.6537H175.143V15.3194H178.18Z" fill="#680A83"/>
<path d="M190.453 27.7893H184.422L183.425 30.7247H180.236L185.681 15.2973H189.216L194.661 30.7247H191.451L190.453 27.7893ZM189.629 25.3174L187.438 18.8728L185.247 25.3174H189.629Z" fill="#680A83"/>
<path d="M207 15.3194V17.8134H202.965V30.7247H199.928V17.8134H195.894V15.3194H207Z" fill="#680A83"/>
</svg>
