<svg width="21" height="20" viewBox="0 0 21 20" fill="none" xmlns="http://www.w3.org/2000/svg">
<path d="M13.8327 1.66699H7.16602C4.40852 1.66699 2.16602 3.90949 2.16602 6.66699V16.667C2.16602 16.888 2.25381 17.1 2.41009 17.2562C2.56637 17.4125 2.77834 17.5003 2.99935 17.5003H13.8327C16.5902 17.5003 18.8327 15.2578 18.8327 12.5003V6.66699C18.8327 3.90949 16.5902 1.66699 13.8327 1.66699ZM17.166 12.5003C17.166 14.3387 15.671 15.8337 13.8327 15.8337H3.83268V6.66699C3.83268 4.82866 5.32768 3.33366 7.16602 3.33366H13.8327C15.671 3.33366 17.166 4.82866 17.166 6.66699V12.5003Z" fill="#616161"/>
<path d="M8.41602 10.833C9.10637 10.833 9.66602 10.2734 9.66602 9.58301C9.66602 8.89265 9.10637 8.33301 8.41602 8.33301C7.72566 8.33301 7.16602 8.89265 7.16602 9.58301C7.16602 10.2734 7.72566 10.833 8.41602 10.833Z" fill="#0A0A0A"/>
<path d="M12.584 10.833C13.2743 10.833 13.834 10.2734 13.834 9.58301C13.834 8.89265 13.2743 8.33301 12.584 8.33301C11.8936 8.33301 11.334 8.89265 11.334 9.58301C11.334 10.2734 11.8936 10.833 12.584 10.833Z" fill="#0A0A0A"/>
</svg>
