<svg width="18" height="18" viewBox="0 0 18 18" fill="none" xmlns="http://www.w3.org/2000/svg">
<path d="M17.0885 15.9112L14.2652 13.0878C15.1725 11.9251 15.6656 10.4927 15.666 9.01783H13.9993C13.9987 10.0506 13.6756 11.0575 13.0752 11.8978L11.8652 10.6878C12.1552 10.1953 12.3327 9.62949 12.3327 9.01783V4.01783C12.3327 2.17033 10.8452 0.666992 9.01682 0.666992C8.95849 0.666992 8.90016 0.674492 8.84266 0.687826C7.98696 0.729109 7.17991 1.09786 6.58857 1.71773C5.99724 2.33761 5.66692 3.16114 5.66599 4.01783V4.48866L2.08849 0.911159L0.910156 2.08949L15.9102 17.0895L17.0885 15.9112ZM7.33266 4.01783C7.33266 3.09866 8.08016 2.35116 8.99932 2.35116C9.04516 2.3511 9.0909 2.34691 9.13599 2.33866C9.98932 2.40033 10.666 3.13033 10.666 4.01783V9.01783C10.666 9.16116 10.6418 9.29699 10.6068 9.42949L7.33266 6.15533V4.01783ZM3.99932 9.01783H2.33266C2.33266 12.4112 4.88266 15.2145 8.16599 15.627V17.3512H9.83266V15.6262C10.4701 15.5465 11.0927 15.375 11.681 15.117L10.3827 13.8187C9.93319 13.9497 9.4675 14.0168 8.99932 14.0178C6.24182 14.0178 3.99932 11.7745 3.99932 9.01783Z" fill="white"/>
</svg>
