<svg width="85" height="85" viewBox="0 0 85 85" fill="none" xmlns="http://www.w3.org/2000/svg">
<circle cx="42.5" cy="42.5" r="42.5" fill="#680A83"/>
<g clip-path="url(#clip0_1209_90423)">
<path d="M63.6537 39.1715C62.3208 32.2054 58.5292 27.0053 52.3305 23.5833C49.6278 22.0914 46.7059 21.2793 43.6208 21.0705C43.5091 21.0627 43.3999 21.0241 43.2891 21H40.7109C39.8627 21.1134 39.0059 21.1856 38.1672 21.3472C31.202 22.6818 26.0019 26.4742 22.5807 32.6737C21.0974 35.3627 20.287 38.2709 20.073 41.3405C20.0645 41.4652 20.0249 41.5872 20 41.7109V44.2891C20.1134 45.1364 20.1856 45.9906 20.3463 46.8285C21.6792 53.7946 25.4708 58.9947 31.6695 62.4167C34.3722 63.9086 37.2941 64.7207 40.3792 64.9295C40.4909 64.9373 40.6001 64.9759 40.7109 65H43.2891C44.1373 64.8866 44.9941 64.8144 45.8328 64.6528C52.798 63.3182 57.9981 59.5258 61.4193 53.3263C62.9026 50.6373 63.713 47.7291 63.927 44.6595C63.9355 44.5348 63.9751 44.4128 64 44.2891V41.7109C63.8866 40.8636 63.8144 40.0094 63.6537 39.1715ZM42.0043 61.5625C31.7537 61.5659 23.4229 53.2283 23.4375 42.9828C23.453 32.7391 31.7571 24.4418 41.9957 24.4375C52.2463 24.4341 60.5771 32.7717 60.5625 43.0172C60.547 53.2609 52.2429 61.5591 42.0043 61.5625Z" fill="white"/>
<path d="M51.8947 38.2297C51.7804 38.393 51.6377 38.5373 51.4968 38.6783C47.8032 42.3744 44.1087 46.0698 40.4134 49.7633C39.444 50.7319 38.5168 50.731 37.5491 49.7642C35.8278 48.0437 34.1047 46.3241 32.3868 44.6002C31.7457 43.9566 31.6005 43.1934 31.9675 42.4922C32.5261 41.4231 33.8753 41.2495 34.7931 42.1519C36.0787 43.4169 37.3454 44.7016 38.6216 45.9769C38.7307 46.0861 38.845 46.1901 39.0711 46.4058C39.1768 46.2408 39.2464 46.0723 39.3658 45.9537C42.6108 42.7001 45.8618 39.4526 49.1086 36.2007C49.4961 35.8131 49.9215 35.5183 50.493 35.5235C51.1831 35.5304 51.7056 35.8423 52.0253 36.4491C52.3467 37.0601 52.2917 37.6659 51.8947 38.2297Z" fill="white"/>
</g>
<defs>
<clipPath id="clip0_1209_90423">
<rect width="44" height="44" fill="white" transform="translate(20 21)"/>
</clipPath>
</defs>
</svg>
