<svg width="18" height="19" viewBox="0 0 18 19" fill="none" xmlns="http://www.w3.org/2000/svg">
<path d="M12.5342 10.466C12.4646 10.3963 12.3819 10.341 12.2909 10.3032C12.1999 10.2655 12.1024 10.2461 12.0039 10.2461C11.9054 10.2461 11.8079 10.2655 11.7169 10.3032C11.6259 10.341 11.5433 10.3963 11.4737 10.466L10.2782 11.6615C9.72391 11.4965 8.68966 11.1215 8.03416 10.466C7.37866 9.81049 7.00366 8.77624 6.83866 8.22199L8.03416 7.02649C8.10387 6.9569 8.15917 6.87425 8.19691 6.78326C8.23464 6.69228 8.25406 6.59474 8.25406 6.49624C8.25406 6.39774 8.23464 6.30021 8.19691 6.20922C8.15917 6.11824 8.10387 6.03559 8.03416 5.96599L5.03416 2.96599C4.96457 2.89629 4.88192 2.84098 4.79093 2.80325C4.69995 2.76552 4.60241 2.74609 4.50391 2.74609C4.40541 2.74609 4.30788 2.76552 4.21689 2.80325C4.12591 2.84098 4.04325 2.89629 3.97366 2.96599L1.93966 4.99999C1.65466 5.28499 1.49416 5.67649 1.50016 6.07624C1.51741 7.14424 1.80016 10.8537 4.72366 13.7772C7.64716 16.7007 11.3567 16.9827 12.4247 17H12.4457C12.8417 17 13.2159 16.844 13.4994 16.5605L15.5334 14.5265C15.6031 14.4569 15.6584 14.3743 15.6962 14.2833C15.7339 14.1923 15.7533 14.0947 15.7533 13.9962C15.7533 13.8977 15.7339 13.8002 15.6962 13.7092C15.6584 13.6182 15.6031 13.5356 15.5334 13.466L12.5342 10.466ZM12.4389 15.5C11.5029 15.4842 8.30041 15.233 5.78416 12.716C3.25966 10.1915 3.01516 6.97774 3.00016 6.06049L4.50391 4.55674L6.44341 6.49624L5.47366 7.46599C5.38551 7.55408 5.32069 7.66275 5.28508 7.78217C5.24946 7.90159 5.24416 8.02801 5.26966 8.14999C5.28766 8.23624 5.72791 10.2815 6.97291 11.5265C8.21791 12.7715 10.2632 13.2117 10.3494 13.2297C10.4713 13.2558 10.5978 13.2509 10.7173 13.2154C10.8368 13.1799 10.9455 13.1149 11.0334 13.0265L12.0032 12.0567L13.9427 13.9962L12.4389 15.5Z" fill="#34A853"/>
<path d="M12.5954 4.84309L9.22266 8.21584L10.2832 9.27634L13.6559 5.90359L15.7529 7.99984V2.74609H10.4992L12.5954 4.84309Z" fill="#34A853"/>
</svg>
