<svg width="18" height="18" viewBox="0 0 18 18" fill="none" xmlns="http://www.w3.org/2000/svg">
<path d="M12.5342 9.96659C12.4646 9.89688 12.382 9.84157 12.291 9.80384C12.2 9.76611 12.1025 9.74668 12.004 9.74668C11.9055 9.74668 11.8079 9.76611 11.7169 9.80384C11.6259 9.84157 11.5433 9.89688 11.4737 9.96659L10.276 11.1636C9.65795 10.9798 8.65145 10.5853 8.03345 9.96659C7.37795 9.31109 7.00295 8.27683 6.83795 7.72258L8.03345 6.52708C8.10316 6.45749 8.15847 6.37484 8.1962 6.28385C8.23393 6.19287 8.25335 6.09533 8.25335 5.99683C8.25335 5.89833 8.23393 5.8008 8.1962 5.70982C8.15847 5.61883 8.10316 5.53618 8.03345 5.46658L5.03345 2.46658C4.89007 2.33125 4.70037 2.25586 4.5032 2.25586C4.30604 2.25586 4.11634 2.33125 3.97295 2.46658L1.9412 4.49908C1.6547 4.78408 1.49345 5.17708 1.5002 5.57683C1.5167 6.64408 1.7972 10.3521 4.72295 13.2778C7.64645 16.2006 11.3567 16.4833 12.4247 16.5006H12.4457C12.8417 16.5006 13.216 16.3446 13.4995 16.0611L15.5335 14.0271C15.6032 13.9575 15.6585 13.8748 15.6962 13.7839C15.7339 13.6929 15.7534 13.5953 15.7534 13.4968C15.7534 13.3983 15.7339 13.3008 15.6962 13.2098C15.6585 13.1188 15.6032 13.0362 15.5335 12.9666L12.5342 9.96659ZM12.439 15.0006C11.503 14.9848 8.30045 14.7336 5.78345 12.2166C3.25745 9.69059 3.01445 6.47758 3.0002 5.56108L4.5032 4.05733L6.4427 5.99683L5.47295 6.96658C5.29445 7.14508 5.21795 7.40308 5.2697 7.65058C5.2877 7.73683 5.72795 9.78208 6.97295 11.0271C8.21795 12.2721 10.2632 12.7123 10.3495 12.7303C10.4714 12.7563 10.5979 12.7514 10.7174 12.7159C10.8368 12.6804 10.9455 12.6154 11.0335 12.5271L12.0032 11.5573L13.9427 13.4968L12.439 15.0006Z" fill="#C8102E"/>
<path d="M11.8464 5.09405L9.75391 3.0008V8.24705H15.0002L12.9069 6.15455L16.2842 2.7773L15.2237 1.7168L11.8464 5.09405Z" fill="#C8102E"/>
</svg>
