<svg width="36" height="35" viewBox="0 0 36 35" fill="none" xmlns="http://www.w3.org/2000/svg">
<g clip-path="url(#clip0_1326_28974)">
<path d="M6.375 0.500003H29.625C30.4624 0.499238 31.2917 0.658443 32.0655 0.968506C32.8393 1.27857 33.5424 1.7334 34.1346 2.30698C34.7267 2.88055 35.1962 3.5616 35.5163 4.31116C35.8364 5.06072 36.0008 5.86406 36 6.67522V28.3248C36.0008 29.1359 35.8364 29.9393 35.5163 30.6888C35.1962 31.4384 34.7267 32.1195 34.1346 32.693C33.5424 33.2666 32.8393 33.7214 32.0655 34.0315C31.2917 34.3416 30.4624 34.5008 29.625 34.5H6.375C5.5376 34.5008 4.70827 34.3416 3.93446 34.0315C3.16066 33.7214 2.45757 33.2666 1.86544 32.693C1.27331 32.1195 0.803757 31.4384 0.483663 30.6888C0.163569 29.9393 -0.000786426 29.1359 2.82911e-06 28.3248V6.67522C-0.000786426 5.86406 0.163569 5.06072 0.483663 4.31116C0.803757 3.5616 1.27331 2.88055 1.86544 2.30698C2.45757 1.7334 3.16066 1.27857 3.93446 0.968506C4.70827 0.658443 5.5376 0.499238 6.375 0.500003Z" fill="#001E36"/>
<path d="M8.09961 24.3438V9.39252C8.09961 9.29081 8.14461 9.23269 8.24961 9.23269C8.50461 9.23269 8.74461 9.23269 9.08961 9.21816C9.43461 9.20363 9.82461 9.20363 10.2296 9.1891C10.6346 9.17457 11.0696 9.17457 11.5346 9.16004C11.9996 9.14551 12.4496 9.14551 12.8996 9.14551C14.1296 9.14551 15.1496 9.29081 15.9896 9.59593C16.7426 9.84363 17.4292 10.2506 17.9996 10.7874C18.483 11.2571 18.8564 11.822 19.0946 12.4438C19.3217 13.0493 19.4384 13.6885 19.4396 14.3327C19.4396 15.5823 19.1396 16.6139 18.5396 17.4276C17.9368 18.2401 17.0952 18.8579 16.1246 19.2002C15.1046 19.5635 13.9796 19.6942 12.7496 19.6942C12.3896 19.6942 12.1496 19.6942 11.9996 19.6797C11.8496 19.6652 11.6396 19.6652 11.3546 19.6652V24.3293C11.358 24.3532 11.3563 24.3775 11.3498 24.4008C11.3432 24.4241 11.3319 24.4458 11.3166 24.4648C11.3012 24.4838 11.282 24.4996 11.2602 24.5112C11.2384 24.5229 11.2144 24.5302 11.1896 24.5327H8.27961C8.15961 24.5327 8.09961 24.4746 8.09961 24.3438ZM11.3696 12.037V16.919C11.5796 16.9335 11.7746 16.9481 11.9546 16.9481H12.7496C13.3352 16.9488 13.9173 16.8605 14.4746 16.6865C14.9528 16.5503 15.38 16.2828 15.7046 15.9164C16.0196 15.5532 16.1696 15.0592 16.1696 14.4199C16.1837 13.9658 16.0641 13.5173 15.8246 13.1267C15.5745 12.7494 15.2067 12.4593 14.7746 12.2985C14.2115 12.0849 13.609 11.9859 13.0046 12.0079C12.6146 12.0079 12.2696 12.0079 11.9846 12.0224C11.7796 12.0094 11.5737 12.0143 11.3696 12.037Z" fill="#31A8FF"/>
<path d="M28.8004 16.0328C28.3475 15.8017 27.8625 15.6353 27.3604 15.5388C26.809 15.4178 26.2458 15.3545 25.6804 15.3499C25.3768 15.3397 25.0734 15.374 24.7804 15.4516C24.5936 15.4892 24.4278 15.5928 24.3154 15.7422C24.2396 15.8601 24.1981 15.9956 24.1954 16.1345C24.2024 16.2727 24.2549 16.4051 24.3454 16.5123C24.4876 16.6738 24.6608 16.807 24.8554 16.9046C25.2004 17.0789 25.5604 17.2388 25.9204 17.3841C26.7308 17.6483 27.5062 18.0044 28.2304 18.4447C28.723 18.7448 29.1303 19.1593 29.4154 19.6507C29.6564 20.1143 29.775 20.6285 29.7604 21.1473C29.7726 21.8341 29.5685 22.5081 29.1754 23.0798C28.757 23.6598 28.1732 24.1092 27.4954 24.373C26.7604 24.6781 25.8604 24.8379 24.7804 24.8379C24.0956 24.8406 23.4123 24.7773 22.7404 24.649C22.2114 24.5605 21.6968 24.4041 21.2104 24.1841C21.1581 24.1587 21.1146 24.119 21.0853 24.0699C21.056 24.0209 21.0421 23.9646 21.0454 23.908V21.3798C21.0441 21.355 21.0489 21.3302 21.0593 21.3075C21.0697 21.2847 21.0855 21.2647 21.1054 21.249C21.1265 21.2371 21.1511 21.2321 21.1754 21.2347C21.1997 21.2373 21.2225 21.2474 21.2404 21.2636C21.8182 21.5935 22.4458 21.8338 23.1004 21.9755C23.6783 22.1212 24.2732 22.1944 24.8704 22.1935C25.4404 22.1935 25.8454 22.1208 26.1154 21.99C26.2358 21.9362 26.3379 21.8501 26.4096 21.742C26.4814 21.634 26.5198 21.5083 26.5204 21.3798C26.5204 21.1764 26.4004 20.9875 26.1604 20.7986C25.9204 20.6097 25.4254 20.3918 24.6904 20.1157C23.9364 19.8583 23.2203 19.5066 22.5604 19.0695C22.0904 18.745 21.7009 18.3231 21.4204 17.8345C21.181 17.3756 21.0625 16.8665 21.0754 16.3524C21.0776 15.7324 21.2539 15.1247 21.5854 14.5943C21.9664 14.011 22.5134 13.5468 23.1604 13.2576C23.8654 12.9089 24.7504 12.749 25.8154 12.749C26.4378 12.7492 27.0595 12.7929 27.6754 12.8798C28.1183 12.9378 28.5517 13.0501 28.9654 13.214C29.0313 13.2366 29.0852 13.2836 29.1154 13.3447C29.1327 13.4015 29.1428 13.46 29.1454 13.5191V15.8875C29.1456 15.9157 29.139 15.9436 29.1259 15.9689C29.1129 15.9941 29.0939 16.016 29.0704 16.0328C28.9831 16.0632 28.8877 16.0632 28.8004 16.0328Z" fill="#31A8FF"/>
</g>
<defs>
<clipPath id="clip0_1326_28974">
<rect width="36" height="34" fill="white" transform="translate(0 0.5)"/>
</clipPath>
</defs>
</svg>
