<svg width="16" height="16" viewBox="0 0 16 16" fill="none" xmlns="http://www.w3.org/2000/svg">
<path d="M8.00065 14.6673L8.66732 13.334V11.334H12.0007C12.1775 11.334 12.347 11.2637 12.4721 11.1387C12.5971 11.0137 12.6673 10.8441 12.6673 10.6673V9.60998C12.6673 9.25932 12.5247 8.91532 12.2767 8.66732L11.334 7.72465V5.33398C11.5108 5.33398 11.6804 5.26375 11.8054 5.13872C11.9304 5.0137 12.0007 4.84413 12.0007 4.66732V2.66732C12.0007 1.93198 11.4027 1.33398 10.6673 1.33398H5.33398C4.59865 1.33398 4.00065 1.93198 4.00065 2.66732V4.66732C4.00065 4.84413 4.07089 5.0137 4.19591 5.13872C4.32094 5.26375 4.49051 5.33398 4.66732 5.33398V7.72465L3.72465 8.66732C3.4752 8.91772 3.33479 9.25654 3.33398 9.60998V10.6673C3.33398 10.8441 3.40422 11.0137 3.52925 11.1387C3.65427 11.2637 3.82384 11.334 4.00065 11.334H7.33398V13.334L8.00065 14.6673ZM5.33398 2.66732H10.6673V4.00065H5.33398V2.66732ZM4.66732 9.60998L5.80532 8.47198C5.86735 8.41018 5.91654 8.33672 5.95006 8.25583C5.98358 8.17494 6.00078 8.08821 6.00065 8.00065V5.33398H10.0007V8.00065C10.0007 8.17798 10.0707 8.34732 10.196 8.47198L11.334 9.60998V10.0007H4.66732V9.60998Z" fill="#9E9E9E"/>
</svg>
