<svg width="20" height="20" viewBox="0 0 20 20" fill="none" xmlns="http://www.w3.org/2000/svg">
<path d="M9.99935 18.3337L10.8327 16.667V14.167H14.9993C15.2204 14.167 15.4323 14.0792 15.5886 13.9229C15.7449 13.7666 15.8327 13.5547 15.8327 13.3337V12.012C15.8327 11.5737 15.6543 11.1437 15.3443 10.8337L14.166 9.65533V6.66699C14.387 6.66699 14.599 6.5792 14.7553 6.42291C14.9116 6.26663 14.9993 6.05467 14.9993 5.83366V3.33366C14.9993 2.41449 14.2518 1.66699 13.3327 1.66699H6.66602C5.74685 1.66699 4.99935 2.41449 4.99935 3.33366V5.83366C4.99935 6.05467 5.08715 6.26663 5.24343 6.42291C5.39971 6.5792 5.61167 6.66699 5.83268 6.66699V9.65533L4.65435 10.8337C4.34254 11.1467 4.16702 11.5702 4.16602 12.012V13.3337C4.16602 13.5547 4.25381 13.7666 4.41009 13.9229C4.56637 14.0792 4.77834 14.167 4.99935 14.167H9.16602V16.667L9.99935 18.3337ZM6.66602 3.33366H13.3327V5.00033H6.66602V3.33366ZM5.83268 12.012L7.25518 10.5895C7.33272 10.5122 7.39421 10.4204 7.43611 10.3193C7.47802 10.2182 7.49951 10.1098 7.49935 10.0003V6.66699H12.4993V10.0003C12.4993 10.222 12.5868 10.4337 12.7435 10.5895L14.166 12.012V12.5003H5.83268V12.012Z" fill="white"/>
</svg>
