<svg width="82" height="23" viewBox="0 0 82 23" fill="none" xmlns="http://www.w3.org/2000/svg">
<g clip-path="url(#clip0_1371_102034)">
<path d="M9.1981 18.1449C8.79777 18.1449 8.47461 17.8147 8.47461 17.4057V5.59275C8.47461 5.18371 8.79777 4.85352 9.1981 4.85352C9.59844 4.85352 9.9216 5.18371 9.9216 5.59275V17.4106C9.9216 17.8147 9.59844 18.1449 9.1981 18.1449Z" fill="#680A83"/>
<path d="M5.40123 16.2984C5.0009 16.2984 4.67773 15.9682 4.67773 15.5591V7.44236C4.67773 7.03332 5.0009 6.70312 5.40123 6.70312C5.80156 6.70312 6.12472 7.03332 6.12472 7.44236V15.5641C6.12472 15.9682 5.80156 16.2984 5.40123 16.2984Z" fill="#680A83"/>
<path d="M54.7879 18.1449C54.3876 18.1449 54.0645 17.8147 54.0645 17.4057V5.59275C54.0645 5.18371 54.3876 4.85352 54.7879 4.85352C55.1883 4.85352 55.5114 5.18371 55.5114 5.59275V17.4106C55.5114 17.8147 55.1883 18.1449 54.7879 18.1449Z" fill="#680A83"/>
<path d="M50.9872 16.2984C50.5868 16.2984 50.2637 15.9682 50.2637 15.5591V7.44236C50.2637 7.03332 50.5868 6.70312 50.9872 6.70312C51.3875 6.70312 51.7107 7.03332 51.7107 7.44236V15.5641C51.7107 15.9682 51.3875 16.2984 50.9872 16.2984Z" fill="#680A83"/>
<path d="M58.5868 16.2984C58.1864 16.2984 57.8633 15.9682 57.8633 15.5591V7.44236C57.8633 7.03332 58.1864 6.70312 58.5868 6.70312C58.9871 6.70312 59.3103 7.03332 59.3103 7.44236V15.5641C59.3103 15.9682 58.9823 16.2984 58.5868 16.2984Z" fill="#680A83"/>
<path d="M62.3837 14.6418C61.9833 14.6418 61.6602 14.3116 61.6602 13.9026V9.10251C61.6602 8.69347 61.9833 8.36328 62.3837 8.36328C62.784 8.36328 63.1072 8.69347 63.1072 9.10251V13.9026C63.1072 14.3067 62.784 14.6418 62.3837 14.6418Z" fill="#680A83"/>
<path d="M69.8797 18.1449C69.4794 18.1449 69.1562 17.8147 69.1562 17.4057V5.59275C69.1562 5.18371 69.4794 4.85352 69.8797 4.85352C70.2801 4.85352 70.6032 5.18371 70.6032 5.59275V17.4106C70.6032 17.8147 70.2753 18.1449 69.8797 18.1449Z" fill="#680A83"/>
<path d="M66.079 16.2984C65.6786 16.2984 65.3555 15.9682 65.3555 15.5591V7.44236C65.3555 7.03332 65.6786 6.70312 66.079 6.70312C66.4793 6.70312 66.8025 7.03332 66.8025 7.44236V15.5641C66.8025 15.9682 66.4793 16.2984 66.079 16.2984Z" fill="#680A83"/>
<path d="M73.6747 16.2984C73.2743 16.2984 72.9512 15.9682 72.9512 15.5591V7.44236C72.9512 7.03332 73.2743 6.70312 73.6747 6.70312C74.075 6.70312 74.3982 7.03332 74.3982 7.44236V15.5641C74.3982 15.9682 74.075 16.2984 73.6747 16.2984Z" fill="#680A83"/>
<path d="M77.4754 14.6418C77.0751 14.6418 76.752 14.3116 76.752 13.9026V9.10251C76.752 8.69347 77.0751 8.36328 77.4754 8.36328C77.8758 8.36328 78.1989 8.69347 78.1989 9.10251V13.9026C78.1989 14.3067 77.8758 14.6418 77.4754 14.6418Z" fill="#680A83"/>
<path d="M80.9012 13.9668C80.5009 13.9668 80.1777 13.6366 80.1777 13.2276V10.5713C80.1777 10.1622 80.5009 9.83203 80.9012 9.83203C81.3016 9.83203 81.6247 10.1622 81.6247 10.5713V13.2276C81.6247 13.6366 81.3016 13.9668 80.9012 13.9668Z" fill="#680A83"/>
<path d="M24.3954 18.0673C23.995 18.0673 23.6719 17.7371 23.6719 17.3281V5.67283C23.6719 5.26378 23.995 4.93359 24.3954 4.93359C24.7957 4.93359 25.1189 5.26378 25.1189 5.67283V17.3281C25.1189 17.7371 24.7957 18.0673 24.3954 18.0673Z" fill="#680A83"/>
<path d="M12.9969 19.8999C12.5966 19.8999 12.2734 19.5697 12.2734 19.1607V3.83884C12.2734 3.4298 12.5966 3.09961 12.9969 3.09961C13.3973 3.09961 13.7204 3.4298 13.7204 3.83884V19.1607C13.7204 19.5697 13.3973 19.8999 12.9969 19.8999Z" fill="#680A83"/>
<path d="M16.7977 23C16.3974 23 16.0742 22.6698 16.0742 22.2608V0.739233C16.0742 0.330191 16.3974 0 16.7977 0C17.198 0 17.5212 0.330191 17.5212 0.739233V22.2608C17.5212 22.6698 17.1932 23 16.7977 23Z" fill="#680A83"/>
<path d="M20.5946 19.8999C20.1943 19.8999 19.8711 19.5697 19.8711 19.1607V3.83884C19.8711 3.4298 20.1943 3.09961 20.5946 3.09961C20.9949 3.09961 21.3181 3.4298 21.3181 3.83884V19.1607C21.3181 19.5697 20.9949 19.8999 20.5946 19.8999Z" fill="#680A83"/>
<path d="M31.993 18.1449C31.5927 18.1449 31.2695 17.8147 31.2695 17.4057V5.59275C31.2695 5.18371 31.5927 4.85352 31.993 4.85352C32.3934 4.85352 32.7165 5.18371 32.7165 5.59275V17.4106C32.7165 17.8147 32.3934 18.1449 31.993 18.1449Z" fill="#680A83"/>
<path d="M28.1922 16.2984C27.7919 16.2984 27.4688 15.9682 27.4688 15.5591V7.44236C27.4688 7.03332 27.7919 6.70312 28.1922 6.70312C28.5926 6.70312 28.9157 7.03332 28.9157 7.44236V15.5641C28.9157 15.9682 28.5926 16.2984 28.1922 16.2984Z" fill="#680A83"/>
<path d="M47.1903 18.0673C46.79 18.0673 46.4668 17.7371 46.4668 17.3281V5.67283C46.4668 5.26378 46.79 4.93359 47.1903 4.93359C47.5906 4.93359 47.9138 5.26378 47.9138 5.67283V17.3281C47.9138 17.7371 47.5858 18.0673 47.1903 18.0673Z" fill="#680A83"/>
<path d="M35.7938 19.8999C35.3935 19.8999 35.0703 19.5697 35.0703 19.1607V3.83884C35.0703 3.4298 35.3935 3.09961 35.7938 3.09961C36.1941 3.09961 36.5173 3.4298 36.5173 3.83884V19.1607C36.5173 19.5697 36.1893 19.8999 35.7938 19.8999Z" fill="#680A83"/>
<path d="M39.5887 23C39.1884 23 38.8652 22.6698 38.8652 22.2608V0.739233C38.8652 0.330191 39.1884 0 39.5887 0C39.9891 0 40.3122 0.330191 40.3122 0.739233V22.2608C40.3122 22.6698 39.9891 23 39.5887 23Z" fill="#680A83"/>
<path d="M43.3895 19.8999C42.9892 19.8999 42.666 19.5697 42.666 19.1607V3.83884C42.666 3.4298 42.9892 3.09961 43.3895 3.09961C43.7898 3.09961 44.113 3.4298 44.113 3.83884V19.1607C44.113 19.5697 43.7898 19.8999 43.3895 19.8999Z" fill="#680A83"/>
<path d="M1.60045 15.1204C1.20011 15.1204 0.876953 14.7902 0.876953 14.3812V8.62009C0.876953 8.21105 1.20011 7.88086 1.60045 7.88086C2.00078 7.88086 2.32394 8.21105 2.32394 8.62009V14.3812C2.32394 14.7902 2.00078 15.1204 1.60045 15.1204Z" fill="#680A83"/>
</g>
<defs>
<clipPath id="clip0_1371_102034">
<rect width="80.7469" height="23" fill="white" transform="translate(0.876953)"/>
</clipPath>
</defs>
</svg>
