<svg width="20" height="20" viewBox="0 0 20 20" fill="none" xmlns="http://www.w3.org/2000/svg">
<path d="M4.58269 12.4993C5.31193 12.4952 6.01333 12.2188 6.54935 11.7243L11.766 14.7077C11.6996 14.9379 11.6659 15.1764 11.666 15.416C11.6607 16.0923 11.8885 16.7498 12.3112 17.2777C12.7338 17.8057 13.3255 18.1719 13.9866 18.3147C14.6476 18.4574 15.3377 18.3681 15.9406 18.0616C16.5435 17.7551 17.0224 17.2503 17.2966 16.6321C17.5708 16.0139 17.6236 15.32 17.4462 14.6674C17.2687 14.0148 16.8718 13.4433 16.3223 13.0491C15.7728 12.6548 15.1042 12.462 14.4291 12.503C13.7541 12.5441 13.1138 12.8165 12.616 13.2743L7.39935 10.291C7.46231 10.0856 7.49597 9.87243 7.49935 9.65767L12.6244 6.72433C13.1194 7.1717 13.7532 7.43524 14.4195 7.47075C15.0858 7.50626 15.7441 7.31159 16.2839 6.91938C16.8237 6.52717 17.2122 5.96127 17.3843 5.3166C17.5563 4.67193 17.5015 3.9877 17.229 3.37865C16.9565 2.7696 16.4828 2.27279 15.8874 1.97152C15.2921 1.67026 14.6112 1.58288 13.9591 1.72402C13.3069 1.86517 12.7232 2.22626 12.3057 2.74674C11.8882 3.26722 11.6623 3.91544 11.666 4.58267C11.6688 4.82209 11.7024 5.06016 11.766 5.291L7.02435 7.99934C6.74961 7.5743 6.369 7.22807 5.91992 6.99467C5.47085 6.76128 4.96877 6.64875 4.46304 6.66816C3.95731 6.68756 3.46533 6.83823 3.03546 7.10535C2.60559 7.37247 2.25263 7.74685 2.01126 8.19169C1.7699 8.63652 1.64843 9.13651 1.65882 9.64251C1.6692 10.1485 1.81107 10.6431 2.07048 11.0777C2.32989 11.5122 2.69791 11.8718 3.13838 12.1211C3.57884 12.3703 4.07659 12.5007 4.58269 12.4993ZM14.5827 14.166C14.8299 14.166 15.0716 14.2393 15.2772 14.3767C15.4827 14.514 15.6429 14.7092 15.7375 14.9376C15.8321 15.1661 15.8569 15.4174 15.8087 15.6599C15.7604 15.9023 15.6414 16.1251 15.4666 16.2999C15.2918 16.4747 15.069 16.5938 14.8265 16.642C14.5841 16.6902 14.3327 16.6655 14.1043 16.5709C13.8759 16.4762 13.6807 16.316 13.5434 16.1105C13.406 15.9049 13.3327 15.6632 13.3327 15.416C13.3327 15.0845 13.4644 14.7665 13.6988 14.5321C13.9332 14.2977 14.2512 14.166 14.5827 14.166ZM14.5827 3.33267C14.8299 3.33267 15.0716 3.40598 15.2772 3.54333C15.4827 3.68068 15.6429 3.87591 15.7375 4.10431C15.8321 4.33272 15.8569 4.58405 15.8087 4.82653C15.7604 5.06901 15.6414 5.29174 15.4666 5.46655C15.2918 5.64137 15.069 5.76042 14.8265 5.80865C14.5841 5.85688 14.3327 5.83213 14.1043 5.73752C13.8759 5.64291 13.6807 5.48269 13.5434 5.27713C13.406 5.07157 13.3327 4.82989 13.3327 4.58267C13.3327 4.25115 13.4644 3.93321 13.6988 3.69878C13.9332 3.46436 14.2512 3.33267 14.5827 3.33267ZM4.58269 8.33267C4.82991 8.33267 5.07159 8.40598 5.27715 8.54333C5.48271 8.68068 5.64293 8.87591 5.73754 9.10431C5.83215 9.33272 5.8569 9.58405 5.80867 9.82653C5.76044 10.069 5.64139 10.2917 5.46657 10.4666C5.29175 10.6414 5.06903 10.7604 4.82655 10.8087C4.58407 10.8569 4.33274 10.8321 4.10433 10.7375C3.87592 10.6429 3.6807 10.4827 3.54335 10.2771C3.406 10.0716 3.33269 9.8299 3.33269 9.58267C3.33269 9.25115 3.46438 8.9332 3.6988 8.69878C3.93322 8.46436 4.25117 8.33267 4.58269 8.33267Z" fill="white"/>
</svg>
