<svg width="50" height="50" viewBox="0 0 50 50" fill="none" xmlns="http://www.w3.org/2000/svg">
<g clip-path="url(#clip0_1209_90264)">
<path d="M49.9792 21.0492C49.5716 18.88 47.8242 17.4542 45.082 17.4659C31.7591 17.5245 18.4349 17.4919 5.11198 17.4919C2.05208 17.4919 0.992187 18.2393 0 21.0935V28.906C0.985677 31.7537 2.05599 32.5076 5.11198 32.5076C18.4518 32.5076 31.7917 32.4776 45.1302 32.531C47.7956 32.5427 49.5677 31.1378 49.9779 28.949C49.9805 28.9346 49.9922 28.9203 50 28.906V21.0935C49.9935 21.0792 49.9818 21.0649 49.9792 21.0492ZM48.3359 28.1443C48.332 29.781 47.2878 30.8396 45.6523 30.8396C31.8854 30.8422 18.1198 30.8422 4.35417 30.8396C2.71354 30.8396 1.66797 29.7849 1.66406 28.1508C1.66016 26.0844 1.66276 24.018 1.66406 21.9516C1.66536 20.1807 2.67969 19.1586 4.44401 19.1586C11.2956 19.1573 18.1458 19.1586 24.9961 19.1586C31.8138 19.1586 38.6328 19.1573 45.4505 19.1586C47.3529 19.1586 48.3359 20.1404 48.3359 22.0427C48.3372 24.0766 48.3398 26.1104 48.3359 28.1443Z" fill="#680A83"/>
<path d="M49.7552 2.78646C49.2526 1.44141 48.3125 0.558594 46.931 0.152344C46.7799 0.108073 46.6328 0.0507813 46.4844 0H3.51562C2.82943 0.33724 2.09115 0.60026 1.46875 1.02865C0.623698 1.61068 0.272135 2.55599 0 3.51563V11.4258C0.253906 12.4375 0.673177 13.3529 1.50391 14.0339C2.3763 14.75 3.38672 15.0104 4.4974 15.0104C11.8372 15.0039 19.1758 15.0065 26.5143 15.0065C32.8607 15.0065 39.207 15.0091 45.5534 15.0052C47.6029 15.0039 49.1823 13.9362 49.7773 12.1641C49.8594 11.9206 49.9258 11.6719 50 11.4258V3.61328C49.9193 3.33724 49.8555 3.05469 49.7552 2.78646ZM48.3359 10.5977C48.3333 12.306 47.3177 13.3307 45.6016 13.3333C41.7122 13.3411 37.8229 13.3359 33.9336 13.3359C24.138 13.3359 14.3424 13.3411 4.54687 13.3229C4.01302 13.3216 3.43229 13.2135 2.95443 12.987C2.11068 12.5872 1.68359 11.8216 1.67318 10.8932C1.64974 8.63151 1.64714 6.36849 1.67318 4.10677C1.6875 2.70833 2.80469 1.67057 4.2513 1.66667C7.42448 1.65885 10.5977 1.66406 13.7708 1.66406H24.9987C31.8333 1.66406 38.6667 1.66276 45.5013 1.66406C47.3385 1.66406 48.3359 2.66016 48.3359 4.49609C48.3372 6.52995 48.3385 8.5638 48.3359 10.5977Z" fill="#680A83"/>
<path d="M42.3435 40.9684C41.5649 37.3916 38.5571 34.9996 34.8045 34.9957C28.3787 34.9879 21.9529 34.9918 15.5271 34.9957C15.0883 34.9957 14.6482 35.014 14.212 35.0504C10.1052 35.385 6.91904 39.441 7.56878 43.5009C8.19248 47.402 11.2341 49.9957 15.1951 49.9996C18.4646 50.0009 21.7341 49.9996 25.0037 49.9996C28.3552 49.9996 31.7068 49.9996 35.0571 49.9983C35.1065 49.9983 35.1547 49.997 35.2042 49.997C39.8344 49.9059 43.3266 45.4892 42.3435 40.9684ZM35.0558 48.3291C31.2328 48.3551 27.4099 48.3356 23.587 48.3356C20.7237 48.3356 17.8591 48.3694 14.9972 48.3252C12.6326 48.2887 10.8357 47.191 9.78623 45.0699C8.73545 42.9462 8.9607 40.8564 10.3826 38.9619C11.5753 37.372 13.2328 36.6598 15.212 36.6624C18.4815 36.6663 21.7511 36.6637 25.0219 36.6637C28.2914 36.6637 31.561 36.6546 34.8305 36.6663C37.8396 36.6767 40.2315 38.635 40.7341 41.4671C41.3657 45.027 38.6729 48.3043 35.0558 48.3291Z" fill="#AD83C5"/>
<path d="M15.0051 23.5207C14.9894 21.854 13.9517 20.8332 12.272 20.8254C11.2485 20.8215 10.2238 20.8254 9.19907 20.8254C8.10923 20.8254 7.02068 20.8124 5.93084 20.828C4.38266 20.8501 3.33969 21.9087 3.32928 23.4543C3.32147 24.4621 3.32407 25.4699 3.32798 26.4777C3.33449 28.1132 4.37485 29.1652 6.01157 29.1718C8.10792 29.1822 10.2056 29.1809 12.3032 29.1731C13.9504 29.1665 14.9881 28.1353 15.0038 26.496C15.0142 25.5038 15.0129 24.5116 15.0051 23.5207ZM6.84881 22.5168H11.4855C11.5064 22.5468 11.5259 22.5767 11.5467 22.6066C10.8514 23.1079 10.1756 23.6392 9.44907 24.091C9.27329 24.1991 8.88006 24.1275 8.67954 23.996C8.03501 23.5702 7.43475 23.078 6.81626 22.6119C6.82798 22.5806 6.83839 22.5481 6.84881 22.5168ZM13.2837 26.8514C13.2655 27.2955 12.8814 27.5025 12.2915 27.5051C10.5337 27.509 8.77589 27.5064 7.01808 27.5064C6.62745 27.5064 6.23553 27.522 5.84751 27.496C5.33058 27.4621 5.01287 27.1665 5.00245 26.6626C4.98032 25.5936 4.99594 24.522 4.99594 23.3801C5.16912 23.4869 5.29152 23.552 5.40219 23.634C6.11964 24.1691 6.83188 24.7095 7.54933 25.2447C8.58709 26.0181 9.71079 26.0324 10.7525 25.272C11.4621 24.7551 12.1587 24.2186 12.8618 23.6926C12.9868 23.5988 13.117 23.5129 13.298 23.3866C13.298 24.5884 13.328 25.7212 13.2837 26.8514Z" fill="#AD83C5"/>
<path d="M44.9993 26.6797C44.9889 27.2383 44.5826 27.5065 43.7441 27.5065C35.4133 27.5065 27.0826 27.5065 18.7506 27.5052C18.5409 27.5039 18.3248 27.5026 18.123 27.4531C17.7011 27.3516 17.4876 27.043 17.5071 26.6289C17.5279 26.2161 17.7636 25.9284 18.1946 25.8633C18.386 25.8333 18.5839 25.8372 18.7779 25.8372C22.9277 25.8359 27.0774 25.8359 31.2258 25.8359C35.4081 25.8359 39.5891 25.8359 43.7714 25.8372C44.6034 25.8372 45.011 26.1185 44.9993 26.6797Z" fill="#680A83"/>
<path d="M23.3301 23.3311C23.3327 23.818 22.972 24.1488 22.39 24.1592C21.7246 24.1722 21.0592 24.1631 20.3939 24.1631C19.7441 24.1631 19.0944 24.1722 18.446 24.1605C17.8626 24.1488 17.4993 23.8193 17.498 23.335C17.498 22.8545 17.8678 22.5042 18.4421 22.499C19.7559 22.486 21.071 22.486 22.3861 22.499C22.9681 22.5042 23.3288 22.8441 23.3301 23.3311Z" fill="#680A83"/>
<path d="M44.9884 9.22656C44.9558 9.63802 44.7123 9.91797 44.2801 9.97396C44.0886 9.9987 43.8907 9.99219 43.6954 9.99219C39.5301 9.99349 35.3647 9.99349 31.1993 9.99349H18.7032C17.8998 9.99349 17.5066 9.72396 17.5001 9.17578C17.4923 8.61328 17.9077 8.32552 18.7306 8.32552C27.0769 8.32552 35.4246 8.32422 43.7722 8.32682C43.9819 8.32813 44.1993 8.33073 44.3998 8.38542C44.8165 8.4974 45.0222 8.8125 44.9884 9.22656Z" fill="#680A83"/>
<path d="M11.5488 7.69779C11.4277 7.57409 11.2598 7.49727 11.1504 7.42305C11.9173 5.92956 11.7533 4.71863 10.7546 3.90352C9.83269 3.15092 8.51889 3.1431 7.60092 3.88659C6.5853 4.70951 6.41863 5.90743 7.14519 7.35404C6.31316 8.05326 5.84311 8.91003 5.84571 9.99206C5.84832 10.8892 6.47202 11.6093 7.36915 11.6405C8.57097 11.6822 9.7767 11.6822 10.9785 11.6392C11.8652 11.6066 12.5059 10.8697 12.4955 9.97904C12.4863 9.09753 12.1699 8.328 11.5488 7.69779ZM9.1517 4.99857C9.60743 4.98946 9.98504 5.36576 9.98504 5.8293C9.98634 6.28633 9.65561 6.63399 9.20379 6.65222C8.74025 6.67045 8.35222 6.31498 8.3353 5.85665C8.31967 5.41003 8.70248 5.00769 9.1517 4.99857ZM7.56837 9.96993C7.49025 9.13139 8.17514 8.39831 9.07618 8.33321C9.98373 8.2668 10.7415 8.96472 10.8093 9.96993H7.56837Z" fill="#AD83C5"/>
<path d="M23.3311 5.86035C23.3128 6.33431 22.9613 6.64681 22.4079 6.65462C21.7425 6.66504 21.0772 6.65723 20.4118 6.65723C19.7464 6.65723 19.0811 6.66504 18.4157 6.65462C17.8714 6.64681 17.512 6.32129 17.5003 5.85124C17.4873 5.36947 17.8636 5.00228 18.4248 4.99707C19.7555 4.98535 21.0876 4.98535 22.4183 4.99707C22.973 5.00228 23.3493 5.37988 23.3311 5.86035Z" fill="#680A83"/>
<path d="M29.7485 40.5859C29.6704 40.668 29.5766 40.7344 29.4868 40.8034C27.4061 42.3646 25.3266 43.9271 23.2433 45.4857C22.5753 45.9857 22.2811 45.957 21.6847 45.362C21.2368 44.914 20.7837 44.47 20.341 44.0156C19.9347 43.5989 19.9074 43.1198 20.255 42.7643C20.6079 42.4049 21.0792 42.4271 21.5063 42.8307C21.6834 42.9987 21.8592 43.1693 22.0232 43.3489C22.186 43.5299 22.3344 43.7226 22.518 43.9453C24.518 42.4453 26.4165 41.0208 28.3149 39.5976C28.4568 39.4909 28.5962 39.375 28.7511 39.2877C29.1391 39.0677 29.5805 39.1667 29.8344 39.5156C30.0727 39.8424 30.0415 40.2786 29.7485 40.5859Z" fill="#AD83C5"/>
</g>
<defs>
<clipPath id="clip0_1209_90264">
<rect width="50" height="50" fill="white"/>
</clipPath>
</defs>
</svg>
