<svg width="48" height="49" viewBox="0 0 48 49" fill="none" xmlns="http://www.w3.org/2000/svg">
<path d="M24 0.5C17.9201 0.5 12.0668 2.80754 7.62245 6.95646C3.17814 11.1054 0.474129 16.7865 0.0566467 22.852C-0.360836 28.9176 1.53933 34.9156 5.37329 39.6343C9.20725 44.353 14.6892 47.4407 20.7118 48.2737L21.1278 45.2663C15.867 44.5387 11.0785 41.8416 7.72957 37.7198C4.3806 33.598 2.72081 28.3588 3.08548 23.0605C3.45015 17.7622 5.81211 12.7998 9.69421 9.17572C13.5763 5.55163 18.6892 3.536 24 3.536V0.5Z" fill="#1BA345"/>
<path d="M27.183 0.71201C33.1797 1.51441 38.6521 4.55209 42.5048 9.21699C46.3576 13.8819 48.3062 19.8298 47.9609 25.8701C47.6155 31.9104 45.0015 37.5974 40.6422 41.7927C36.2828 45.988 30.4998 48.3821 24.4507 48.4958L24.3937 45.4603C29.6776 45.361 34.7291 43.2698 38.5369 39.6052C42.3448 35.9406 44.6281 30.973 44.9298 25.6968C45.2315 20.4206 43.5293 15.2251 40.164 11.1503C36.7987 7.0755 32.0185 4.42209 26.7804 3.72119L27.183 0.71201Z" fill="#1BA345"/>
</svg>
