<svg width="18" height="18" viewBox="0 0 18 18" fill="none" xmlns="http://www.w3.org/2000/svg">
<path d="M16.347 7.4865C15.6367 4.01775 12.5468 1.5 9 1.5C4.8645 1.5 1.5 4.8645 1.5 9C1.5 12.5468 4.01775 15.6367 7.4865 16.347C7.60801 16.3728 7.73406 16.3676 7.85306 16.332C7.97206 16.2964 8.08019 16.2314 8.1675 16.143L16.1423 8.16825C16.3208 7.98975 16.3972 7.73475 16.347 7.4865ZM8.25 13.5C8.24656 12.3048 8.60331 11.1362 9.27375 10.1468C9.48979 9.82788 9.73537 9.53007 10.0072 9.25725C10.2797 8.98581 10.577 8.74048 10.8953 8.5245C11.2169 8.30798 11.5584 8.12264 11.9152 7.971C12.276 7.81875 12.6548 7.701 13.041 7.6215C13.5765 7.51512 14.1239 7.48132 14.6685 7.521L8.27175 13.9177C8.262 13.779 8.25 13.6403 8.25 13.5ZM3 9C3 5.69175 5.69175 3 9 3C11.1818 3 13.146 4.19175 14.1968 6.00375C13.7073 6.00553 13.2192 6.05527 12.7395 6.15225C12.2572 6.25125 11.784 6.39825 11.3302 6.5895C10.8844 6.77918 10.4578 7.01098 10.056 7.28175C9.65625 7.5525 9.2835 7.86 8.94675 8.19675C8.61 8.5335 8.30325 8.9055 8.031 9.30675C7.76175 9.7065 7.5285 10.1348 7.3395 10.5802C6.95002 11.5044 6.74958 12.4972 6.75 13.5C6.75 13.8682 6.786 14.2343 6.83925 14.5958C4.56675 13.716 3 11.502 3 9Z" fill="#616161"/>
</svg>
