<svg width="251" height="251" viewBox="0 0 251 251" fill="none" xmlns="http://www.w3.org/2000/svg">
<g clip-path="url(#clip0_1832_167481)">
<path d="M231.456 150.078V176.252C231.456 180.985 227.618 184.824 222.884 184.824H129.033C124.3 184.824 120.461 180.985 120.461 176.252V154.133L108.779 141.858L222.86 141.5C227.599 141.488 231.456 145.333 231.456 150.078Z" fill="#343637"/>
<path d="M134.297 157.361L219.453 156.966L219.447 154.35L134.285 154.745L134.297 157.361Z" fill="#9E9E9E"/>
<path d="M134.297 165.97L219.453 165.582L219.447 162.965L134.285 163.354L134.297 165.97Z" fill="#9E9E9E"/>
<path d="M167.982 171.586L134.287 171.752L134.3 174.369L167.995 174.203L167.982 171.586Z" fill="#9E9E9E"/>
<path d="M65.1367 0H120.492C123.232 0 125.454 2.22173 125.454 4.96186V32.0361C125.454 34.7763 123.232 36.998 120.492 36.998H73.5233C70.7833 36.998 68.5617 34.7763 68.5617 32.0361V3.419L65.1367 0Z" fill="#343637"/>
<path d="M134.68 49.2853V59.0054C134.68 60.3693 135.784 61.474 137.148 61.474H191.491C192.855 61.474 193.96 60.3693 193.96 59.0054V53.6917L200.199 47.0142L137.154 46.8105C135.79 46.8105 134.68 47.9214 134.68 49.2853Z" fill="#4E5072" fill-opacity="0.3"/>
<path d="M98.0407 29.9379V47.2982C98.0407 50.4395 95.492 52.9883 92.3509 52.9883H30.1146C26.9735 52.9883 24.4248 50.4395 24.4248 47.2982V32.6348L16.6738 24.4885L92.3385 24.254C95.4858 24.2416 98.0407 26.7904 98.0407 29.9379Z" fill="#343637"/>
<path d="M33.6019 34.7707L90.0866 34.5115L90.0804 32.7773L33.5957 33.0365L33.6019 34.7707Z" fill="#4E5072" fill-opacity="0.3"/>
<path d="M33.6019 40.4859L90.0866 40.2205L90.0804 38.4863L33.5957 38.7455L33.6019 40.4859Z" fill="#4E5072" fill-opacity="0.3"/>
<path d="M55.9376 44.2064L33.5918 44.3164L33.6003 46.0506L55.9461 45.9406L55.9376 44.2064Z" fill="#4E5072" fill-opacity="0.3"/>
<path d="M6.30664 87.2268V113.4C6.30664 118.134 10.1451 121.972 14.8784 121.972H108.723C113.457 121.972 117.295 118.134 117.295 113.4V91.2815L128.977 79.0064L14.8969 78.6484C10.1575 78.6423 6.30664 82.4809 6.30664 87.2268Z" fill="#4E5072" fill-opacity="0.3"/>
<path d="M103.465 94.5094L18.3086 94.1206L18.3148 91.5039L103.477 91.8927L103.465 94.5094Z" fill="#9E9E9E"/>
<path d="M103.465 103.125L18.3086 102.73L18.3148 100.113L103.477 100.508L103.465 103.125Z" fill="#9E9E9E"/>
<path d="M69.7824 108.735L69.7695 111.352L103.464 111.517L103.477 108.901L69.7824 108.735Z" fill="#9E9E9E"/>
<path d="M190.53 25.5379C193.112 19.7966 190.552 13.0489 184.811 10.4665C179.07 7.88418 172.322 10.4451 169.74 16.1864C167.158 21.9278 169.719 28.6754 175.46 31.2578C181.201 33.8401 187.948 31.2793 190.53 25.5379Z" fill="#343637"/>
<path d="M176.206 17.9942C176.638 17.9572 177.027 18.4324 177.082 19.0557C177.132 19.679 176.823 20.2159 176.391 20.2468C175.959 20.2838 175.57 19.8086 175.515 19.1853C175.466 18.562 175.774 18.0251 176.206 17.9942Z" fill="#343637"/>
<path d="M177.206 15.106C177.2 15.2047 176.243 15.1121 175.176 15.5195C174.102 15.9083 173.436 16.5933 173.361 16.5254C173.287 16.4822 173.898 15.6367 175.059 15.2109C176.225 14.7789 177.237 15.0257 177.206 15.106Z" fill="#343637"/>
<path d="M183.45 17.8462C183.018 17.8277 182.647 18.3214 182.617 18.9447C182.592 19.568 182.919 20.0926 183.357 20.1111C183.789 20.1297 184.159 19.6359 184.19 19.0126C184.215 18.3831 183.882 17.8586 183.45 17.8462Z" fill="#343637"/>
<path d="M182.327 15.0017C182.296 14.9214 183.296 14.6314 184.474 15.0202C185.653 15.3966 186.295 16.2175 186.227 16.2607C186.159 16.3347 185.468 15.6744 184.376 15.3288C183.29 14.9708 182.339 15.1004 182.327 15.0017Z" fill="#343637"/>
<path d="M185.758 20.7483C185.777 20.7483 185.764 20.9705 185.678 21.3593C185.592 21.7481 185.394 22.2974 185.018 22.9083C184.641 23.5193 184.067 24.1673 183.277 24.7042C182.494 25.2412 181.488 25.6423 180.383 25.7102C179.279 25.7596 178.229 25.4633 177.396 25.0128C176.557 24.5623 175.915 23.9698 175.483 23.4021C175.045 22.8343 174.792 22.3097 174.662 21.9333C174.533 21.5568 174.502 21.3408 174.521 21.3346C174.588 21.3038 174.767 22.1925 175.662 23.2539C176.1 23.7785 176.736 24.3278 177.538 24.7413C178.341 25.1609 179.328 25.4263 180.365 25.3769C181.401 25.3152 182.358 24.9449 183.111 24.4512C183.87 23.9513 184.438 23.3465 184.82 22.7787C185.604 21.6308 185.69 20.7298 185.758 20.7483Z" fill="#343637"/>
<path d="M23.5176 148.973H25.1653L28.7692 144.172V141.018C28.7692 141.018 31.3179 140.87 31.0217 144.993C30.7193 149.121 31.0464 148.066 31.0464 148.066C31.0464 148.066 36.4647 148.085 36.9152 148.535C37.2423 148.862 37.3904 154.009 37.4459 156.799C37.4768 158.206 36.5758 159.508 35.2058 159.841C35.0145 159.891 34.817 159.915 34.6257 159.915C33.2742 159.915 26.3748 158.866 26.3748 158.866H23.5237V148.973H23.5176Z" fill="#4E5072" fill-opacity="0.3"/>
<path d="M18.7969 148.109L19.8089 158.903H22.6353V148.325L18.7969 148.109Z" fill="#4E5072" fill-opacity="0.3"/>
<path d="M250.413 55.1364C249.641 54.2168 248.253 54.2539 247.358 54.9883C246.469 55.7289 246.081 56.562 245.97 57.8086C245.698 56.5929 245.13 55.8153 244.143 55.2043C243.155 54.5871 241.761 54.7414 241.113 55.7535C240.736 56.346 240.656 57.1421 240.804 57.858C240.946 58.5801 241.199 59.3145 241.681 59.8267C243.39 61.6473 244.272 61.9312 246.389 63.1655C248.315 61.6658 248.938 61.2832 250.382 59.2589C250.789 58.6912 250.943 57.9259 250.987 57.1915C251.036 56.4571 250.863 55.6795 250.413 55.1364Z" fill="#4E5072" fill-opacity="0.3"/>
<path d="M148.713 221.648L84.4831 221.352C76.7568 221.315 70.5239 215.026 70.5548 207.3L71.2336 46.2673C71.2645 38.5406 77.5591 32.3013 85.2916 32.3321L149.521 32.6284C157.247 32.6654 163.48 38.9541 163.449 46.6808L162.771 207.713C162.74 215.44 156.445 221.679 148.713 221.648Z" fill="#263238"/>
<path d="M149.434 38.1886L136.98 38.1331C135.308 38.1269 133.95 39.534 133.944 41.2805L133.932 43.5393C133.926 45.2858 132.562 46.6929 130.896 46.6867L106.624 46.5756C104.952 46.5695 103.607 45.1439 103.613 43.3973L103.625 41.1386C103.631 39.392 102.286 37.9726 100.614 37.9664L96.2321 37.9479L85.3338 37.8985C79.9217 37.8739 75.5155 42.2433 75.4908 47.6556L74.8243 204.831C74.7996 210.243 79.1688 214.65 84.5748 214.674L148.675 214.97C154.087 214.995 158.493 210.626 158.518 205.213L159.184 48.0383C159.209 42.6197 154.84 38.2133 149.434 38.1886Z" fill="#1C1D1E"/>
<path d="M114.196 195.129C114.196 195.869 113.592 196.474 112.851 196.474C112.111 196.474 111.506 195.869 111.506 195.129C111.506 194.388 112.111 193.783 112.851 193.783C113.592 193.783 114.196 194.382 114.196 195.129Z" fill="#455A64"/>
<path d="M119.306 195.129C119.306 195.869 118.701 196.474 117.961 196.474C117.22 196.474 116.615 195.869 116.615 195.129C116.615 194.388 117.22 193.783 117.961 193.783C118.701 193.783 119.306 194.382 119.306 195.129Z" fill="#455A64"/>
<path d="M124.415 195.129C124.415 195.869 123.81 196.474 123.07 196.474C122.329 196.474 121.725 195.869 121.725 195.129C121.725 194.388 122.329 193.783 123.07 193.783C123.817 193.783 124.415 194.382 124.415 195.129Z" fill="#455A64"/>
<path d="M87.4276 82.0369C87.4276 82.0369 87.4214 81.9197 87.4276 81.6913C87.4337 81.463 87.4769 81.1235 87.5942 80.6915C87.7238 80.2657 87.9336 79.7473 88.3285 79.2166C88.7173 78.692 89.2851 78.1489 90.0688 77.7848C90.834 77.3775 91.8338 77.2849 92.8582 77.3219C93.8949 77.3219 95.0243 77.3219 96.24 77.3219C98.6714 77.3219 101.448 77.3219 104.534 77.3281C116.889 77.3528 134.168 77.3898 153.891 77.4268H154.255L154.002 77.6922C151.99 79.809 149.849 82.0616 147.677 84.3451L147.72 84.234C147.72 86.3446 147.72 88.6034 147.72 90.8806C147.72 92.3495 147.72 93.8059 147.72 95.2562C147.714 95.9659 147.763 96.725 147.553 97.4471C147.368 98.1692 147.01 98.8418 146.517 99.3911C146.029 99.9404 145.418 100.391 144.739 100.662C144.067 100.946 143.314 101.039 142.604 101.02C141.197 101.02 139.802 101.02 138.42 101.02C132.891 101.014 127.553 101.014 122.474 101.008C112.31 100.996 103.158 100.983 95.4686 100.971C94.5059 100.971 93.5679 100.965 92.6545 100.965C91.7535 100.996 90.797 100.903 90.0133 100.49C88.4026 99.7244 87.4275 98.0951 87.3473 96.5461C87.3226 93.4788 87.3535 90.8621 87.3597 88.7083C87.372 86.5668 87.3844 84.9005 87.3905 83.7588C87.3967 83.1972 87.4029 82.7713 87.409 82.4689C87.4214 82.185 87.4276 82.0369 87.4276 82.0369C87.4276 82.0369 87.4399 82.185 87.4461 82.4751C87.4522 82.7775 87.4522 83.2033 87.4646 83.7649C87.4707 84.9067 87.4831 86.573 87.4954 88.7145C87.5139 90.8621 87.4954 93.4973 87.5386 96.5399C87.6189 98.0334 88.5692 99.5824 90.112 100.311C90.8772 100.706 91.7535 100.786 92.6669 100.755C93.5802 100.755 94.5182 100.749 95.4809 100.749C103.17 100.736 112.322 100.73 122.486 100.712C127.571 100.712 132.903 100.706 138.432 100.699C139.815 100.699 141.209 100.699 142.616 100.699C143.314 100.712 143.993 100.625 144.628 100.36C145.264 100.101 145.832 99.6873 146.288 99.1689C146.751 98.6567 147.084 98.0272 147.257 97.3545C147.448 96.688 147.405 95.9721 147.411 95.2439C147.411 93.7936 147.411 92.3371 147.411 90.8683C147.411 88.591 147.411 86.3384 147.411 84.2216V84.1599L147.455 84.1105C149.633 81.8271 151.774 79.5745 153.786 77.4577L153.897 77.7231C134.174 77.6367 116.895 77.5688 104.54 77.5132C101.455 77.4947 98.6776 77.4762 96.2462 77.4639C95.0304 77.4577 93.9011 77.4453 92.8644 77.4392C91.8276 77.396 90.8834 77.4762 90.1244 77.865C89.3591 78.2168 88.7976 78.7352 88.4026 79.2474C88.0076 79.7597 87.7916 80.2719 87.6559 80.6854C87.409 81.5679 87.4584 82.0431 87.4276 82.0369Z" fill="#455A64"/>
<path d="M140.073 85.987L93.9316 85.771L93.9378 84.3516L140.08 84.5676L140.073 85.987Z" fill="#455A64"/>
<path d="M140.073 90.653L93.9316 90.437L93.9378 89.0176L140.08 89.2336L140.073 90.653Z" fill="#455A64"/>
<path d="M121.823 93.6899L121.816 95.1094L140.071 95.1992L140.078 93.7797L121.823 93.6899Z" fill="#455A64"/>
<path d="M150.163 113.29V127.472C150.163 130.039 148.084 132.119 145.516 132.119H94.666C92.0988 132.119 90.0191 130.039 90.0191 127.472V115.487L83.6875 108.834L145.498 108.643C148.071 108.636 150.163 110.722 150.163 113.29Z" fill="#680A83"/>
<path d="M97.5179 117.239L143.66 117.023L143.654 115.604L97.5117 115.82L97.5179 117.239Z" fill="#1C1D1E"/>
<path d="M97.5179 121.905L143.66 121.689L143.654 120.27L97.5117 120.486L97.5179 121.905Z" fill="#1C1D1E"/>
<path d="M115.77 124.947L97.5156 125.037L97.5226 126.457L115.777 126.367L115.77 124.947Z" fill="#1C1D1E"/>
<path d="M122.48 58.9622C123.344 58.5981 123.961 57.7094 123.967 56.6541C123.973 55.2778 122.93 54.1546 121.64 54.1485C120.35 54.1423 119.295 55.2532 119.289 56.6294C119.283 57.6909 119.906 58.5919 120.776 58.956C117.179 59.4991 117.339 63.4118 117.339 63.4118L125.849 63.4489C125.855 63.455 126.046 59.4991 122.48 58.9622Z" fill="#680A83"/>
<path opacity="0.5" d="M122.48 58.9622C123.344 58.5981 123.961 57.7094 123.967 56.6541C123.973 55.2778 122.93 54.1546 121.64 54.1485C120.35 54.1423 119.295 55.2532 119.289 56.6294C119.283 57.6909 119.906 58.5919 120.776 58.956C117.179 59.4991 117.339 63.4118 117.339 63.4118L125.849 63.4489C125.855 63.455 126.046 59.4991 122.48 58.9622Z" fill="#1C1D1E"/>
<path d="M117.808 58.9622C118.672 58.5981 119.289 57.7094 119.295 56.6541C119.301 55.2778 118.258 54.1546 116.968 54.1485C115.679 54.1423 114.623 55.2532 114.617 56.6294C114.611 57.6909 115.234 58.5919 116.104 58.956C112.507 59.4991 112.667 63.4118 112.667 63.4118L121.177 63.4489C121.183 63.455 121.375 59.4991 117.808 58.9622Z" fill="#680A83"/>
<path d="M130.812 65.219L107.936 65.1133L107.922 67.9522L130.799 68.0579L130.812 65.219Z" fill="#680A83"/>
<path opacity="0.3" d="M130.812 65.219L107.936 65.1133L107.922 67.9522L130.799 68.0579L130.812 65.219Z" fill="#1C1D1E"/>
<path d="M88.5008 145.61C88.5008 145.61 88.4884 145.493 88.5131 145.271C88.5378 145.049 88.6057 144.709 88.8279 144.333C89.0438 143.956 89.4388 143.531 90.0374 143.278C90.6483 143 91.4136 143.111 92.2343 143.086C95.5668 143.086 100.386 143.086 106.385 143.08C118.4 143.105 135.13 143.142 154.026 143.179H154.39L154.137 143.444C152.144 145.58 150.034 147.832 147.898 150.122L147.941 150.011C147.941 150.177 147.941 150.356 147.941 150.541C147.941 151.862 147.941 153.177 147.941 154.485C147.935 154.818 147.948 155.127 147.935 155.472C147.917 155.818 147.83 156.157 147.676 156.472C147.38 157.095 146.825 157.589 146.177 157.811C145.856 157.929 145.498 157.966 145.177 157.96H144.214C143.572 157.96 142.937 157.96 142.301 157.96C141.03 157.96 139.777 157.96 138.53 157.96C133.544 157.953 128.731 157.953 124.152 157.947C114.987 157.935 106.737 157.922 99.8002 157.91C98.0661 157.904 96.4184 157.904 94.8571 157.898C94.0734 157.898 93.3205 157.892 92.5799 157.892C92.2097 157.892 91.8517 157.892 91.4938 157.892C91.142 157.885 90.7841 157.916 90.4262 157.83C89.7227 157.682 89.1364 157.231 88.7908 156.67C88.618 156.386 88.5008 156.077 88.4514 155.769C88.3959 155.454 88.4206 155.145 88.4144 154.855C88.4206 153.676 88.4267 152.603 88.4267 151.628C88.4391 149.696 88.4514 148.196 88.4576 147.166C88.4638 146.666 88.4699 146.277 88.4761 146.005C88.4884 145.746 88.5008 145.61 88.5008 145.61C88.5008 145.61 88.5131 145.746 88.5193 146.005C88.5255 146.277 88.5255 146.666 88.5378 147.166C88.544 148.196 88.5563 149.702 88.5687 151.628C88.5748 152.596 88.5748 153.676 88.581 154.855C88.5872 155.151 88.5687 155.454 88.6242 155.744C88.6736 156.034 88.7847 156.324 88.9513 156.589C89.2783 157.114 89.8338 157.528 90.4817 157.663C90.8026 157.737 91.1482 157.706 91.5123 157.713C91.8702 157.713 92.2282 157.713 92.5984 157.713C93.3328 157.713 94.0919 157.706 94.8756 157.706C96.4369 157.7 98.0846 157.7 99.8187 157.694C106.755 157.682 115.006 157.669 124.17 157.657C128.755 157.657 133.563 157.651 138.549 157.645C139.796 157.645 141.054 157.645 142.32 157.645C142.955 157.645 143.591 157.645 144.233 157.645H145.195C145.51 157.645 145.8 157.614 146.09 157.515C146.658 157.318 147.145 156.886 147.405 156.336C147.534 156.065 147.614 155.762 147.627 155.46C147.639 155.151 147.633 154.812 147.633 154.491C147.633 153.183 147.633 151.868 147.633 150.548C147.633 150.369 147.633 150.183 147.633 150.017V149.955L147.676 149.906C149.818 147.616 151.922 145.364 153.915 143.228L154.032 143.494C135.136 143.413 118.406 143.339 106.391 143.29C100.393 143.253 95.5729 143.216 92.2405 143.197C91.4136 143.216 90.6607 143.099 90.0744 143.358C89.4882 143.592 89.0994 144 88.8834 144.364C88.6551 144.728 88.581 145.061 88.5502 145.277C88.507 145.499 88.507 145.61 88.5008 145.61Z" fill="#455A64"/>
<path d="M142.14 149.35L95.998 149.14L96.0042 147.721L142.146 147.937L142.14 149.35Z" fill="#455A64"/>
<path d="M123.429 152.405L123.422 153.824L142.145 153.916L142.152 152.496L123.429 152.405Z" fill="#455A64"/>
<path d="M148.541 170.924V180.644C148.541 182.008 147.436 183.113 146.072 183.113H91.729C90.3652 183.113 89.2605 182.008 89.2605 180.644V175.33L83.0215 168.653L146.066 168.449C147.43 168.449 148.541 169.554 148.541 170.924Z" fill="#680A83"/>
<path d="M94.8948 174.664L141.037 174.455L141.031 173.035L94.8887 173.245L94.8948 174.664Z" fill="#1C1D1E"/>
<path d="M94.8948 179.231L141.037 179.015L141.031 177.602L94.8887 177.811L94.8948 179.231Z" fill="#1C1D1E"/>
<path d="M222.909 54.4021C226.907 54.4021 230.147 51.161 230.147 47.163C230.147 43.1649 226.907 39.9238 222.909 39.9238C218.911 39.9238 215.67 43.1649 215.67 47.163C215.67 51.161 218.911 54.4021 222.909 54.4021Z" fill="#680A83"/>
<path opacity="0.5" d="M222.909 54.4021C226.907 54.4021 230.147 51.161 230.147 47.163C230.147 43.1649 226.907 39.9238 222.909 39.9238C218.911 39.9238 215.67 43.1649 215.67 47.163C215.67 51.161 218.911 54.4021 222.909 54.4021Z" fill="#1C1D1E"/>
<path d="M220.509 45.0887C220.781 45.0702 221.028 45.3787 221.052 45.7737C221.077 46.1687 220.873 46.5019 220.602 46.5205C220.324 46.539 220.083 46.2304 220.059 45.8354C220.034 45.4405 220.238 45.101 220.509 45.0887Z" fill="#263238"/>
<path d="M221.182 43.2684C221.163 43.3733 220.577 43.3425 219.91 43.577C219.244 43.7992 218.8 44.188 218.719 44.1201C218.639 44.0646 219.022 43.4968 219.787 43.2376C220.558 42.966 221.213 43.1759 221.182 43.2684Z" fill="#263238"/>
<path d="M226.427 46.218C226.347 46.2797 225.958 45.8662 225.335 45.7983C224.711 45.7305 224.242 46.0514 224.181 45.9773C224.15 45.9403 224.224 45.8045 224.434 45.6626C224.637 45.5206 224.983 45.3972 225.372 45.4404C225.76 45.4836 226.075 45.6749 226.242 45.8601C226.421 46.039 226.47 46.1871 226.427 46.218Z" fill="#263238"/>
<path d="M227.049 45.0078C226.994 45.1003 226.407 44.7918 225.624 44.7671C224.84 44.73 224.229 44.9892 224.186 44.8967C224.124 44.8226 224.741 44.3659 225.642 44.4091C226.537 44.4338 227.117 44.9399 227.049 45.0078Z" fill="#263238"/>
<path d="M226.537 47.02C226.568 47.0138 226.58 47.6186 226.087 48.4086C225.618 49.18 224.532 50.1119 223.063 50.1736C221.594 50.2045 220.452 49.3404 219.934 48.5999C219.391 47.8408 219.36 47.236 219.391 47.2421C219.453 47.2175 219.576 47.7791 220.132 48.4456C220.662 49.0998 221.736 49.8465 223.044 49.8157C224.353 49.7663 225.377 48.9578 225.865 48.2666C226.389 47.5631 226.476 47.0015 226.537 47.02Z" fill="#263238"/>
<path d="M20.3528 175.215C20.1924 180.837 15.5085 185.262 9.88654 185.102C4.2646 184.941 -0.160127 180.257 0.000323087 174.635C0.160773 169.013 4.84469 164.588 10.4666 164.748C16.0886 164.909 20.5133 169.593 20.3528 175.215Z" fill="#680A83"/>
<path opacity="0.5" d="M20.3528 175.215C20.1924 180.837 15.5085 185.262 9.88654 185.102C4.2646 184.941 -0.160127 180.257 0.000323087 174.635C0.160773 169.013 4.84469 164.588 10.4666 164.748C16.0886 164.909 20.5133 169.593 20.3528 175.215Z" fill="#1C1D1E"/>
<path d="M8.17153 172.104C7.81978 171.591 7.10392 171.542 6.61023 171.882C6.11653 172.215 5.87586 172.628 5.7586 173.264C5.67838 172.622 5.42536 172.196 4.94401 171.832C4.46883 171.468 3.74063 171.474 3.35802 171.968C3.13586 172.252 3.05563 172.659 3.09266 173.036C3.12969 173.412 3.22842 173.807 3.45059 174.091C4.2405 175.109 4.67865 175.301 5.70923 176.035C6.77068 175.356 7.11009 175.189 7.94937 174.221C8.18387 173.949 8.30113 173.56 8.36284 173.19C8.43072 172.807 8.37518 172.4 8.17153 172.104Z" fill="#680A83"/>
<path d="M17.1559 172.358C16.8042 171.845 16.0883 171.796 15.5946 172.135C15.1009 172.469 14.8602 172.882 14.743 173.518C14.6628 172.876 14.4097 172.45 13.9284 172.086C13.4532 171.722 12.725 171.728 12.3424 172.222C12.1202 172.506 12.04 172.913 12.077 173.29C12.1141 173.666 12.2128 174.061 12.435 174.345C13.2249 175.363 13.663 175.554 14.6936 176.289C15.7551 175.61 16.0945 175.443 16.9337 174.474C17.1682 174.203 17.2855 173.814 17.3472 173.444C17.4151 173.067 17.3596 172.66 17.1559 172.358Z" fill="#680A83"/>
<path d="M13.4786 177.412C13.275 179.072 11.6643 180.43 9.9919 180.356C8.31951 180.281 6.83843 178.782 6.78906 177.109L13.4786 177.412Z" fill="#1C1D1E"/>
<path d="M48.7637 176.393C48.9427 175.35 48.5477 171.536 48.5477 171.536C48.5477 171.536 44.5488 171.11 44.3081 167.148C44.0675 163.186 44.3081 154.039 44.3081 154.039L51.5901 150.479L59.6003 156.545L58.3846 176.368L48.7637 176.393Z" fill="#B78876"/>
<path d="M45.4082 160.668C45.4082 160.946 45.6365 161.174 45.9142 161.174C46.1919 161.174 46.4203 160.946 46.4203 160.668C46.4203 160.39 46.1919 160.162 45.9142 160.162C45.6365 160.162 45.4082 160.384 45.4082 160.668Z" fill="#263238"/>
<path d="M44.6669 160.305C44.7348 160.373 45.1051 160.052 45.6543 160.021C46.1973 159.984 46.6108 160.255 46.6664 160.181C46.6972 160.15 46.6293 160.027 46.4442 159.904C46.2652 159.78 45.969 159.669 45.6296 159.688C45.2902 159.706 45.0063 159.854 44.8459 159.996C44.6854 160.144 44.636 160.274 44.6669 160.305Z" fill="#263238"/>
<path d="M51.8205 161.082C52.1 161.082 52.3265 160.856 52.3265 160.576C52.3265 160.297 52.1 160.07 51.8205 160.07C51.541 160.07 51.3145 160.297 51.3145 160.576C51.3145 160.856 51.541 161.082 51.8205 161.082Z" fill="#263238"/>
<path d="M50.5668 160.205C50.6347 160.273 51.0049 159.952 51.5542 159.921C52.0972 159.884 52.5107 160.156 52.5662 160.082C52.5971 160.051 52.5292 159.927 52.3441 159.804C52.1651 159.681 51.8689 159.569 51.5295 159.588C51.1901 159.606 50.9062 159.755 50.7458 159.897C50.5915 160.051 50.5359 160.18 50.5668 160.205Z" fill="#263238"/>
<path d="M48.691 164.767C48.691 164.736 48.3516 164.692 47.7962 164.655C47.6543 164.649 47.5185 164.625 47.4938 164.526C47.4568 164.421 47.5123 164.26 47.574 164.088C47.6913 163.73 47.8147 163.353 47.9505 162.952C48.4689 161.341 48.8453 160.021 48.7836 160.002C48.7219 159.984 48.2529 161.273 47.7345 162.884C47.6111 163.279 47.4877 163.662 47.3766 164.02C47.3272 164.186 47.247 164.378 47.321 164.594C47.3642 164.699 47.463 164.773 47.5555 164.791C47.6481 164.816 47.7222 164.81 47.79 164.81C48.3516 164.81 48.691 164.797 48.691 164.767Z" fill="#263238"/>
<path d="M50.4987 165.285C50.2272 165.439 48.9312 166.211 47.8574 166.192C47.8574 166.192 48.5424 167.18 49.6717 166.705C50.8319 166.217 50.4987 165.285 50.4987 165.285Z" fill="#1C1D1E"/>
<path d="M48.543 171.535C48.543 171.535 51.2151 171.566 53.7946 169.758C53.7946 169.758 52.6036 172.671 48.6294 172.504L48.543 171.535Z" fill="#A36957"/>
<path d="M64.8653 159.484C64.8653 159.484 66.476 168.624 58.7559 170.278L58.9842 159.262L64.8653 159.484Z" fill="#263238"/>
<path d="M64.6118 157.458C64.0193 155.181 63.0628 153.435 61.9643 152.095C63.0813 152.558 63.8404 153.027 63.9761 152.873C64.0502 152.781 63.8404 152.447 63.3652 152.04C62.89 151.633 62.1433 151.17 61.23 150.874C61.1065 150.83 60.9893 150.806 60.8659 150.775C61.3719 150.565 61.8409 150.275 62.2359 149.892C63.1615 148.985 63.575 147.504 63.0072 146.344C62.495 145.307 61.267 144.708 60.1191 144.832C58.9713 144.955 57.9407 145.727 57.3791 146.739C57.2434 146.985 57.1323 147.239 57.0521 147.504C57.0706 147.109 57.1076 146.671 57.1878 146.196C57.4347 144.671 58.0024 143.523 57.9099 143.48C57.842 143.431 57.1138 144.548 56.8546 146.14C56.8299 146.288 56.8176 146.43 56.7991 146.572C56.6633 146.134 56.509 145.745 56.3547 145.418C55.9721 144.622 55.6204 144.196 55.5154 144.245C55.2995 144.356 56.003 146.023 56.293 148.281C55.318 147.979 54.5342 147.887 54.1454 147.887C52.8001 147.887 50.5662 147.239 47.4004 149.806C46.4562 150.417 45.475 151.275 44.685 152.416C43.4508 154.206 43.0188 156.193 42.988 157.588C42.9695 158.292 43.025 158.859 43.0929 159.248C43.1608 159.637 43.2225 159.841 43.2472 159.841C43.3089 159.834 43.1299 158.983 43.2225 157.607C43.278 156.767 43.4755 155.712 43.8951 154.626C43.1052 157.384 44.1975 159.606 44.1975 159.606L51.2635 158.501C50.8068 156.952 51.1401 154.496 51.3561 153.293C52.6027 159.063 57.5581 161.834 57.5581 161.834L64.9944 160.661C64.8895 159.995 64.766 158.063 64.6118 157.458Z" fill="#263238"/>
<path d="M81.7129 245.847C81.9412 245.958 100.171 249.531 99.4982 247.112C98.8255 244.693 81.8795 240.768 81.8795 240.768L81.7129 245.847Z" fill="#680A83"/>
<path d="M90.0067 244.237C90.0931 244.224 90.2165 244.662 90.2165 245.212C90.2165 245.761 90.0808 246.193 89.9944 246.181C89.908 246.168 89.8894 245.736 89.8956 245.206C89.8956 244.681 89.9141 244.243 90.0067 244.237Z" fill="#263238"/>
<path d="M89.0314 243.903C89.1178 243.884 89.2721 244.397 89.2166 245.032C89.161 245.674 88.9204 246.143 88.8401 246.112C88.7537 246.081 88.8463 245.6 88.8957 245.001C88.9512 244.409 88.945 243.915 89.0314 243.903Z" fill="#263238"/>
<path d="M87.8537 243.805C87.9401 243.799 88.0636 244.286 88.0759 244.903C88.0882 245.52 87.9833 246.02 87.8969 246.014C87.8105 246.008 87.7673 245.514 87.755 244.909C87.7488 244.305 87.7673 243.811 87.8537 243.805Z" fill="#263238"/>
<path d="M85.6134 242.02C85.6134 242.008 85.7121 242.02 85.8972 242.057C86.0824 242.088 86.3539 242.144 86.6995 242.224C87.3968 242.378 88.3966 242.613 89.6308 242.952C90.8589 243.285 92.3152 243.724 93.9136 244.261C94.7097 244.538 95.5489 244.81 96.4006 245.174C97.246 245.538 98.1161 246.007 98.832 246.704C98.9184 246.791 99.0233 246.871 99.0974 247.038C99.1899 247.204 99.0974 247.463 98.9431 247.55C98.6592 247.729 98.4 247.698 98.1717 247.723C97.6965 247.76 97.2275 247.778 96.7708 247.791C95.8513 247.809 94.9627 247.778 94.1172 247.723C92.4325 247.618 90.9267 247.402 89.6678 247.204C88.4089 247.001 87.3968 246.809 86.6995 246.667C86.3848 246.599 86.1194 246.544 85.8972 246.495C85.7121 246.451 85.6195 246.427 85.6195 246.414C85.6257 246.39 86.0145 246.439 86.718 246.544C87.4709 246.655 88.4768 246.797 89.6987 246.976C90.9576 247.143 92.4572 247.334 94.1357 247.42C94.975 247.463 95.8513 247.488 96.7647 247.463C97.2213 247.451 97.6842 247.433 98.1532 247.396C98.3877 247.377 98.6345 247.377 98.7641 247.285C98.8197 247.241 98.8258 247.217 98.8073 247.161C98.7826 247.099 98.7024 247.019 98.616 246.939C97.9372 246.279 97.1102 245.828 96.2833 245.464C95.4502 245.106 94.6171 244.822 93.8272 244.538C92.2412 243.983 90.7971 243.532 89.5814 243.168C88.3657 242.804 87.3721 242.532 86.6871 242.341C85.9898 242.15 85.6072 242.039 85.6134 242.02Z" fill="#263238"/>
<path d="M95.3135 244.73C95.4061 244.761 95.2209 245.452 95.2888 246.304C95.3443 247.155 95.622 247.816 95.5357 247.859C95.4678 247.908 95.0296 247.26 94.9679 246.328C94.9 245.396 95.2394 244.693 95.3135 244.73Z" fill="#263238"/>
<path d="M21.4197 242.237C21.1667 242.206 2.7704 244.773 4.19594 246.847C5.62148 248.914 22.9254 247.094 22.9254 247.094L21.4197 242.237Z" fill="#680A83"/>
<path d="M14.1125 246.465C14.0323 246.502 13.7731 246.131 13.6003 245.613C13.4213 245.095 13.409 244.638 13.4954 244.626C13.5818 244.607 13.736 245.014 13.9088 245.514C14.0693 246.008 14.1927 246.421 14.1125 246.465Z" fill="#263238"/>
<path d="M15.1376 246.459C15.0636 246.502 14.7488 246.07 14.5946 245.447C14.4341 244.823 14.5082 244.299 14.5946 244.299C14.6871 244.299 14.7612 244.786 14.9031 245.366C15.0512 245.953 15.2179 246.416 15.1376 246.459Z" fill="#263238"/>
<path d="M16.285 246.168C16.2048 246.205 15.9271 245.78 15.7172 245.199C15.5012 244.619 15.4395 244.119 15.5259 244.095C15.6123 244.07 15.8098 244.527 16.0196 245.088C16.2233 245.656 16.3652 246.131 16.285 246.168Z" fill="#263238"/>
<path d="M18.9829 247.124C18.9829 247.137 18.8903 247.155 18.699 247.186C18.5139 247.217 18.2362 247.254 17.8844 247.291C17.1747 247.371 16.1503 247.476 14.8791 247.556C13.6078 247.637 12.0897 247.704 10.405 247.717C9.55952 247.717 8.67704 247.729 7.75137 247.661C6.83186 247.593 5.85682 247.433 4.94965 247.007C4.83857 246.952 4.71515 246.915 4.59173 246.779C4.44979 246.649 4.45596 246.378 4.56704 246.248C4.77686 245.989 5.03605 245.933 5.2397 245.835C5.67785 245.643 6.11601 245.477 6.54182 245.316C7.40578 244.995 8.2574 244.736 9.072 244.514C10.7012 244.063 12.1946 243.773 13.4474 243.551C14.7001 243.329 15.7245 243.181 16.428 243.088C16.7489 243.051 17.0205 243.014 17.2426 242.989C17.4278 242.971 17.5265 242.965 17.5327 242.977C17.5388 243.002 17.1501 243.082 16.4527 243.218C15.6998 243.36 14.7063 243.551 13.4967 243.779C12.2501 244.032 10.7691 244.341 9.15839 244.804C8.35614 245.038 7.51069 245.298 6.65907 245.619C6.23326 245.779 5.80128 245.946 5.36929 246.137C5.1533 246.229 4.9188 246.31 4.8324 246.445C4.79537 246.507 4.79537 246.532 4.8324 246.575C4.8756 246.624 4.98051 246.674 5.09159 246.723C5.94938 247.124 6.88123 247.285 7.77605 247.353C8.67704 247.421 9.56569 247.414 10.3988 247.427C12.0774 247.433 13.5893 247.39 14.8606 247.34C16.1318 247.285 17.1562 247.217 17.8659 247.174C18.5879 247.124 18.9829 247.1 18.9829 247.124Z" fill="#263238"/>
<path d="M8.92984 247.723C8.83728 247.723 8.78174 247.013 8.44232 246.229C8.11525 245.439 7.6339 244.908 7.70178 244.84C7.75115 244.773 8.37444 245.242 8.73854 246.106C9.10881 246.957 9.01007 247.735 8.92984 247.723Z" fill="#263238"/>
<path d="M78.4912 219.901H69.1295L34.5833 220.796L24.7341 219.519C23.1913 219.179 22.1854 219.037 21.8584 219.149C20.9018 219.463 19.5935 220.383 18.4827 221.71C14.7183 226.209 17.0819 233.133 22.747 234.664L28.0727 236.102L16.4277 239.841L20.3588 250.999C20.3588 250.999 37.7368 247.241 54.5903 243.273L81.5644 250.567L85.4523 238.046C85.4523 238.046 83.7367 237.484 80.8794 236.558C83.749 235.682 85.5634 234.991 85.8287 234.577C87.5196 231.942 90.5312 219.716 78.4912 219.901Z" fill="#455A64"/>
<path opacity="0.2" d="M80.7001 236.613L60.6561 244.914L54.5898 243.272L80.7001 236.613Z" fill="#0A0A0A"/>
<path opacity="0.2" d="M28.1211 220.834L53.787 228.19L73.3249 221.525L28.1211 220.834Z" fill="#0A0A0A"/>
<path d="M24.4687 250.185C24.4316 250.203 24.1107 249.586 23.6541 248.568C23.1974 247.549 22.605 246.124 22.0187 244.525C21.4325 242.927 20.9696 241.452 20.6611 240.378C20.3525 239.304 20.2044 238.632 20.2476 238.619C20.2908 238.607 20.5191 239.261 20.8771 240.31C21.235 241.366 21.7348 242.822 22.3149 244.414C22.895 246.007 23.4504 247.445 23.8577 248.481C24.265 249.524 24.5119 250.166 24.4687 250.185Z" fill="#263238"/>
<path d="M86.3272 224.06C86.3272 224.066 86.2779 224.091 86.1668 224.134C86.0434 224.184 85.8829 224.239 85.6855 224.313C85.235 224.467 84.6178 224.69 83.8279 224.967C82.1864 225.523 79.8475 226.319 76.9656 227.294C71.1647 229.232 63.1298 231.855 54.2248 234.65C45.3137 237.446 37.2232 239.884 31.3545 241.612C28.4355 242.457 26.0596 243.142 24.3934 243.624C23.585 243.846 22.9493 244.025 22.4927 244.148C22.289 244.204 22.1286 244.247 21.999 244.278C21.8879 244.303 21.8262 244.315 21.8262 244.309C21.8262 244.303 21.8817 244.284 21.9866 244.241C22.1162 244.198 22.2767 244.148 22.4741 244.08C22.9246 243.938 23.5541 243.747 24.3564 243.494C26.0164 242.988 28.38 242.272 31.2866 241.383C37.1368 239.606 45.2211 237.131 54.1261 234.336C63.0311 231.54 71.0721 228.954 76.8977 227.066C79.792 226.128 82.1432 225.368 83.7909 224.838C84.587 224.585 85.2164 224.387 85.6669 224.245C85.8706 224.184 86.031 224.134 86.1606 224.097C86.2655 224.066 86.3272 224.054 86.3272 224.06Z" fill="#263238"/>
<path d="M67.6473 223.61C67.6535 223.622 67.5177 223.678 67.2523 223.776C66.9561 223.881 66.5797 224.023 66.1045 224.196C65.1048 224.554 63.6484 225.06 61.8464 225.671C58.2424 226.893 53.25 228.535 47.7268 230.306C42.1974 232.077 37.1802 233.638 33.5392 234.737C31.7188 235.286 30.2438 235.718 29.2194 236.008C28.7319 236.144 28.3369 236.249 28.0407 236.335C27.7692 236.409 27.6273 236.44 27.6211 236.428C27.6211 236.416 27.7569 236.366 28.0222 236.274C28.3184 236.175 28.7072 236.051 29.1886 235.891C30.2377 235.558 31.6941 235.089 33.4775 234.521C37.1309 233.355 42.1233 231.762 47.6342 230.003C53.1451 228.232 58.1314 226.634 61.7785 225.461C63.562 224.887 65.0184 224.424 66.0675 224.085C66.5488 223.937 66.9376 223.813 67.24 223.721C67.4992 223.634 67.6411 223.597 67.6473 223.61Z" fill="#263238"/>
<path d="M53.6516 228.146C53.6269 228.233 47.8939 226.665 40.8403 224.647C33.7866 222.629 28.0906 220.926 28.1153 220.839C28.14 220.753 33.873 222.321 40.9267 224.339C47.9803 226.357 53.6763 228.06 53.6516 228.146Z" fill="#263238"/>
<path d="M81.6806 237.205C81.7608 237.236 80.7734 239.983 79.4713 243.34C78.1692 246.697 77.046 249.394 76.9596 249.357C76.8794 249.326 77.8668 246.58 79.1689 243.223C80.471 239.871 81.5942 237.174 81.6806 237.205Z" fill="#263238"/>
<path d="M79.2752 242.378C79.2505 242.465 76.9918 241.934 74.2333 241.2C71.4686 240.465 69.247 239.799 69.2717 239.712C69.2964 239.626 71.555 240.157 74.3135 240.891C77.0782 241.625 79.2937 242.292 79.2752 242.378Z" fill="#263238"/>
<path d="M40.8906 232.145C40.8844 232.17 40.545 232.096 39.934 231.954C39.2676 231.787 38.4036 231.577 37.3545 231.318C35.1822 230.763 32.1769 230.01 28.9 229.022C25.6169 228.041 22.7103 226.936 20.6615 226.005C19.6371 225.535 18.8286 225.128 18.2732 224.826C17.724 224.523 17.4216 224.344 17.434 224.326C17.4463 224.307 17.761 224.443 18.3288 224.715C18.8965 224.98 19.7173 225.357 20.7479 225.795C22.809 226.671 25.7095 227.733 28.9864 228.714C32.2571 229.701 35.2501 230.485 37.41 231.096C38.4468 231.392 39.3046 231.639 39.9649 231.83C40.5635 232.009 40.8967 232.12 40.8906 232.145Z" fill="#263238"/>
<path d="M59.8544 175.843L59.0768 175.856L58.9657 173.227L48.5426 173.862C48.5426 173.862 48.6475 175.109 48.6413 175.954C42.2295 176.59 31.936 179.867 31.6953 194.314L39.9277 194.5C39.2241 201.128 39.3352 205.084 38.6379 207.577C37.49 211.687 33.8491 220.358 34.5834 220.796C35.3178 221.234 69.0926 221.864 70.7033 220.981C72.3139 220.105 69.3826 208.787 68.6483 205.707C68.1793 203.751 68.0867 199.252 68.0744 195.777L77.5286 195.357C77.5286 195.351 78.1951 175.788 59.8544 175.843Z" fill="#680A83"/>
<path d="M59.039 175.739C59.0452 175.782 58.4589 175.893 57.5086 175.998C56.5582 176.109 55.2376 176.208 53.775 176.239C52.3125 176.27 50.9857 176.22 50.0291 176.153C49.0726 176.085 48.4863 175.998 48.4863 175.955C48.4925 175.912 49.0788 175.912 50.0353 175.924C50.9918 175.937 52.3063 175.949 53.7627 175.918C55.2191 175.887 56.5335 175.819 57.4839 175.77C58.4404 175.721 59.0329 175.696 59.039 175.739Z" fill="#263238"/>
<path d="M50.4319 173.744C50.5183 173.744 50.5924 174.25 50.5924 174.88C50.5924 175.503 50.5183 176.015 50.4319 176.015C50.3455 176.015 50.2715 175.509 50.2715 174.88C50.2715 174.25 50.3394 173.744 50.4319 173.744Z" fill="#263238"/>
<path d="M53.2133 173.547C53.2997 173.547 53.3861 174.102 53.4046 174.794C53.4232 175.485 53.3676 176.046 53.2751 176.046C53.1887 176.046 53.1023 175.491 53.0837 174.8C53.0714 174.108 53.1269 173.547 53.2133 173.547Z" fill="#263238"/>
<path d="M56.0905 173.449C56.1769 173.443 56.3004 173.999 56.3189 174.696C56.3374 175.393 56.2325 175.955 56.1461 175.949C56.0535 175.943 56.0103 175.387 55.998 174.702C55.9795 174.017 56.0041 173.455 56.0905 173.449Z" fill="#263238"/>
<path d="M58.1751 173.35C58.2676 173.35 58.3293 173.893 58.4157 174.553C58.496 175.213 58.57 175.757 58.4836 175.781C58.3972 175.806 58.1812 175.281 58.101 174.596C58.0146 173.905 58.0887 173.343 58.1751 173.35Z" fill="#263238"/>
<path d="M41.2415 194.32C41.1551 194.32 41.0687 192.931 41.0564 191.216C41.0441 189.5 41.0996 188.111 41.1922 188.111C41.2786 188.111 41.365 189.5 41.3773 191.216C41.3896 192.925 41.3341 194.32 41.2415 194.32Z" fill="#263238"/>
<path d="M67.7472 195.35C67.6608 195.357 67.4633 193.863 67.3028 192.018C67.1486 190.166 67.093 188.66 67.1794 188.654C67.2658 188.648 67.4633 190.142 67.6238 191.987C67.7842 193.838 67.8397 195.344 67.7472 195.35Z" fill="#263238"/>
<path d="M41.2429 194.32C41.2429 194.363 40.6998 194.369 39.8297 194.363C38.8361 194.357 37.6883 194.345 36.4232 194.338C35.1581 194.345 34.0164 194.351 33.0167 194.357C32.1466 194.363 31.6035 194.357 31.6035 194.308C31.6035 194.264 32.1404 194.19 33.0105 194.129C33.8807 194.067 35.0902 194.018 36.4232 194.018C37.7562 194.018 38.9657 194.073 39.8359 194.135C40.7122 194.203 41.2491 194.277 41.2429 194.32Z" fill="#263238"/>
<path d="M77.5303 195.352C77.5303 195.438 75.2779 195.512 72.4947 195.512C69.7115 195.512 67.459 195.438 67.459 195.352C67.459 195.265 69.7115 195.191 72.4947 195.191C75.2717 195.191 77.5303 195.265 77.5303 195.352Z" fill="#263238"/>
<path d="M77.1091 195.432C77.1091 195.432 79.5714 218.47 72.5178 220.735C65.4641 223 51.5234 212.267 51.5234 212.267L55.5409 204.152C55.5409 204.152 64.8223 210.583 66.7971 209.132C68.7719 207.682 67.7474 195.432 67.7474 195.432H77.1091Z" fill="#B78876"/>
<path d="M31.8252 194.322C31.8252 194.322 29.3135 217.131 36.3671 219.396C43.4208 221.661 57.3615 210.929 57.3615 210.929L53.3502 202.807C53.3502 202.807 44.0379 208.757 42.1063 207.251C40.9894 206.381 40.9585 194.433 40.9585 194.433C37.6569 194.297 34.6207 194.155 31.8252 194.322Z" fill="#B78876"/>
<path d="M72.7208 199.072L68.0369 222.03C68.0369 222.03 39.2545 221.808 38.9521 221.722C38.6559 221.635 35.8789 199.078 35.8789 199.078H72.7208V199.072Z" fill="#263238"/>
<path d="M52.0469 210.699C52.0469 211.587 52.8183 212.309 53.7686 212.309C54.719 212.309 55.4966 211.587 55.4966 210.699C55.4966 209.81 54.7252 209.088 53.7686 209.088C52.8183 209.088 52.0469 209.81 52.0469 210.699Z" fill="#1C1D1E"/>
<path d="M58.0898 160.336C58.4107 160.021 59.4722 159.966 59.8424 160.225C60.2127 160.49 60.4102 160.928 60.4966 161.373C60.6385 162.107 60.4904 162.922 59.972 163.465C59.4537 164.008 58.5465 164.174 57.9355 163.742" fill="#B78876"/>
<path d="M58.837 163.119C58.8308 163.069 59.0283 163.038 59.2628 162.866C59.4973 162.699 59.7318 162.366 59.6886 161.94C59.6577 161.514 59.3554 161.23 59.0962 161.113C58.837 160.989 58.6395 160.989 58.6333 160.94C58.621 160.903 58.8308 160.798 59.1764 160.891C59.5096 160.959 59.9786 161.335 60.0157 161.909C60.0836 162.483 59.6886 162.94 59.3739 163.069C59.0591 163.217 58.8308 163.156 58.837 163.119Z" fill="#A36957"/>
<path d="M200.785 240.281L199.581 233.758L187.881 235.831L189.584 245.601L190.318 245.521C193.583 245.132 206.833 243.108 208.869 242.04C211.14 240.855 200.785 240.281 200.785 240.281Z" fill="#680A83"/>
<path d="M209.035 241.399C209.054 241.51 204.703 242.405 199.31 243.398C193.916 244.392 189.535 245.108 189.51 244.997C189.491 244.886 193.842 243.991 199.236 242.997C204.629 242.01 209.017 241.294 209.035 241.399Z" fill="#263238"/>
<path d="M201.235 241.578C201.13 241.547 201.149 241.183 201.34 240.8C201.525 240.411 201.797 240.177 201.89 240.238C201.982 240.3 201.877 240.621 201.704 240.979C201.532 241.331 201.346 241.608 201.235 241.578Z" fill="#263238"/>
<path d="M202.062 241.868C201.951 241.849 201.932 241.454 202.086 241.004C202.241 240.553 202.5 240.257 202.599 240.306C202.697 240.356 202.611 240.72 202.469 241.133C202.327 241.553 202.173 241.886 202.062 241.868Z" fill="#263238"/>
<path d="M193.028 244.305C192.991 244.348 192.782 244.206 192.479 243.965C192.171 243.724 191.763 243.385 191.263 243.126C190.77 242.867 190.258 242.786 189.9 242.805C189.536 242.823 189.313 242.922 189.283 242.867C189.252 242.83 189.443 242.626 189.856 242.521C190.264 242.416 190.881 242.465 191.449 242.762C192.01 243.058 192.411 243.459 192.677 243.749C192.936 244.058 193.065 244.268 193.028 244.305Z" fill="#263238"/>
<path d="M201.049 240.343C201.123 240.424 200.963 240.689 200.654 240.874C200.346 241.059 200.037 241.072 200 240.967C199.963 240.862 200.179 240.689 200.451 240.529C200.716 240.362 200.969 240.257 201.049 240.343Z" fill="#263238"/>
<path d="M200.748 239.744C200.779 239.849 200.483 240.003 200.094 240.077C199.699 240.158 199.372 240.127 199.36 240.016C199.347 239.905 199.644 239.757 200.014 239.682C200.39 239.615 200.717 239.639 200.748 239.744Z" fill="#263238"/>
<path d="M214.863 171.375C211.234 164.062 191.826 135.771 191.826 135.771L181.464 136.851L181.452 136.79L169.856 138.061L163.463 138.765L186.611 239.872L202.619 239.582L198.768 220.876C201.422 214.248 216.868 175.423 214.863 171.375ZM198.349 175.738L192.628 191.099L186.142 159.606L198.349 175.738Z" fill="#263238"/>
<path d="M185.498 89.0731C185.35 88.0178 185.918 83.6299 185.918 83.6299C185.918 83.6299 189.947 83.3336 190.324 79.3592C190.694 75.3786 190.75 66.1831 190.75 66.1831L183.548 62.3691L175.303 68.2135L173.168 73.7679L175.976 80.6676L175.889 82.951L175.877 88.1782L185.498 89.0731Z" fill="#FFBE9D"/>
<path d="M190.206 72.8489C190.2 73.1328 189.959 73.355 189.681 73.3426C189.397 73.3365 189.181 73.0958 189.188 72.8181C189.194 72.5342 189.434 72.3182 189.712 72.3243C189.996 72.3305 190.218 72.565 190.206 72.8489Z" fill="#263238"/>
<path d="M190.243 72.3117C190.175 72.3734 189.811 72.0401 189.262 71.9969C188.712 71.9414 188.293 72.2006 188.237 72.1265C188.213 72.0957 188.28 71.9722 188.466 71.855C188.645 71.7377 188.947 71.6328 189.293 71.6637C189.632 71.6945 189.91 71.855 190.07 72.0031C190.224 72.1574 190.274 72.287 190.243 72.3117Z" fill="#263238"/>
<path d="M183.764 72.2256C183.992 72.3922 184.041 72.7131 183.875 72.9415C183.708 73.1698 183.387 73.2192 183.159 73.0526C182.931 72.8859 182.881 72.565 183.048 72.3367C183.221 72.1083 183.535 72.059 183.764 72.2256Z" fill="#263238"/>
<path d="M184.159 72.1203C184.091 72.182 183.727 71.8487 183.178 71.8055C182.628 71.75 182.209 72.0092 182.153 71.9351C182.129 71.9043 182.197 71.7808 182.382 71.6636C182.561 71.5463 182.863 71.4414 183.209 71.4723C183.548 71.5031 183.826 71.6636 183.986 71.8117C184.14 71.9598 184.19 72.0894 184.159 72.1203Z" fill="#263238"/>
<path d="M185.992 76.8227C185.992 76.7918 186.338 76.7609 186.893 76.7363C187.035 76.7363 187.171 76.7178 187.202 76.6128C187.245 76.5079 187.196 76.3413 187.14 76.1685C187.035 75.8044 186.918 75.4217 186.801 75.0206C186.332 73.3852 185.998 72.0459 186.054 72.0274C186.085 72.0213 186.208 72.3422 186.381 72.8729C186.554 73.4037 186.782 74.1381 187.017 74.9589C187.128 75.36 187.239 75.7488 187.337 76.1129C187.381 76.2857 187.455 76.4771 187.375 76.6869C187.331 76.7918 187.226 76.8597 187.134 76.8782C187.041 76.8967 186.961 76.8906 186.893 76.8906C186.332 76.8782 185.992 76.8535 185.992 76.8227Z" fill="#263238"/>
<path d="M184.158 77.2792C183.615 76.8904 185.664 78.2419 186.781 78.2789C186.781 78.2789 186.059 79.2479 184.942 78.7356C183.788 78.2049 184.158 77.2792 184.158 77.2792Z" fill="#1C1D1E"/>
<path d="M185.918 83.6299C185.918 83.6299 183.234 83.5743 180.697 81.6797C180.697 81.6797 181.802 84.642 185.801 84.605L185.918 83.6299Z" fill="#EB996E"/>
<path d="M176.44 74.8717C176.422 74.8594 176.385 74.9149 176.286 74.9704C176.193 75.0198 176.027 75.063 175.842 75.0075C175.478 74.8964 175.138 74.3471 175.083 73.7362C175.058 73.4276 175.101 73.1313 175.2 72.8783C175.286 72.6253 175.44 72.4401 175.619 72.3969C175.798 72.3476 175.928 72.4463 175.977 72.5389C176.027 72.6315 176.014 72.6993 176.027 72.7055C176.039 72.7117 176.095 72.6438 176.058 72.508C176.039 72.4401 175.996 72.3661 175.909 72.3044C175.823 72.2427 175.7 72.218 175.576 72.2365C175.317 72.2735 175.095 72.5265 174.99 72.7981C174.873 73.0758 174.811 73.4091 174.842 73.7547C174.904 74.4397 175.292 75.0568 175.792 75.1679C176.033 75.2173 176.23 75.1309 176.329 75.0445C176.44 74.9519 176.453 74.8779 176.44 74.8717Z" fill="#EB996E"/>
<path d="M191.799 66.8428C191.559 66.923 191.337 66.96 191.133 66.9724C191.874 66.5774 192.509 65.9726 192.904 65.2258C193.466 64.1829 193.54 62.8375 192.898 61.8439C192.256 60.8503 190.824 60.3812 189.806 60.9799C190.3 60.1652 189.905 59.0235 189.121 58.4866C188.337 57.9558 187.282 57.9497 186.381 58.2459C185.48 58.5421 184.69 59.1037 183.919 59.653C183.833 59.0112 183.37 58.4619 182.796 58.1718C182.216 57.8818 181.543 57.8324 180.907 57.9312C179.056 58.2089 177.47 59.7703 177.161 61.6217C176.581 61.0231 175.687 60.7577 174.878 60.9428C174.07 61.128 173.379 61.7575 173.119 62.5474C173.107 62.5783 173.107 62.603 173.095 62.6338C172.755 62.7758 172.428 63.035 172.206 63.4052C171.873 63.9422 171.768 64.6951 172.015 65.3863C172.237 66.0775 172.761 66.6021 173.237 66.9353C173.465 67.1143 173.669 67.2871 173.798 67.4846C173.928 67.6759 173.99 67.8796 174.014 68.0771C173.965 69.4101 173.28 70.6691 172.947 71.9836C172.49 73.7918 173.496 76.2728 174.076 78.0502C174.656 79.8275 174.86 80.5373 175.983 80.6607L176.162 75.884C174.915 76.8961 173.28 73.4154 174.36 72.0268C175.44 70.6382 176.588 71.1134 176.785 71.9898C176.915 72.5761 177.075 72.9834 177.075 72.9834H178.328L178.192 71.9342C178.192 71.9342 177.939 67.2994 180.154 67.0156C180.938 66.9168 181.117 66.9909 181.833 67.3303C182.543 67.6697 183.296 67.6697 184.086 67.6451C184.875 67.6204 185.937 66.7502 185.912 65.9602C186.801 67.0156 188.233 67.5957 189.609 67.4537C189.967 67.4167 190.318 67.3303 190.652 67.2007C190.973 67.2994 191.442 67.3241 191.917 67.1637C192.41 66.997 192.787 66.6823 192.978 66.4046C193.176 66.1269 193.213 65.917 193.176 65.8985C193.083 65.8553 192.688 66.565 191.799 66.8428ZM173.409 66.6946C172.947 66.3367 172.521 65.8924 172.311 65.2752C172.095 64.6766 172.175 64.0347 172.453 63.5657C172.595 63.3065 172.792 63.1152 173.002 62.9732C172.792 64.3742 173.706 65.7936 173.946 67.2501C173.804 67.0464 173.613 66.8613 173.409 66.6946Z" fill="#680A83"/>
<path d="M212.992 72.6378V80.5866C212.992 82.3887 214.455 83.8513 216.257 83.8513H230.018V88.3997L232.487 84.055C234.005 83.9439 235.178 82.6787 235.178 81.1544V72.6378C235.178 70.8357 233.715 69.373 231.913 69.373H216.257C214.455 69.373 212.992 70.8357 212.992 72.6378Z" fill="#680A83"/>
<path d="M220.489 77.0387C220.489 77.7793 219.885 78.3841 219.144 78.3841C218.404 78.3841 217.799 77.7793 217.799 77.0387C217.799 76.2982 218.404 75.6934 219.144 75.6934C219.891 75.6934 220.489 76.2982 220.489 77.0387Z" fill="#1C1D1E"/>
<path d="M225.599 77.0387C225.599 77.7793 224.994 78.3841 224.254 78.3841C223.513 78.3841 222.908 77.7793 222.908 77.0387C222.908 76.2982 223.513 75.6934 224.254 75.6934C225 75.6934 225.599 76.2982 225.599 77.0387Z" fill="#1C1D1E"/>
<path d="M230.71 77.0387C230.71 77.7793 230.105 78.3841 229.365 78.3841C228.624 78.3841 228.02 77.7793 228.02 77.0387C228.02 76.2982 228.624 75.6934 229.365 75.6934C230.105 75.6934 230.71 76.2982 230.71 77.0387Z" fill="#1C1D1E"/>
<path d="M223.865 96.282C223.594 95.6525 206.061 111.137 202.575 111.667L192.349 98.3556C192.349 98.3556 190.226 94.986 185.672 89.2218C182.734 85.5004 174.619 86.2718 172.484 90.8079C168.862 98.5099 168.732 108.736 165.936 125.103L163.561 139.001C163.554 139.026 167.06 138.594 167.047 138.618L191.929 136.008L192.547 119.376C197.465 124.362 198.989 125.399 201.55 125.004C207.987 124.004 230.505 103.749 230.505 103.749C230.505 103.749 224.137 96.9115 223.865 96.282Z" fill="#455A64"/>
<path d="M227.476 106.583C227.451 106.614 226.951 106.256 226.211 105.608C225.47 104.96 224.495 103.997 223.52 102.855C222.545 101.707 221.755 100.59 221.23 99.7573C220.706 98.9241 220.434 98.3748 220.465 98.3563C220.508 98.3316 220.848 98.8377 221.416 99.6338C221.983 100.43 222.792 101.516 223.761 102.652C224.73 103.787 225.668 104.762 226.365 105.447C227.062 106.132 227.507 106.546 227.476 106.583Z" fill="#263238"/>
<path d="M201.581 116.945C201.494 116.926 201.63 115.735 201.889 114.279C202.148 112.822 202.426 111.656 202.519 111.668C202.605 111.687 202.469 112.878 202.21 114.334C201.945 115.791 201.667 116.957 201.581 116.945Z" fill="#263238"/>
<path d="M203.809 116.394C203.723 116.419 203.371 115.394 203.025 114.111C202.68 112.827 202.464 111.765 202.55 111.741C202.637 111.716 202.988 112.74 203.334 114.024C203.686 115.308 203.896 116.369 203.809 116.394Z" fill="#263238"/>
<path opacity="0.2" d="M179.334 101.885L192.287 126.373L192.577 119.109L179.334 101.885Z" fill="#0A0A0A"/>
<path d="M178.495 100.694C178.513 100.681 178.723 100.947 179.093 101.434C179.494 101.971 180.013 102.669 180.636 103.508C181.938 105.261 183.759 107.661 185.801 110.284C187.832 112.889 189.671 115.24 191.047 117.005C191.683 117.838 192.213 118.523 192.621 119.054C192.985 119.541 193.182 119.819 193.164 119.832C193.145 119.844 192.917 119.597 192.522 119.128C192.096 118.616 191.541 117.943 190.868 117.141C189.486 115.456 187.591 113.105 185.542 110.476C183.5 107.847 181.704 105.421 180.451 103.631C179.822 102.737 179.322 102.008 178.988 101.496C178.655 100.996 178.482 100.706 178.495 100.694Z" fill="#263238"/>
<path d="M178.902 108.348C178.877 108.354 178.797 108.082 178.673 107.595C178.55 107.107 178.389 106.41 178.198 105.558L178.389 105.645C177.63 106.058 176.773 106.527 175.847 107.033L175.674 107.126L175.618 106.934C175.526 106.601 175.421 106.249 175.322 105.891C175.168 105.342 175.02 104.805 174.878 104.293L175.106 104.386C174.181 104.91 173.329 105.385 172.595 105.799L172.44 105.885L172.416 105.712C172.212 104.299 172.113 103.411 172.156 103.404C172.206 103.398 172.391 104.268 172.65 105.675L172.471 105.589C173.193 105.157 174.033 104.657 174.946 104.114L175.119 104.009L175.174 104.207C175.322 104.719 175.47 105.25 175.631 105.805C175.73 106.163 175.828 106.515 175.927 106.848L175.699 106.749C176.637 106.262 177.507 105.805 178.272 105.41L178.433 105.33L178.463 105.503C178.624 106.36 178.747 107.07 178.828 107.564C178.902 108.064 178.932 108.342 178.902 108.348Z" fill="#263238"/>
<path d="M181.944 94.5042C181.932 94.5289 181.685 94.3869 181.259 94.1215C180.834 93.8562 180.229 93.4674 179.501 92.986L179.698 92.9181C179.439 93.7389 179.149 94.677 178.834 95.6829L178.772 95.8743L178.6 95.7755C178.297 95.6027 177.983 95.4176 177.662 95.2324C177.168 94.9424 176.687 94.6646 176.23 94.3931L176.458 94.3005C176.156 95.3188 175.878 96.2507 175.638 97.0592L175.588 97.232L175.452 97.1271C174.323 96.2507 173.638 95.6829 173.663 95.6459C173.694 95.6089 174.428 96.1026 175.594 96.9357L175.409 96.9975C175.631 96.1828 175.884 95.2448 176.162 94.2203L176.218 94.029L176.397 94.1339C176.859 94.3993 177.341 94.677 177.834 94.967C178.155 95.1522 178.47 95.3373 178.772 95.5163L178.544 95.6027C178.877 94.6029 179.186 93.671 179.464 92.8502L179.519 92.6836L179.661 92.7823C180.371 93.2884 180.957 93.7081 181.352 94.0105C181.741 94.3005 181.957 94.4857 181.944 94.5042Z" fill="#263238"/>
<path d="M191.034 99.2622C191.016 99.2807 190.806 99.0894 190.448 98.7438C190.09 98.392 189.59 97.8798 188.979 97.2503L189.189 97.2256C188.757 97.9723 188.27 98.824 187.739 99.7374L187.64 99.9102L187.492 99.7744C187.233 99.5399 186.968 99.2869 186.696 99.04C186.276 98.6512 185.869 98.2686 185.48 97.9045L185.721 97.8674C185.203 98.7932 184.727 99.6448 184.314 100.379L184.228 100.534L184.116 100.398C183.209 99.293 182.66 98.5957 182.697 98.5648C182.734 98.534 183.345 99.182 184.302 100.243L184.104 100.262C184.499 99.5152 184.95 98.6574 185.443 97.7131L185.536 97.5342L185.684 97.6699C186.073 98.0279 186.486 98.4044 186.906 98.7932C187.177 99.0462 187.443 99.293 187.702 99.5337L187.455 99.5708C187.998 98.6697 188.504 97.8242 188.955 97.0898L189.047 96.9355L189.164 97.0651C189.751 97.7131 190.226 98.2501 190.547 98.6327C190.88 99.0153 191.053 99.2437 191.034 99.2622Z" fill="#343637"/>
<path d="M215.004 114.845C214.979 114.864 214.8 114.648 214.485 114.253C214.177 113.858 213.738 113.29 213.22 112.586L213.43 112.592C212.911 113.277 212.313 114.061 211.677 114.901L211.56 115.055L211.43 114.901C211.208 114.635 210.974 114.351 210.733 114.067C210.369 113.629 210.011 113.197 209.672 112.79L209.918 112.784C209.289 113.642 208.709 114.425 208.209 115.098L208.104 115.24L208.012 115.092C207.246 113.882 206.79 113.117 206.833 113.092C206.87 113.068 207.401 113.783 208.209 114.956L208.012 114.95C208.493 114.259 209.055 113.463 209.665 112.592L209.783 112.426L209.912 112.58C210.258 112.987 210.616 113.413 210.98 113.851C211.221 114.135 211.449 114.419 211.677 114.685L211.43 114.691C212.085 113.864 212.695 113.092 213.226 112.413L213.337 112.271L213.436 112.413C213.936 113.129 214.337 113.722 214.615 114.141C214.88 114.592 215.028 114.833 215.004 114.845Z" fill="#263238"/>
<path d="M200.167 113.598C200.149 113.617 199.92 113.456 199.525 113.148C199.13 112.839 198.569 112.389 197.896 111.84L198.1 111.79C197.76 112.58 197.372 113.481 196.958 114.456L196.878 114.635L196.718 114.518C196.434 114.314 196.137 114.098 195.841 113.882C195.378 113.543 194.934 113.216 194.502 112.901L194.737 112.833C194.329 113.814 193.959 114.715 193.638 115.493L193.57 115.66L193.447 115.542C192.416 114.555 191.787 113.919 191.824 113.888C191.855 113.851 192.54 114.425 193.613 115.37L193.422 115.413C193.725 114.629 194.076 113.722 194.459 112.728L194.533 112.543L194.7 112.66C195.132 112.975 195.582 113.296 196.045 113.635C196.347 113.858 196.637 114.074 196.921 114.277L196.681 114.339C197.119 113.376 197.52 112.481 197.878 111.698L197.952 111.537L198.081 111.654C198.736 112.228 199.272 112.71 199.637 113.049C199.982 113.376 200.18 113.574 200.167 113.598Z" fill="#343637"/>
<path d="M221.404 110.118C221.379 110.118 221.324 109.847 221.243 109.347C221.169 108.853 221.071 108.144 220.96 107.273L221.138 107.378C220.349 107.718 219.448 108.107 218.479 108.526L218.3 108.606L218.263 108.409C218.201 108.063 218.133 107.705 218.065 107.341C217.96 106.78 217.862 106.23 217.769 105.706L217.985 105.817C217.016 106.249 216.127 106.65 215.356 106.99L215.196 107.064L215.189 106.891C215.122 105.465 215.103 104.577 215.146 104.57C215.196 104.564 215.301 105.453 215.424 106.872L215.251 106.774C216.01 106.409 216.887 105.99 217.849 105.533L218.028 105.447L218.065 105.644C218.164 106.169 218.263 106.712 218.368 107.273C218.436 107.638 218.497 107.996 218.565 108.341L218.349 108.224C219.324 107.823 220.238 107.452 221.034 107.132L221.2 107.064L221.219 107.236C221.299 108.107 221.361 108.822 221.392 109.322C221.429 109.835 221.435 110.118 221.404 110.118Z" fill="#343637"/>
<path d="M191.811 103.533C191.824 103.558 191.583 103.706 191.151 103.953C190.719 104.199 190.083 104.545 189.318 104.958L189.355 104.755C189.954 105.372 190.639 106.075 191.373 106.835L191.509 106.977L191.342 107.081C191.046 107.267 190.731 107.452 190.417 107.649C189.929 107.945 189.454 108.236 188.997 108.507L189.028 108.26C189.781 109.013 190.466 109.704 191.065 110.297L191.188 110.42L191.028 110.488C189.719 111.062 188.892 111.395 188.874 111.352C188.855 111.309 189.645 110.895 190.929 110.266L190.898 110.463C190.287 109.883 189.584 109.211 188.812 108.476L188.664 108.34L188.837 108.236C189.294 107.958 189.763 107.668 190.25 107.365C190.571 107.174 190.88 106.983 191.176 106.804L191.145 107.051C190.423 106.279 189.75 105.563 189.164 104.934L189.04 104.804L189.195 104.73C189.979 104.347 190.627 104.033 191.083 103.829C191.54 103.613 191.799 103.508 191.811 103.533Z" fill="#263238"/>
<path d="M203.142 116.945C203.154 116.97 202.913 117.118 202.481 117.365C202.049 117.611 201.414 117.957 200.649 118.371L200.686 118.167C201.284 118.784 201.969 119.488 202.704 120.247L202.839 120.389L202.667 120.494C202.37 120.679 202.056 120.864 201.741 121.061C201.253 121.358 200.778 121.648 200.322 121.919L200.352 121.672C201.105 122.425 201.79 123.116 202.389 123.709L202.512 123.832L202.352 123.9C201.044 124.474 200.217 124.807 200.198 124.764C200.18 124.721 200.969 124.308 202.253 123.678L202.222 123.876C201.611 123.295 200.908 122.623 200.136 121.888L199.988 121.753L200.161 121.648C200.618 121.37 201.087 121.08 201.574 120.777C201.895 120.586 202.204 120.395 202.5 120.216L202.469 120.463C201.747 119.691 201.074 118.975 200.488 118.346L200.365 118.216L200.519 118.142C201.303 117.76 201.951 117.445 202.407 117.241C202.864 117.025 203.129 116.92 203.142 116.945Z" fill="#343637"/>
<path d="M180.649 116.766C180.625 116.772 180.544 116.5 180.421 116.013C180.298 115.525 180.137 114.828 179.946 113.976L180.137 114.063C179.378 114.476 178.52 114.945 177.595 115.451L177.422 115.544L177.366 115.352C177.268 115.013 177.169 114.667 177.07 114.309C176.916 113.76 176.768 113.223 176.626 112.711L176.854 112.804C175.928 113.328 175.077 113.803 174.349 114.217L174.194 114.303L174.17 114.13C173.966 112.717 173.867 111.828 173.91 111.822C173.96 111.816 174.145 112.686 174.404 114.093L174.225 114.007C174.947 113.575 175.786 113.075 176.7 112.532L176.873 112.427L176.928 112.625C177.076 113.137 177.224 113.668 177.385 114.223C177.483 114.581 177.582 114.933 177.675 115.266L177.446 115.167C178.384 114.68 179.255 114.223 180.02 113.828L180.174 113.748L180.205 113.921C180.365 114.778 180.489 115.488 180.569 115.982C180.643 116.476 180.674 116.759 180.649 116.766Z" fill="#343637"/>
<path d="M190.954 122.592C190.93 122.598 190.849 122.326 190.726 121.839C190.603 121.351 190.442 120.654 190.251 119.802L190.442 119.889C189.683 120.302 188.825 120.771 187.9 121.277L187.727 121.37L187.671 121.179C187.579 120.845 187.474 120.494 187.375 120.136C187.221 119.586 187.073 119.049 186.931 118.537L187.159 118.63C186.233 119.154 185.382 119.63 184.647 120.043L184.493 120.129L184.468 119.957C184.265 118.543 184.166 117.655 184.209 117.648C184.259 117.642 184.444 118.512 184.703 119.913L184.524 119.827C185.246 119.395 186.085 118.895 186.999 118.352L187.171 118.247L187.227 118.445C187.375 118.957 187.523 119.494 187.684 120.043C187.782 120.401 187.881 120.753 187.974 121.086L187.745 120.987C188.683 120.5 189.553 120.043 190.319 119.648L190.473 119.568L190.504 119.741C190.664 120.598 190.788 121.308 190.868 121.802C190.948 122.302 190.979 122.586 190.954 122.592Z" fill="#263238"/>
<path d="M175.866 135.439C175.842 135.446 175.761 135.174 175.638 134.687C175.515 134.199 175.354 133.502 175.163 132.65L175.354 132.736C174.595 133.15 173.737 133.619 172.812 134.125L172.639 134.218L172.583 134.026C172.485 133.693 172.386 133.341 172.287 132.983C172.133 132.434 171.985 131.897 171.843 131.385L172.071 131.477C171.145 132.002 170.294 132.477 169.559 132.891L169.405 132.977L169.381 132.804C169.177 131.391 169.078 130.502 169.121 130.496C169.171 130.49 169.356 131.36 169.615 132.767L169.436 132.681C170.158 132.249 170.997 131.749 171.911 131.206L172.083 131.101L172.139 131.298C172.287 131.811 172.435 132.341 172.596 132.897C172.694 133.255 172.793 133.607 172.886 133.94L172.657 133.841C173.595 133.354 174.466 132.897 175.231 132.502L175.385 132.422L175.416 132.594C175.576 133.452 175.7 134.162 175.78 134.656C175.86 135.156 175.891 135.433 175.866 135.439Z" fill="#343637"/>
<path d="M176.155 121.955C176.137 121.974 175.902 121.813 175.507 121.511C175.106 121.208 174.545 120.764 173.866 120.221L174.07 120.172C173.736 120.968 173.36 121.875 172.953 122.844L172.878 123.023L172.718 122.906C172.434 122.702 172.138 122.492 171.836 122.276C171.373 121.943 170.922 121.616 170.484 121.307L170.719 121.239C170.324 122.227 169.959 123.128 169.645 123.912L169.577 124.078L169.447 123.961C168.404 122.986 167.775 122.356 167.806 122.319C167.837 122.282 168.528 122.844 169.608 123.782L169.416 123.825C169.713 123.035 170.052 122.128 170.422 121.128L170.49 120.937L170.657 121.054C171.089 121.363 171.545 121.684 172.008 122.017C172.311 122.233 172.607 122.449 172.891 122.653L172.65 122.72C173.076 121.752 173.471 120.857 173.816 120.067L173.891 119.906L174.02 120.017C174.68 120.585 175.224 121.06 175.594 121.394C175.97 121.733 176.174 121.937 176.155 121.955Z" fill="#263238"/>
<path d="M181.536 122.32C181.549 122.344 181.32 122.511 180.907 122.789C180.493 123.066 179.889 123.455 179.148 123.918L179.167 123.708C179.808 124.282 180.543 124.936 181.327 125.64L181.475 125.769L181.314 125.887C181.03 126.09 180.734 126.3 180.432 126.516C179.963 126.849 179.512 127.164 179.074 127.473L179.086 127.226C179.889 127.923 180.623 128.565 181.259 129.114L181.394 129.232L181.24 129.312C179.975 129.978 179.179 130.367 179.154 130.33C179.13 130.287 179.889 129.818 181.123 129.102L181.104 129.299C180.456 128.763 179.704 128.145 178.883 127.467L178.729 127.337L178.895 127.22C179.327 126.911 179.778 126.59 180.247 126.257C180.549 126.041 180.845 125.831 181.135 125.627L181.123 125.874C180.352 125.158 179.63 124.486 179 123.899L178.87 123.776L179.019 123.69C179.771 123.251 180.395 122.893 180.839 122.653C181.271 122.418 181.524 122.295 181.536 122.32Z" fill="#263238"/>
<path d="M187.481 126.529C187.499 126.547 187.345 126.782 187.049 127.183C186.752 127.584 186.314 128.158 185.777 128.843L185.728 128.639C186.53 128.96 187.437 129.324 188.419 129.719L188.604 129.793L188.493 129.96C188.295 130.25 188.085 130.546 187.876 130.855C187.548 131.324 187.228 131.78 186.925 132.219L186.851 131.984C187.845 132.367 188.752 132.718 189.536 133.021L189.702 133.083L189.585 133.212C188.622 134.268 188.005 134.909 187.968 134.879C187.931 134.848 188.486 134.15 189.406 133.052L189.455 133.243C188.659 132.959 187.746 132.632 186.746 132.274L186.555 132.206L186.672 132.04C186.975 131.601 187.289 131.145 187.616 130.67C187.826 130.367 188.036 130.065 188.233 129.781L188.301 130.015C187.326 129.602 186.425 129.219 185.629 128.886L185.469 128.818L185.58 128.682C186.141 128.01 186.604 127.467 186.937 127.09C187.265 126.714 187.462 126.51 187.481 126.529Z" fill="#343637"/>
<path d="M184.098 136.588C184.104 136.588 184.129 136.656 184.172 136.792C184.215 136.946 184.277 137.143 184.351 137.396C184.499 137.933 184.721 138.723 184.974 139.754C185.221 140.784 185.542 142.043 185.758 143.549C185.894 144.296 185.82 145.172 185.443 145.962C185.079 146.758 184.548 147.511 183.863 148.203L183.894 148.098C185.511 155.769 187.776 166.526 190.288 178.43C192.725 190.138 194.904 200.74 196.44 208.418C197.212 212.256 197.823 215.367 198.224 217.521C198.427 218.601 198.576 219.434 198.668 220.002C198.761 220.569 198.792 220.878 198.767 220.878C198.767 220.878 198.717 220.582 198.606 220.014C198.489 219.428 198.316 218.601 198.1 217.545C197.65 215.385 197.008 212.281 196.218 208.461C194.614 200.777 192.411 190.187 189.973 178.492C187.504 166.581 185.271 155.818 183.678 148.141L183.666 148.079L183.709 148.036C185.018 146.721 185.9 145.067 185.585 143.568C185.388 142.081 185.085 140.815 184.857 139.779C184.616 138.76 184.425 137.97 184.295 137.409C184.234 137.149 184.184 136.946 184.147 136.792C184.104 136.662 184.092 136.588 184.098 136.588Z" fill="#455A64"/>
<path d="M171.109 138.069C171.127 138.062 171.202 138.204 171.3 138.488C171.399 138.766 171.498 139.192 171.535 139.723C171.615 140.772 171.362 142.333 170.344 143.641C169.319 144.95 167.869 145.579 166.832 145.752C166.308 145.845 165.876 145.851 165.58 145.826C165.283 145.801 165.123 145.764 165.129 145.74C165.129 145.678 165.783 145.764 166.789 145.524C167.777 145.302 169.128 144.672 170.097 143.438C171.053 142.203 171.337 140.735 171.319 139.723C171.288 138.698 171.047 138.087 171.109 138.069Z" fill="#455A64"/>
<path d="M181.444 138.729C181.432 138.716 181.469 138.642 181.592 138.562C181.716 138.482 181.938 138.42 182.203 138.482C182.463 138.531 182.79 138.778 182.833 139.167C182.882 139.531 182.703 139.981 182.277 140.166C181.845 140.333 181.407 140.142 181.179 139.858C180.932 139.562 180.957 139.167 181.074 138.932C181.327 138.432 181.734 138.42 181.716 138.463C181.741 138.506 181.42 138.605 181.284 139.019C181.216 139.216 181.228 139.475 181.401 139.667C181.568 139.858 181.889 139.975 182.154 139.87C182.413 139.765 182.561 139.451 182.537 139.204C182.524 138.945 182.333 138.772 182.135 138.704C181.722 138.55 181.463 138.766 181.444 138.729Z" fill="#455A64"/>
<path d="M194.485 140.099C194.503 140.129 194.077 140.395 193.287 140.512C192.516 140.629 191.343 140.531 190.307 139.858C189.27 139.185 188.696 138.161 188.492 137.402C188.276 136.636 188.35 136.136 188.381 136.143C188.437 136.136 188.449 136.624 188.708 137.334C188.961 138.037 189.523 138.963 190.486 139.586C191.448 140.203 192.528 140.339 193.269 140.284C194.022 140.234 194.466 140.049 194.485 140.099Z" fill="#455A64"/>
<path d="M201.261 234.455C201.261 234.479 201.045 234.504 200.644 234.529C200.175 234.553 199.613 234.584 198.965 234.621C197.459 234.695 195.546 234.782 193.423 234.887C191.3 234.998 189.381 235.096 187.882 235.17C187.227 235.201 186.672 235.226 186.203 235.245C185.808 235.257 185.586 235.251 185.586 235.232C185.586 235.208 185.802 235.17 186.197 235.121C186.592 235.072 187.166 235.01 187.869 234.948C189.282 234.819 191.245 234.677 193.411 234.566C195.577 234.461 197.539 234.405 198.965 234.399C199.675 234.393 200.249 234.399 200.65 234.405C201.045 234.418 201.261 234.43 201.261 234.455Z" fill="#455A64"/>
<path d="M173.089 145.109C173.175 145.091 178.038 165.123 183.944 189.853C189.856 214.594 194.571 234.657 194.484 234.676C194.398 234.695 189.541 214.668 183.629 189.927C177.724 165.198 173.003 145.128 173.089 145.109Z" fill="#455A64"/>
<path d="M188.882 145.881C188.888 145.875 188.925 145.925 188.993 146.011C189.073 146.116 189.172 146.252 189.295 146.412C189.573 146.789 189.955 147.313 190.437 147.98C191.436 149.368 192.85 151.349 194.596 153.787C196.349 156.249 198.428 159.181 200.736 162.427C201.89 164.056 203.094 165.766 204.347 167.537C205.562 169.321 206.809 171.308 207.148 173.659C207.482 176.011 206.79 178.269 206.075 180.3C205.334 182.342 204.593 184.299 203.871 186.163C202.434 189.884 201.057 193.204 199.866 195.981C198.675 198.752 197.669 200.98 196.96 202.511C196.608 203.258 196.33 203.844 196.133 204.27C196.04 204.455 195.966 204.603 195.911 204.72C195.861 204.819 195.83 204.874 195.824 204.868C195.818 204.868 195.837 204.813 195.88 204.708C195.929 204.584 195.997 204.43 196.077 204.239C196.262 203.807 196.522 203.214 196.849 202.455C197.521 200.906 198.496 198.672 199.656 195.889C200.817 193.105 202.168 189.779 203.594 186.058C204.303 184.194 205.038 182.238 205.772 180.195C206.482 178.171 207.148 175.961 206.821 173.702C206.5 171.444 205.285 169.487 204.081 167.716C202.835 165.939 201.631 164.229 200.49 162.594C198.206 159.329 196.145 156.391 194.411 153.917C192.702 151.454 191.313 149.455 190.332 148.048C189.869 147.369 189.499 146.832 189.24 146.443C189.128 146.27 189.036 146.134 188.962 146.023C188.906 145.937 188.875 145.888 188.882 145.881Z" fill="#455A64"/>
<path d="M220.242 96.9111L234.029 86.8516L234.701 87.9316L221.007 98.1145L220.242 96.9111Z" fill="#263238"/>
<path d="M223.648 96.6033C223.648 96.6033 225.5 91.7896 225.913 90.7651C226.327 89.7407 227.036 87.9571 227.296 87.9201C227.561 87.883 228.524 88.0373 227.265 91.0984C226.006 94.1594 228.752 92.2895 228.752 92.2895L231.406 90.3887C231.406 90.3887 233.504 96.6527 232.307 98.5412C231.017 100.578 229.159 102.528 229.159 102.528L223.648 96.6033Z" fill="#FFBE9D"/>
</g>
<defs>
<clipPath id="clip0_1832_167481">
<rect width="251" height="251" fill="white"/>
</clipPath>
</defs>
</svg>
