<svg width="50" height="50" viewBox="0 0 50 50" fill="none" xmlns="http://www.w3.org/2000/svg">
<g clip-path="url(#clip0_1204_89404)">
<path d="M21.4107 22.9019C21.4107 20.8654 20.3013 19.7704 18.2427 19.7691C13.2051 19.7678 8.16758 19.7665 3.13003 19.7691C1.12262 19.7704 0.00141792 20.8941 0.00141792 22.8954C0.000105031 28.8029 0.00141792 34.7092 0.00141792 40.6167C0.00141792 42.7808 -0.00252074 44.9449 0.00273081 47.1089C0.00535658 48.2235 0.477996 49.0868 1.46004 49.648C1.70948 49.7912 1.98913 49.8837 2.25433 49.9996H19.0921C20.9354 49.2912 21.412 48.5894 21.412 46.579C21.412 38.6858 21.4133 30.7938 21.4107 22.9019ZM6.93609 21.0842H14.4471C14.4471 21.454 14.4944 21.8264 14.4366 22.1831C14.3631 22.6363 13.9338 22.9501 13.427 22.9527C11.6244 22.9644 9.8205 22.9657 8.0166 22.954C7.39823 22.9501 7.00305 22.5777 6.94134 21.9696C6.91246 21.6844 6.93609 21.3941 6.93609 21.0842ZM18.1941 48.7222H3.13397C1.86703 48.7222 1.29067 48.1597 1.29067 46.9162C1.28936 38.8954 1.28936 30.8732 1.29067 22.8524C1.29067 21.6219 1.85259 21.0634 3.08933 21.0607C3.90726 21.0594 4.7265 21.0607 5.59432 21.0607C5.62451 21.51 5.62189 21.9006 5.68228 22.2808C5.8569 23.3863 6.75097 24.2079 7.8748 24.2248C9.76011 24.2548 11.6467 24.2574 13.5333 24.2248C14.7517 24.2053 15.6904 23.2522 15.7626 22.049C15.7797 21.743 15.7653 21.4371 15.7653 21.1037C16.8825 21.1037 17.9446 21.0594 18.9989 21.1219C19.5516 21.1545 20.0111 21.7456 20.086 22.3055C20.1135 22.5139 20.1122 22.7274 20.1122 22.9384C20.1135 30.8941 20.1135 38.8511 20.1135 46.8068C20.1135 48.204 19.5923 48.7222 18.1941 48.7222Z" fill="#AD83C5"/>
<path d="M49.9981 3.10937C49.9994 9.18099 49.9981 15.2513 49.9981 21.3229V21.849H48.7088V21.2422C48.7088 15.2201 48.7101 9.19792 48.7088 3.17578C48.7088 1.8151 48.1692 1.27734 46.8091 1.27734H5.8483C4.51572 1.27734 3.97218 1.81641 3.97218 3.14453C3.97087 7.84896 3.97087 12.5521 3.97087 17.2552V17.9375H2.67636V17.3919C2.67636 12.6224 2.67505 7.85417 2.67636 3.08464C2.67768 1.12109 3.81333 0 5.79579 0H46.8563C48.8677 0 49.9981 1.11719 49.9981 3.10937Z" fill="#680A83"/>
<path d="M38.0809 4.17546C34.1751 4.17285 30.2692 4.17415 26.3647 4.17415C22.4431 4.17415 18.5202 4.17285 14.5986 4.17546C12.7002 4.17546 11.5672 5.29004 11.5606 7.17546C11.5527 9.24186 11.5527 11.3096 11.5606 13.376C11.5685 15.2419 12.7264 16.3799 14.6131 16.3799C22.4392 16.3825 30.2666 16.3838 38.094 16.3799C39.9675 16.3799 41.1347 15.2171 41.1386 13.3617C41.1413 11.3109 41.1413 9.26139 41.1386 7.21061C41.136 5.30306 40.0004 4.17546 38.0809 4.17546ZM39.8494 13.3421C39.8481 14.501 39.2625 15.0921 38.1006 15.0921C30.2574 15.0947 22.4155 15.0947 14.5724 15.0921C13.4315 15.0921 12.859 14.514 12.8577 13.3695C12.8538 11.3031 12.8538 9.23665 12.8577 7.17025C12.859 6.00358 13.4249 5.4515 14.617 5.4515C18.5386 5.44889 22.4602 5.4502 26.3805 5.4502C30.2535 5.4502 34.1252 5.4502 37.9969 5.4515C39.3019 5.4515 39.8494 5.99577 39.8507 7.28874C39.852 9.30566 39.8533 11.3239 39.8494 13.3421Z" fill="#680A83"/>
<path d="M49.9984 27.7734C49.9997 28.8801 49.9997 29.9856 49.9984 31.0924C49.9984 33.1562 48.8838 34.2695 46.8173 34.2695C42.2892 34.2708 37.761 34.2695 33.2316 34.2695H32.6053V40.4075H34.1453V41.6692H23.3757V40.4374H31.2294V34.2708H23.3783V32.9895H46.7858C48.1735 32.9895 48.7105 32.4518 48.7092 31.0624C48.7092 30.1184 48.7052 29.1744 48.7013 28.2304C48.7013 28.2004 48.6816 28.1705 48.6501 28.0768H23.3691V26.7994C23.5319 26.7916 23.7039 26.776 23.8759 26.776C32.2443 26.776 40.6126 26.7747 48.9796 26.776C49.812 26.776 49.9971 26.9583 49.9984 27.7734Z" fill="#680A83"/>
<path d="M29.6022 20.1992C28.6727 21.3633 27.7786 22.5 26.8635 23.6198C26.6128 23.9271 26.2491 23.9492 25.934 23.7279C25.3078 23.2878 24.7065 22.8138 24.0645 22.3307C24.3336 21.9818 24.5791 21.6641 24.8456 21.319C25.313 21.6667 25.7541 21.9974 26.236 22.3555C27.0224 21.3698 27.7996 20.3971 28.5965 19.3984C28.9392 19.6706 29.253 19.9206 29.6022 20.1992Z" fill="#680A83"/>
<path d="M49.9704 23.4482H48.7363V24.8792H49.9704V23.4482Z" fill="#AD83C5"/>
<path d="M17.3316 36.1654C16.4874 34.3503 16.5465 32.4727 17.4156 30.6433C17.6362 30.1771 17.5456 29.8959 17.0808 29.629C16.2878 29.1732 15.4962 28.7084 14.6809 28.2943C14.4445 28.1758 14.1071 28.1394 13.8485 28.2019C12.9255 28.4219 12.0209 28.7136 11.1006 28.9467C10.8604 29.0079 10.5781 29.0066 10.3391 28.9454C9.40174 28.7084 8.48009 28.418 7.54137 28.1928C7.29849 28.1342 6.97946 28.1745 6.75758 28.2878C5.94228 28.7045 5.15061 29.168 4.355 29.6224C3.86266 29.9024 3.77864 30.1615 4.01496 30.6706C4.88278 32.5391 4.89066 34.4362 4.04253 36.2878C3.6421 37.1615 3.6723 37.9831 3.89155 38.8438C4.65696 41.8451 7.32869 43.8178 10.6542 43.879C11.0442 43.836 11.438 43.8112 11.8253 43.7474C14.4432 43.3099 16.3968 42.0105 17.3303 39.461C17.7268 38.3803 17.8685 37.3191 17.3316 36.1654ZM16.3915 37.9402C16.0554 40.267 14.5771 41.7878 12.1575 42.3685C10.4153 42.7865 8.79781 42.461 7.30243 41.5599C5.85431 40.6888 5.13748 39.3412 5.01144 37.681C4.997 37.4961 5.03376 37.2878 5.11122 37.1185C6.08932 35.0118 6.23111 32.8685 5.42237 30.6771C5.40662 30.6342 5.4145 30.5834 5.41056 30.4987C5.96854 30.1849 6.52914 29.8503 7.11075 29.5586C7.26173 29.4831 7.49411 29.5 7.66872 29.5469C8.49191 29.7618 9.30196 30.0313 10.1304 30.2201C10.4941 30.3021 10.9076 30.306 11.27 30.224C12.1155 30.0339 12.9413 29.7605 13.7802 29.543C13.9535 29.4974 14.1833 29.4935 14.3356 29.5704C14.9027 29.8568 15.4502 30.1849 16.0489 30.5222C15.1601 32.8295 15.3163 35.0469 16.3482 37.2292C16.4441 37.4297 16.4244 37.7084 16.3915 37.9402Z" fill="#680A83"/>
<path d="M18.8725 10.2695C19.4094 10.6471 19.8978 10.9896 20.4085 11.349C20.1552 11.7122 19.9241 12.0404 19.6799 12.3893C19.2585 12.1029 18.8712 11.8411 18.4038 11.5247V13.043H17.1184V11.5039C16.6222 11.8359 16.2244 12.1029 15.799 12.3867C15.5509 12.0365 15.3185 11.7096 15.0664 11.3529C15.5745 10.9935 16.0629 10.6497 16.6064 10.2682C16.0773 9.89714 15.6008 9.5638 15.0743 9.19401C15.3093 8.85156 15.5338 8.52474 15.7951 8.14323C16.2309 8.44141 16.6182 8.70443 17.0791 9.01823V7.51953H18.3696V9.02474C18.8462 8.70833 19.244 8.44531 19.676 8.15755C19.9215 8.5026 20.1525 8.82813 20.4112 9.1888C19.8926 9.55339 19.4042 9.89583 18.8725 10.2695Z" fill="#AD83C5"/>
<path d="M27.4852 10.2686C28.0038 10.637 28.4856 10.9808 29.0055 11.3506C28.7626 11.6982 28.5329 12.0251 28.2782 12.3896C27.858 12.1032 27.4602 11.8337 26.981 11.5081V13.0472H25.6957V11.5146C25.2309 11.8271 24.8345 12.0954 24.3973 12.3896C24.1504 12.0394 23.922 11.7139 23.6699 11.3558C24.1754 10.9977 24.652 10.6605 25.2047 10.2686C24.69 9.90788 24.2069 9.56803 23.6765 9.19434C23.9089 8.85449 24.1334 8.52637 24.3894 8.15137C24.8108 8.43132 25.2099 8.69694 25.6826 9.01335V7.50293H26.9653V9.04199C27.451 8.71257 27.8475 8.44303 28.2782 8.15137C28.5224 8.49512 28.7455 8.81022 29.0068 9.18132C28.5092 9.53678 28.0261 9.88184 27.4852 10.2686Z" fill="#AD83C5"/>
<path d="M36.0815 10.2669C36.6198 10.6497 37.1069 10.9974 37.6097 11.3542C37.3563 11.7148 37.1226 12.0456 36.8784 12.3919C36.4623 12.1055 36.0736 11.8385 35.5971 11.5117V13.0443H34.296V11.5117C33.8128 11.8411 33.4255 12.1042 33.0094 12.388C32.7652 12.0495 32.5302 11.7227 32.2676 11.3594C32.7717 11.0013 33.2601 10.6549 33.801 10.2708C33.2851 9.90495 32.7993 9.55859 32.2768 9.1862C32.5157 8.84375 32.7442 8.51693 33.0015 8.14714C33.4321 8.4401 33.8089 8.69531 34.275 9.01172V7.50391H35.5695V9.03906C36.0579 8.70703 36.4517 8.4401 36.8798 8.14844C37.1266 8.4987 37.3576 8.82682 37.6123 9.1875C37.0951 9.55208 36.6067 9.89583 36.0815 10.2669Z" fill="#AD83C5"/>
<path d="M13.3241 34.3896C12.8554 34.9821 12.4051 35.5524 11.9522 36.1201C11.5268 36.6566 11.1067 37.1956 10.6708 37.723C10.3465 38.1162 9.99202 38.1774 9.59947 37.8936C9.00473 37.4652 8.42575 37.0133 7.79688 36.5381C8.04895 36.2008 8.28658 35.8805 8.55835 35.5147C9.02968 35.8649 9.48 36.1995 9.95789 36.555C10.7482 35.5641 11.5176 34.6006 12.3132 33.6045C12.6519 33.8675 12.967 34.1123 13.3241 34.3896Z" fill="#AD83C5"/>
</g>
<defs>
<clipPath id="clip0_1204_89404">
<rect width="50" height="50" fill="white"/>
</clipPath>
</defs>
</svg>
