<svg width="251" height="251" viewBox="0 0 251 251" fill="none" xmlns="http://www.w3.org/2000/svg">
<g clip-path="url(#clip0_1187_87172)">
<path d="M231.456 150.078V176.252C231.456 180.985 227.618 184.824 222.884 184.824H129.033C124.3 184.824 120.461 180.985 120.461 176.252V154.133L108.779 141.858L222.86 141.5C227.599 141.488 231.456 145.333 231.456 150.078Z" fill="#F5F5F5"/>
<path d="M134.297 157.36L219.453 156.965L219.447 154.349L134.285 154.744L134.297 157.36Z" fill="#E6E6E6"/>
<path d="M134.297 165.97L219.453 165.582L219.447 162.965L134.285 163.354L134.297 165.97Z" fill="#E6E6E6"/>
<path d="M167.982 171.585L134.287 171.751L134.3 174.368L167.995 174.202L167.982 171.585Z" fill="#E6E6E6"/>
<path d="M65.1367 0H120.492C123.232 0 125.454 2.22173 125.454 4.96186V32.0361C125.454 34.7763 123.232 36.998 120.492 36.998H73.5233C70.7833 36.998 68.5617 34.7763 68.5617 32.0361V3.419L65.1367 0Z" fill="#F5F5F5"/>
<path d="M134.68 49.2853V59.0054C134.68 60.3693 135.784 61.474 137.148 61.474H191.491C192.855 61.474 193.96 60.3693 193.96 59.0054V53.6917L200.199 47.0142L137.154 46.8105C135.79 46.8105 134.68 47.9214 134.68 49.2853Z" fill="#F0F0F0"/>
<path d="M98.0407 29.9379V47.2982C98.0407 50.4395 95.492 52.9883 92.3509 52.9883H30.1146C26.9735 52.9883 24.4248 50.4395 24.4248 47.2982V32.6348L16.6738 24.4885L92.3385 24.254C95.4858 24.2416 98.0407 26.7904 98.0407 29.9379Z" fill="#E0E0E0"/>
<path d="M33.6019 34.7698L90.0866 34.5105L90.0804 32.7764L33.5957 33.0356L33.6019 34.7698Z" fill="#F0F0F0"/>
<path d="M33.6019 40.4849L90.0866 40.2195L90.0804 38.4854L33.5957 38.7446L33.6019 40.4849Z" fill="#F0F0F0"/>
<path d="M55.9376 44.2074L33.5918 44.3174L33.6003 46.0516L55.9461 45.9416L55.9376 44.2074Z" fill="#F0F0F0"/>
<path d="M6.30664 87.2278V113.401C6.30664 118.135 10.1451 121.973 14.8784 121.973H108.723C113.457 121.973 117.295 118.135 117.295 113.401V91.2824L128.977 79.0074L14.8969 78.6494C10.1575 78.6433 6.30664 82.4819 6.30664 87.2278Z" fill="#F0F0F0"/>
<path d="M103.465 94.5104L18.3086 94.1216L18.3148 91.5049L103.477 91.8937L103.465 94.5104Z" fill="#E6E6E6"/>
<path d="M103.465 103.126L18.3086 102.731L18.3148 100.114L103.477 100.509L103.465 103.126Z" fill="#E6E6E6"/>
<path d="M69.7824 108.736L69.7695 111.353L103.464 111.518L103.477 108.902L69.7824 108.736Z" fill="#E6E6E6"/>
<path d="M190.53 25.5389C193.112 19.7975 190.552 13.0499 184.811 10.4675C179.07 7.88516 172.322 10.446 169.74 16.1874C167.158 21.9287 169.719 28.6764 175.46 31.2588C181.201 33.8411 187.948 31.2802 190.53 25.5389Z" fill="#F5F5F5"/>
<path d="M176.206 17.9962C176.638 17.9591 177.027 18.4343 177.082 19.0577C177.132 19.681 176.823 20.2179 176.391 20.2488C175.959 20.2858 175.57 19.8106 175.515 19.1873C175.466 18.5639 175.774 18.027 176.206 17.9962Z" fill="#E0E0E0"/>
<path d="M177.206 15.1079C177.2 15.2067 176.243 15.1141 175.176 15.5214C174.102 15.9102 173.436 16.5952 173.361 16.5274C173.287 16.4842 173.898 15.6387 175.059 15.2128C176.225 14.7808 177.237 15.0277 177.206 15.1079Z" fill="#E0E0E0"/>
<path d="M183.45 17.8482C183.018 17.8296 182.647 18.3234 182.617 18.9467C182.592 19.57 182.919 20.0946 183.357 20.1131C183.789 20.1316 184.159 19.6379 184.19 19.0146C184.215 18.3851 183.882 17.8605 183.45 17.8482Z" fill="#E0E0E0"/>
<path d="M182.327 15.0026C182.296 14.9224 183.296 14.6324 184.474 15.0212C185.653 15.3976 186.295 16.2184 186.227 16.2616C186.159 16.3357 185.468 15.6753 184.376 15.3297C183.29 14.9718 182.339 15.1014 182.327 15.0026Z" fill="#E0E0E0"/>
<path d="M185.758 20.7483C185.777 20.7483 185.764 20.9705 185.678 21.3593C185.592 21.7481 185.394 22.2974 185.018 22.9083C184.641 23.5193 184.067 24.1673 183.277 24.7042C182.494 25.2412 181.488 25.6423 180.383 25.7102C179.279 25.7596 178.229 25.4633 177.396 25.0128C176.557 24.5623 175.915 23.9698 175.483 23.4021C175.045 22.8343 174.792 22.3097 174.662 21.9333C174.533 21.5568 174.502 21.3408 174.521 21.3346C174.588 21.3038 174.767 22.1925 175.662 23.2539C176.1 23.7785 176.736 24.3278 177.538 24.7413C178.341 25.1609 179.328 25.4263 180.365 25.3769C181.401 25.3152 182.358 24.9449 183.111 24.4512C183.87 23.9513 184.438 23.3465 184.82 22.7787C185.604 21.6308 185.69 20.7298 185.758 20.7483Z" fill="#E0E0E0"/>
<path d="M23.5176 148.973H25.1653L28.7692 144.172V141.018C28.7692 141.018 31.3179 140.87 31.0217 144.993C30.7193 149.121 31.0464 148.066 31.0464 148.066C31.0464 148.066 36.4647 148.085 36.9152 148.535C37.2423 148.862 37.3904 154.009 37.4459 156.799C37.4768 158.206 36.5758 159.508 35.2058 159.841C35.0145 159.891 34.817 159.915 34.6257 159.915C33.2742 159.915 26.3748 158.866 26.3748 158.866H23.5237V148.973H23.5176Z" fill="#F0F0F0"/>
<path d="M18.7969 148.109L19.8089 158.903H22.6353V148.325L18.7969 148.109Z" fill="#F0F0F0"/>
<path d="M250.413 55.1364C249.641 54.2168 248.253 54.2539 247.358 54.9883C246.469 55.7289 246.081 56.562 245.97 57.8086C245.698 56.5929 245.13 55.8153 244.143 55.2043C243.155 54.5871 241.761 54.7414 241.113 55.7535C240.736 56.346 240.656 57.1421 240.804 57.858C240.946 58.5801 241.199 59.3145 241.681 59.8267C243.39 61.6473 244.272 61.9312 246.389 63.1655C248.315 61.6658 248.938 61.2832 250.382 59.2589C250.789 58.6912 250.943 57.9259 250.987 57.1915C251.036 56.4571 250.863 55.6795 250.413 55.1364Z" fill="#F0F0F0"/>
<path d="M148.713 221.648L84.4831 221.352C76.7568 221.315 70.5239 215.026 70.5548 207.3L71.2336 46.2673C71.2645 38.5406 77.5591 32.3013 85.2916 32.3321L149.521 32.6284C157.247 32.6654 163.48 38.9541 163.449 46.6808L162.771 207.713C162.74 215.44 156.445 221.679 148.713 221.648Z" fill="#263238"/>
<path d="M149.434 38.1886L136.98 38.1331C135.308 38.1269 133.95 39.534 133.944 41.2805L133.932 43.5393C133.926 45.2858 132.562 46.6929 130.896 46.6867L106.624 46.5756C104.952 46.5695 103.607 45.1439 103.613 43.3973L103.625 41.1386C103.631 39.392 102.286 37.9726 100.614 37.9664L96.2321 37.9479L85.3338 37.8985C79.9217 37.8739 75.5155 42.2433 75.4908 47.6556L74.8243 204.831C74.7996 210.243 79.1688 214.65 84.5748 214.674L148.675 214.97C154.087 214.995 158.493 210.626 158.518 205.213L159.184 48.0383C159.209 42.6197 154.84 38.2133 149.434 38.1886Z" fill="white"/>
<path d="M114.196 195.13C114.196 195.87 113.592 196.475 112.851 196.475C112.111 196.475 111.506 195.87 111.506 195.13C111.506 194.389 112.111 193.784 112.851 193.784C113.592 193.784 114.196 194.383 114.196 195.13Z" fill="#455A64"/>
<path d="M119.306 195.13C119.306 195.87 118.701 196.475 117.961 196.475C117.22 196.475 116.615 195.87 116.615 195.13C116.615 194.389 117.22 193.784 117.961 193.784C118.701 193.784 119.306 194.383 119.306 195.13Z" fill="#455A64"/>
<path d="M124.415 195.13C124.415 195.87 123.81 196.475 123.07 196.475C122.329 196.475 121.725 195.87 121.725 195.13C121.725 194.389 122.329 193.784 123.07 193.784C123.817 193.784 124.415 194.383 124.415 195.13Z" fill="#455A64"/>
<path d="M87.4276 82.0369C87.4276 82.0369 87.4214 81.9197 87.4276 81.6913C87.4337 81.463 87.4769 81.1235 87.5942 80.6915C87.7238 80.2657 87.9336 79.7473 88.3285 79.2166C88.7173 78.692 89.2851 78.1489 90.0688 77.7848C90.834 77.3775 91.8338 77.2849 92.8582 77.3219C93.8949 77.3219 95.0243 77.3219 96.24 77.3219C98.6714 77.3219 101.448 77.3219 104.534 77.3281C116.889 77.3528 134.168 77.3898 153.891 77.4268H154.255L154.002 77.6922C151.99 79.809 149.849 82.0616 147.677 84.3451L147.72 84.234C147.72 86.3446 147.72 88.6034 147.72 90.8806C147.72 92.3495 147.72 93.8059 147.72 95.2562C147.714 95.9659 147.763 96.725 147.553 97.4471C147.368 98.1692 147.01 98.8418 146.517 99.3911C146.029 99.9404 145.418 100.391 144.739 100.662C144.067 100.946 143.314 101.039 142.604 101.02C141.197 101.02 139.802 101.02 138.42 101.02C132.891 101.014 127.553 101.014 122.474 101.008C112.31 100.996 103.158 100.983 95.4686 100.971C94.5059 100.971 93.5679 100.965 92.6545 100.965C91.7535 100.996 90.797 100.903 90.0133 100.49C88.4026 99.7244 87.4275 98.0951 87.3473 96.5461C87.3226 93.4788 87.3535 90.8621 87.3597 88.7083C87.372 86.5668 87.3844 84.9005 87.3905 83.7588C87.3967 83.1972 87.4029 82.7713 87.409 82.4689C87.4214 82.185 87.4276 82.0369 87.4276 82.0369C87.4276 82.0369 87.4399 82.185 87.4461 82.4751C87.4522 82.7775 87.4522 83.2033 87.4646 83.7649C87.4707 84.9067 87.4831 86.573 87.4954 88.7145C87.5139 90.8621 87.4954 93.4973 87.5386 96.5399C87.6189 98.0334 88.5692 99.5824 90.112 100.311C90.8772 100.706 91.7535 100.786 92.6669 100.755C93.5802 100.755 94.5182 100.749 95.4809 100.749C103.17 100.736 112.322 100.73 122.486 100.712C127.571 100.712 132.903 100.706 138.432 100.699C139.815 100.699 141.209 100.699 142.616 100.699C143.314 100.712 143.993 100.625 144.628 100.36C145.264 100.101 145.832 99.6873 146.288 99.1689C146.751 98.6567 147.084 98.0272 147.257 97.3545C147.448 96.688 147.405 95.9721 147.411 95.2439C147.411 93.7936 147.411 92.3371 147.411 90.8683C147.411 88.591 147.411 86.3384 147.411 84.2216V84.1599L147.455 84.1105C149.633 81.8271 151.774 79.5745 153.786 77.4577L153.897 77.7231C134.174 77.6367 116.895 77.5688 104.54 77.5132C101.455 77.4947 98.6776 77.4762 96.2462 77.4639C95.0304 77.4577 93.9011 77.4453 92.8644 77.4392C91.8276 77.396 90.8834 77.4762 90.1244 77.865C89.3591 78.2168 88.7976 78.7352 88.4026 79.2474C88.0076 79.7597 87.7916 80.2719 87.6559 80.6854C87.409 81.5679 87.4584 82.0431 87.4276 82.0369Z" fill="#455A64"/>
<path d="M140.073 85.987L93.9316 85.771L93.9378 84.3516L140.08 84.5676L140.073 85.987Z" fill="#455A64"/>
<path d="M140.073 90.652L93.9316 90.436L93.9378 89.0166L140.08 89.2326L140.073 90.652Z" fill="#455A64"/>
<path d="M121.823 93.6899L121.816 95.1094L140.071 95.1992L140.078 93.7797L121.823 93.6899Z" fill="#455A64"/>
<path d="M150.163 113.29V127.472C150.163 130.039 148.084 132.119 145.516 132.119H94.666C92.0988 132.119 90.0191 130.039 90.0191 127.472V115.487L83.6875 108.834L145.498 108.643C148.071 108.636 150.163 110.722 150.163 113.29Z" fill="#680A83"/>
<path d="M97.5179 117.24L143.66 117.024L143.654 115.604L97.5117 115.82L97.5179 117.24Z" fill="white"/>
<path d="M97.5179 121.905L143.66 121.689L143.654 120.27L97.5117 120.486L97.5179 121.905Z" fill="white"/>
<path d="M115.77 124.947L97.5156 125.037L97.5226 126.457L115.777 126.367L115.77 124.947Z" fill="white"/>
<path d="M122.48 58.9622C123.344 58.5981 123.961 57.7094 123.967 56.6541C123.973 55.2778 122.93 54.1546 121.64 54.1485C120.35 54.1423 119.295 55.2532 119.289 56.6294C119.283 57.6909 119.906 58.5919 120.776 58.956C117.179 59.4991 117.339 63.4118 117.339 63.4118L125.849 63.4489C125.855 63.455 126.046 59.4991 122.48 58.9622Z" fill="#680A83"/>
<path opacity="0.5" d="M122.48 58.9622C123.344 58.5981 123.961 57.7094 123.967 56.6541C123.973 55.2778 122.93 54.1546 121.64 54.1485C120.35 54.1423 119.295 55.2532 119.289 56.6294C119.283 57.6909 119.906 58.5919 120.776 58.956C117.179 59.4991 117.339 63.4118 117.339 63.4118L125.849 63.4489C125.855 63.455 126.046 59.4991 122.48 58.9622Z" fill="white"/>
<path d="M117.808 58.9622C118.672 58.5981 119.289 57.7094 119.295 56.6541C119.301 55.2778 118.258 54.1546 116.968 54.1485C115.679 54.1423 114.623 55.2532 114.617 56.6294C114.611 57.6909 115.234 58.5919 116.104 58.956C112.507 59.4991 112.667 63.4118 112.667 63.4118L121.177 63.4489C121.183 63.455 121.375 59.4991 117.808 58.9622Z" fill="#680A83"/>
<path d="M130.812 65.218L107.936 65.1123L107.922 67.9512L130.799 68.0569L130.812 65.218Z" fill="#680A83"/>
<path opacity="0.3" d="M130.812 65.218L107.936 65.1123L107.922 67.9512L130.799 68.0569L130.812 65.218Z" fill="white"/>
<path d="M88.5008 145.609C88.5008 145.609 88.4884 145.492 88.5131 145.27C88.5378 145.048 88.6057 144.708 88.8279 144.332C89.0438 143.955 89.4388 143.53 90.0374 143.277C90.6483 142.999 91.4136 143.11 92.2343 143.085C95.5668 143.085 100.386 143.085 106.385 143.079C118.4 143.104 135.13 143.141 154.026 143.178H154.39L154.137 143.443C152.144 145.579 150.034 147.831 147.898 150.121L147.941 150.01C147.941 150.176 147.941 150.355 147.941 150.54C147.941 151.861 147.941 153.176 147.941 154.484C147.935 154.817 147.948 155.126 147.935 155.471C147.917 155.817 147.83 156.156 147.676 156.471C147.38 157.095 146.825 157.588 146.177 157.81C145.856 157.928 145.498 157.965 145.177 157.959H144.214C143.572 157.959 142.937 157.959 142.301 157.959C141.03 157.959 139.777 157.959 138.53 157.959C133.544 157.952 128.731 157.952 124.152 157.946C114.987 157.934 106.737 157.921 99.8002 157.909C98.0661 157.903 96.4184 157.903 94.8571 157.897C94.0734 157.897 93.3205 157.891 92.5799 157.891C92.2097 157.891 91.8517 157.891 91.4938 157.891C91.142 157.884 90.7841 157.915 90.4262 157.829C89.7227 157.681 89.1364 157.23 88.7908 156.669C88.618 156.385 88.5008 156.076 88.4514 155.768C88.3959 155.453 88.4206 155.144 88.4144 154.854C88.4206 153.676 88.4267 152.602 88.4267 151.627C88.4391 149.695 88.4514 148.195 88.4576 147.165C88.4638 146.665 88.4699 146.276 88.4761 146.004C88.4884 145.745 88.5008 145.609 88.5008 145.609C88.5008 145.609 88.5131 145.745 88.5193 146.004C88.5255 146.276 88.5255 146.665 88.5378 147.165C88.544 148.195 88.5563 149.701 88.5687 151.627C88.5748 152.596 88.5748 153.676 88.581 154.854C88.5872 155.151 88.5687 155.453 88.6242 155.743C88.6736 156.033 88.7847 156.323 88.9513 156.588C89.2783 157.113 89.8338 157.527 90.4817 157.662C90.8026 157.736 91.1482 157.705 91.5123 157.712C91.8702 157.712 92.2282 157.712 92.5984 157.712C93.3328 157.712 94.0919 157.705 94.8756 157.705C96.4369 157.699 98.0846 157.699 99.8187 157.693C106.755 157.681 115.006 157.668 124.17 157.656C128.755 157.656 133.563 157.65 138.549 157.644C139.796 157.644 141.054 157.644 142.32 157.644C142.955 157.644 143.591 157.644 144.233 157.644H145.195C145.51 157.644 145.8 157.613 146.09 157.514C146.658 157.317 147.145 156.885 147.405 156.335C147.534 156.064 147.614 155.761 147.627 155.459C147.639 155.151 147.633 154.811 147.633 154.49C147.633 153.182 147.633 151.867 147.633 150.547C147.633 150.368 147.633 150.182 147.633 150.016V149.954L147.676 149.905C149.818 147.615 151.922 145.363 153.915 143.227L154.032 143.493C135.136 143.412 118.406 143.338 106.391 143.289C100.393 143.252 95.5729 143.215 92.2405 143.196C91.4136 143.215 90.6607 143.098 90.0744 143.357C89.4882 143.591 89.0994 143.999 88.8834 144.363C88.6551 144.727 88.581 145.06 88.5502 145.276C88.507 145.498 88.507 145.609 88.5008 145.609Z" fill="#455A64"/>
<path d="M142.14 149.349L95.998 149.139L96.0042 147.72L142.146 147.936L142.14 149.349Z" fill="#455A64"/>
<path d="M123.429 152.404L123.422 153.823L142.145 153.915L142.152 152.495L123.429 152.404Z" fill="#455A64"/>
<path d="M148.541 170.925V180.645C148.541 182.009 147.436 183.114 146.072 183.114H91.729C90.3652 183.114 89.2605 182.009 89.2605 180.645V175.331L83.0215 168.654L146.066 168.45C147.43 168.45 148.541 169.555 148.541 170.925Z" fill="#680A83"/>
<path d="M94.8948 174.664L141.037 174.455L141.031 173.035L94.8887 173.245L94.8948 174.664Z" fill="white"/>
<path d="M94.8948 179.232L141.037 179.016L141.031 177.603L94.8887 177.812L94.8948 179.232Z" fill="white"/>
<path d="M222.909 54.4011C226.907 54.4011 230.147 51.1601 230.147 47.162C230.147 43.1639 226.907 39.9229 222.909 39.9229C218.911 39.9229 215.67 43.1639 215.67 47.162C215.67 51.1601 218.911 54.4011 222.909 54.4011Z" fill="#680A83"/>
<path opacity="0.5" d="M222.909 54.4011C226.907 54.4011 230.147 51.1601 230.147 47.162C230.147 43.1639 226.907 39.9229 222.909 39.9229C218.911 39.9229 215.67 43.1639 215.67 47.162C215.67 51.1601 218.911 54.4011 222.909 54.4011Z" fill="white"/>
<path d="M220.509 45.0887C220.781 45.0702 221.028 45.3787 221.052 45.7737C221.077 46.1687 220.873 46.5019 220.602 46.5205C220.324 46.539 220.083 46.2304 220.059 45.8354C220.034 45.4405 220.238 45.101 220.509 45.0887Z" fill="#263238"/>
<path d="M221.182 43.2684C221.163 43.3733 220.577 43.3425 219.91 43.577C219.244 43.7992 218.8 44.188 218.719 44.1201C218.639 44.0646 219.022 43.4968 219.787 43.2376C220.558 42.966 221.213 43.1759 221.182 43.2684Z" fill="#263238"/>
<path d="M226.427 46.218C226.347 46.2797 225.958 45.8662 225.335 45.7983C224.711 45.7305 224.242 46.0514 224.181 45.9773C224.15 45.9403 224.224 45.8045 224.434 45.6626C224.637 45.5206 224.983 45.3972 225.372 45.4404C225.76 45.4836 226.075 45.6749 226.242 45.8601C226.421 46.039 226.47 46.1871 226.427 46.218Z" fill="#263238"/>
<path d="M227.049 45.0087C226.994 45.1013 226.407 44.7927 225.624 44.768C224.84 44.731 224.229 44.9902 224.186 44.8976C224.124 44.8236 224.741 44.3669 225.642 44.4101C226.537 44.4348 227.117 44.9408 227.049 45.0087Z" fill="#263238"/>
<path d="M226.537 47.02C226.568 47.0138 226.58 47.6186 226.087 48.4086C225.618 49.18 224.532 50.1119 223.063 50.1736C221.594 50.2045 220.452 49.3404 219.934 48.5999C219.391 47.8408 219.36 47.236 219.391 47.2421C219.453 47.2175 219.576 47.7791 220.132 48.4456C220.662 49.0998 221.736 49.8465 223.044 49.8157C224.353 49.7663 225.377 48.9578 225.865 48.2666C226.389 47.5631 226.476 47.0015 226.537 47.02Z" fill="#263238"/>
<path d="M20.3528 175.214C20.1924 180.836 15.5085 185.261 9.88654 185.101C4.2646 184.94 -0.160127 180.256 0.000323087 174.634C0.160773 169.012 4.84469 164.587 10.4666 164.747C16.0886 164.908 20.5133 169.592 20.3528 175.214Z" fill="#680A83"/>
<path opacity="0.5" d="M20.3528 175.214C20.1924 180.836 15.5085 185.261 9.88654 185.101C4.2646 184.94 -0.160127 180.256 0.000323087 174.634C0.160773 169.012 4.84469 164.587 10.4666 164.747C16.0886 164.908 20.5133 169.592 20.3528 175.214Z" fill="white"/>
<path d="M8.17153 172.104C7.81978 171.591 7.10392 171.542 6.61023 171.882C6.11653 172.215 5.87586 172.628 5.7586 173.264C5.67838 172.622 5.42536 172.196 4.94401 171.832C4.46883 171.468 3.74063 171.474 3.35802 171.968C3.13586 172.252 3.05563 172.659 3.09266 173.036C3.12969 173.412 3.22842 173.807 3.45059 174.091C4.2405 175.109 4.67865 175.301 5.70923 176.035C6.77068 175.356 7.11009 175.189 7.94937 174.221C8.18387 173.949 8.30113 173.56 8.36284 173.19C8.43072 172.807 8.37518 172.4 8.17153 172.104Z" fill="#680A83"/>
<path d="M17.1559 172.357C16.8042 171.844 16.0883 171.795 15.5946 172.134C15.1009 172.468 14.8602 172.881 14.743 173.517C14.6628 172.875 14.4097 172.449 13.9284 172.085C13.4532 171.721 12.725 171.727 12.3424 172.221C12.1202 172.505 12.04 172.912 12.077 173.289C12.1141 173.665 12.2128 174.06 12.435 174.344C13.2249 175.362 13.663 175.553 14.6936 176.288C15.7551 175.609 16.0945 175.442 16.9337 174.473C17.1682 174.202 17.2855 173.813 17.3472 173.443C17.4151 173.066 17.3596 172.659 17.1559 172.357Z" fill="#680A83"/>
<path d="M13.4786 177.412C13.275 179.072 11.6643 180.43 9.9919 180.356C8.31951 180.281 6.83843 178.782 6.78906 177.109L13.4786 177.412Z" fill="white"/>
<path d="M48.7637 176.394C48.9427 175.351 48.5477 171.537 48.5477 171.537C48.5477 171.537 44.5488 171.111 44.3081 167.149C44.0675 163.187 44.3081 154.04 44.3081 154.04L51.5901 150.479L59.6003 156.546L58.3846 176.369L48.7637 176.394Z" fill="#B78876"/>
<path d="M45.4082 160.668C45.4082 160.946 45.6365 161.174 45.9142 161.174C46.1919 161.174 46.4203 160.946 46.4203 160.668C46.4203 160.39 46.1919 160.162 45.9142 160.162C45.6365 160.162 45.4082 160.384 45.4082 160.668Z" fill="#263238"/>
<path d="M44.6669 160.304C44.7348 160.372 45.1051 160.051 45.6543 160.02C46.1973 159.983 46.6108 160.254 46.6664 160.18C46.6972 160.149 46.6293 160.026 46.4442 159.903C46.2652 159.779 45.969 159.668 45.6296 159.687C45.2902 159.705 45.0063 159.853 44.8459 159.995C44.6854 160.143 44.636 160.273 44.6669 160.304Z" fill="#263238"/>
<path d="M51.8205 161.081C52.1 161.081 52.3265 160.855 52.3265 160.575C52.3265 160.296 52.1 160.069 51.8205 160.069C51.541 160.069 51.3145 160.296 51.3145 160.575C51.3145 160.855 51.541 161.081 51.8205 161.081Z" fill="#263238"/>
<path d="M50.5668 160.205C50.6347 160.273 51.0049 159.952 51.5542 159.921C52.0972 159.884 52.5107 160.156 52.5662 160.082C52.5971 160.051 52.5292 159.927 52.3441 159.804C52.1651 159.681 51.8689 159.569 51.5295 159.588C51.1901 159.606 50.9062 159.755 50.7458 159.897C50.5915 160.051 50.5359 160.18 50.5668 160.205Z" fill="#263238"/>
<path d="M48.691 164.766C48.691 164.735 48.3516 164.691 47.7962 164.654C47.6543 164.648 47.5185 164.624 47.4938 164.525C47.4568 164.42 47.5123 164.259 47.574 164.087C47.6913 163.729 47.8147 163.352 47.9505 162.951C48.4689 161.34 48.8453 160.02 48.7836 160.001C48.7219 159.983 48.2529 161.272 47.7345 162.883C47.6111 163.278 47.4877 163.661 47.3766 164.019C47.3272 164.185 47.247 164.377 47.321 164.593C47.3642 164.698 47.463 164.772 47.5555 164.79C47.6481 164.815 47.7222 164.809 47.79 164.809C48.3516 164.809 48.691 164.796 48.691 164.766Z" fill="#263238"/>
<path d="M50.4987 165.284C50.2272 165.438 48.9312 166.21 47.8574 166.191C47.8574 166.191 48.5424 167.179 49.6717 166.704C50.8319 166.216 50.4987 165.284 50.4987 165.284Z" fill="white"/>
<path d="M48.543 171.536C48.543 171.536 51.2151 171.567 53.7946 169.759C53.7946 169.759 52.6036 172.672 48.6294 172.505L48.543 171.536Z" fill="#A36957"/>
<path d="M64.8653 159.483C64.8653 159.483 66.476 168.623 58.7559 170.277L58.9842 159.261L64.8653 159.483Z" fill="#263238"/>
<path d="M64.6118 157.459C64.0193 155.182 63.0628 153.436 61.9643 152.096C63.0813 152.559 63.8404 153.028 63.9761 152.874C64.0502 152.781 63.8404 152.448 63.3652 152.041C62.89 151.634 62.1433 151.171 61.23 150.874C61.1065 150.831 60.9893 150.807 60.8659 150.776C61.3719 150.566 61.8409 150.276 62.2359 149.893C63.1615 148.986 63.575 147.505 63.0072 146.345C62.495 145.308 61.267 144.709 60.1191 144.833C58.9713 144.956 57.9407 145.727 57.3791 146.74C57.2434 146.986 57.1323 147.239 57.0521 147.505C57.0706 147.11 57.1076 146.672 57.1878 146.197C57.4347 144.672 58.0024 143.524 57.9099 143.481C57.842 143.432 57.1138 144.549 56.8546 146.141C56.8299 146.289 56.8176 146.431 56.7991 146.573C56.6633 146.135 56.509 145.746 56.3547 145.419C55.9721 144.623 55.6204 144.197 55.5154 144.246C55.2995 144.357 56.003 146.024 56.293 148.282C55.318 147.98 54.5342 147.887 54.1454 147.887C52.8001 147.887 50.5662 147.239 47.4004 149.807C46.4562 150.418 45.475 151.276 44.685 152.417C43.4508 154.207 43.0188 156.194 42.988 157.589C42.9695 158.293 43.025 158.86 43.0929 159.249C43.1608 159.638 43.2225 159.842 43.2472 159.842C43.3089 159.835 43.1299 158.984 43.2225 157.608C43.278 156.768 43.4755 155.713 43.8951 154.627C43.1052 157.385 44.1975 159.607 44.1975 159.607L51.2635 158.502C50.8068 156.953 51.1401 154.497 51.3561 153.294C52.6027 159.064 57.5581 161.835 57.5581 161.835L64.9944 160.662C64.8895 159.996 64.766 158.064 64.6118 157.459Z" fill="#263238"/>
<path d="M81.7129 245.848C81.9412 245.959 100.171 249.532 99.4982 247.113C98.8255 244.694 81.8795 240.769 81.8795 240.769L81.7129 245.848Z" fill="#680A83"/>
<path d="M90.0067 244.237C90.0931 244.224 90.2165 244.662 90.2165 245.212C90.2165 245.761 90.0808 246.193 89.9944 246.181C89.908 246.168 89.8894 245.736 89.8956 245.206C89.8956 244.681 89.9141 244.243 90.0067 244.237Z" fill="#263238"/>
<path d="M89.0314 243.904C89.1178 243.885 89.2721 244.398 89.2166 245.033C89.161 245.675 88.9204 246.144 88.8401 246.113C88.7537 246.082 88.8463 245.601 88.8957 245.002C88.9512 244.41 88.945 243.916 89.0314 243.904Z" fill="#263238"/>
<path d="M87.8537 243.805C87.9401 243.799 88.0636 244.286 88.0759 244.903C88.0882 245.52 87.9833 246.02 87.8969 246.014C87.8105 246.008 87.7673 245.514 87.755 244.909C87.7488 244.305 87.7673 243.811 87.8537 243.805Z" fill="#263238"/>
<path d="M85.6134 242.021C85.6134 242.009 85.7121 242.021 85.8972 242.058C86.0824 242.089 86.3539 242.145 86.6995 242.225C87.3968 242.379 88.3966 242.614 89.6308 242.953C90.8589 243.286 92.3152 243.725 93.9136 244.261C94.7097 244.539 95.5489 244.811 96.4006 245.175C97.246 245.539 98.1161 246.008 98.832 246.705C98.9184 246.792 99.0233 246.872 99.0974 247.039C99.1899 247.205 99.0974 247.464 98.9431 247.551C98.6592 247.73 98.4 247.699 98.1717 247.724C97.6965 247.761 97.2275 247.779 96.7708 247.792C95.8513 247.81 94.9627 247.779 94.1172 247.724C92.4325 247.619 90.9267 247.403 89.6678 247.205C88.4089 247.002 87.3968 246.81 86.6995 246.668C86.3848 246.6 86.1194 246.545 85.8972 246.496C85.7121 246.452 85.6195 246.428 85.6195 246.415C85.6257 246.391 86.0145 246.44 86.718 246.545C87.4709 246.656 88.4768 246.798 89.6987 246.977C90.9576 247.144 92.4572 247.335 94.1357 247.421C94.975 247.464 95.8513 247.489 96.7647 247.464C97.2213 247.452 97.6842 247.434 98.1532 247.397C98.3877 247.378 98.6345 247.378 98.7641 247.285C98.8197 247.242 98.8258 247.218 98.8073 247.162C98.7826 247.1 98.7024 247.02 98.616 246.94C97.9372 246.28 97.1102 245.829 96.2833 245.465C95.4502 245.107 94.6171 244.823 93.8272 244.539C92.2412 243.984 90.7971 243.533 89.5814 243.169C88.3657 242.805 87.3721 242.533 86.6871 242.342C85.9898 242.151 85.6072 242.04 85.6134 242.021Z" fill="#263238"/>
<path d="M95.3135 244.731C95.4061 244.762 95.2209 245.453 95.2888 246.305C95.3443 247.156 95.622 247.817 95.5357 247.86C95.4678 247.909 95.0296 247.261 94.9679 246.329C94.9 245.397 95.2394 244.694 95.3135 244.731Z" fill="#263238"/>
<path d="M21.4197 242.237C21.1667 242.206 2.7704 244.773 4.19594 246.847C5.62148 248.914 22.9254 247.094 22.9254 247.094L21.4197 242.237Z" fill="#680A83"/>
<path d="M14.1125 246.464C14.0323 246.501 13.7731 246.13 13.6003 245.612C13.4213 245.094 13.409 244.637 13.4954 244.625C13.5818 244.606 13.736 245.013 13.9088 245.513C14.0693 246.007 14.1927 246.421 14.1125 246.464Z" fill="#263238"/>
<path d="M15.1376 246.458C15.0636 246.501 14.7488 246.069 14.5946 245.446C14.4341 244.822 14.5082 244.298 14.5946 244.298C14.6871 244.298 14.7612 244.785 14.9031 245.366C15.0512 245.952 15.2179 246.415 15.1376 246.458Z" fill="#263238"/>
<path d="M16.285 246.167C16.2048 246.204 15.9271 245.779 15.7172 245.198C15.5012 244.618 15.4395 244.118 15.5259 244.094C15.6123 244.069 15.8098 244.526 16.0196 245.087C16.2233 245.655 16.3652 246.13 16.285 246.167Z" fill="#263238"/>
<path d="M18.9829 247.124C18.9829 247.137 18.8903 247.155 18.699 247.186C18.5139 247.217 18.2362 247.254 17.8844 247.291C17.1747 247.371 16.1503 247.476 14.8791 247.556C13.6078 247.637 12.0897 247.704 10.405 247.717C9.55952 247.717 8.67704 247.729 7.75137 247.661C6.83186 247.593 5.85682 247.433 4.94965 247.007C4.83857 246.952 4.71515 246.915 4.59173 246.779C4.44979 246.649 4.45596 246.378 4.56704 246.248C4.77686 245.989 5.03605 245.933 5.2397 245.835C5.67785 245.643 6.11601 245.477 6.54182 245.316C7.40578 244.995 8.2574 244.736 9.072 244.514C10.7012 244.063 12.1946 243.773 13.4474 243.551C14.7001 243.329 15.7245 243.181 16.428 243.088C16.7489 243.051 17.0205 243.014 17.2426 242.989C17.4278 242.971 17.5265 242.965 17.5327 242.977C17.5388 243.002 17.1501 243.082 16.4527 243.218C15.6998 243.36 14.7063 243.551 13.4967 243.779C12.2501 244.032 10.7691 244.341 9.15839 244.804C8.35614 245.038 7.51069 245.298 6.65907 245.619C6.23326 245.779 5.80128 245.946 5.36929 246.137C5.1533 246.229 4.9188 246.31 4.8324 246.445C4.79537 246.507 4.79537 246.532 4.8324 246.575C4.8756 246.624 4.98051 246.674 5.09159 246.723C5.94938 247.124 6.88123 247.285 7.77605 247.353C8.67704 247.421 9.56569 247.414 10.3988 247.427C12.0774 247.433 13.5893 247.39 14.8606 247.34C16.1318 247.285 17.1562 247.217 17.8659 247.174C18.5879 247.124 18.9829 247.1 18.9829 247.124Z" fill="#263238"/>
<path d="M8.92984 247.724C8.83728 247.724 8.78174 247.014 8.44232 246.23C8.11525 245.44 7.6339 244.909 7.70178 244.841C7.75115 244.774 8.37444 245.243 8.73854 246.107C9.10881 246.958 9.01007 247.736 8.92984 247.724Z" fill="#263238"/>
<path d="M78.4912 219.902H69.1295L34.5833 220.797L24.7341 219.52C23.1913 219.18 22.1854 219.038 21.8584 219.149C20.9018 219.464 19.5935 220.384 18.4827 221.711C14.7183 226.21 17.0819 233.134 22.747 234.665L28.0727 236.103L16.4277 239.842L20.3588 251C20.3588 251 37.7368 247.242 54.5903 243.274L81.5644 250.568L85.4523 238.047C85.4523 238.047 83.7367 237.485 80.8794 236.559C83.749 235.683 85.5634 234.992 85.8287 234.578C87.5196 231.943 90.5312 219.717 78.4912 219.902Z" fill="#455A64"/>
<path opacity="0.2" d="M80.7001 236.614L60.6561 244.915L54.5898 243.273L80.7001 236.614Z" fill="#0A0A0A"/>
<path opacity="0.2" d="M28.1211 220.834L53.787 228.19L73.3249 221.525L28.1211 220.834Z" fill="#0A0A0A"/>
<path d="M24.4687 250.186C24.4316 250.204 24.1107 249.587 23.6541 248.569C23.1974 247.55 22.605 246.125 22.0187 244.526C21.4325 242.928 20.9696 241.453 20.6611 240.379C20.3525 239.305 20.2044 238.633 20.2476 238.62C20.2908 238.608 20.5191 239.262 20.8771 240.311C21.235 241.367 21.7348 242.823 22.3149 244.415C22.895 246.008 23.4504 247.446 23.8577 248.482C24.265 249.525 24.5119 250.167 24.4687 250.186Z" fill="#263238"/>
<path d="M86.3272 224.062C86.3272 224.068 86.2779 224.093 86.1668 224.136C86.0434 224.186 85.8829 224.241 85.6855 224.315C85.235 224.469 84.6178 224.692 83.8279 224.969C82.1864 225.525 79.8475 226.321 76.9656 227.296C71.1647 229.234 63.1298 231.857 54.2248 234.652C45.3137 237.448 37.2232 239.886 31.3545 241.614C28.4355 242.459 26.0596 243.144 24.3934 243.626C23.585 243.848 22.9493 244.027 22.4927 244.15C22.289 244.206 22.1286 244.249 21.999 244.28C21.8879 244.305 21.8262 244.317 21.8262 244.311C21.8262 244.305 21.8817 244.286 21.9866 244.243C22.1162 244.2 22.2767 244.15 22.4741 244.082C22.9246 243.94 23.5541 243.749 24.3564 243.496C26.0164 242.99 28.38 242.274 31.2866 241.385C37.1368 239.608 45.2211 237.133 54.1261 234.338C63.0311 231.542 71.0721 228.956 76.8977 227.068C79.792 226.13 82.1432 225.37 83.7909 224.84C84.587 224.587 85.2164 224.389 85.6669 224.247C85.8706 224.186 86.031 224.136 86.1606 224.099C86.2655 224.068 86.3272 224.056 86.3272 224.062Z" fill="#263238"/>
<path d="M67.6473 223.612C67.6535 223.624 67.5177 223.68 67.2523 223.778C66.9561 223.883 66.5797 224.025 66.1045 224.198C65.1048 224.556 63.6484 225.062 61.8464 225.673C58.2424 226.895 53.25 228.537 47.7268 230.308C42.1974 232.079 37.1802 233.64 33.5392 234.739C31.7188 235.288 30.2438 235.72 29.2194 236.01C28.7319 236.146 28.3369 236.251 28.0407 236.337C27.7692 236.411 27.6273 236.442 27.6211 236.43C27.6211 236.418 27.7569 236.368 28.0222 236.276C28.3184 236.177 28.7072 236.053 29.1886 235.893C30.2377 235.56 31.6941 235.091 33.4775 234.523C37.1309 233.356 42.1233 231.764 47.6342 230.005C53.1451 228.234 58.1314 226.636 61.7785 225.463C63.562 224.889 65.0184 224.426 66.0675 224.087C66.5488 223.939 66.9376 223.815 67.24 223.723C67.4992 223.636 67.6411 223.599 67.6473 223.612Z" fill="#263238"/>
<path d="M53.6516 228.147C53.6269 228.234 47.8939 226.666 40.8403 224.648C33.7866 222.63 28.0906 220.927 28.1153 220.84C28.14 220.754 33.873 222.321 40.9267 224.34C47.9803 226.358 53.6763 228.061 53.6516 228.147Z" fill="#263238"/>
<path d="M81.6806 237.207C81.7608 237.238 80.7734 239.984 79.4713 243.342C78.1692 246.699 77.046 249.396 76.9596 249.359C76.8794 249.328 77.8668 246.582 79.1689 243.224C80.471 239.873 81.5942 237.176 81.6806 237.207Z" fill="#263238"/>
<path d="M79.2752 242.378C79.2505 242.465 76.9918 241.934 74.2333 241.2C71.4686 240.465 69.247 239.799 69.2717 239.712C69.2964 239.626 71.555 240.157 74.3135 240.891C77.0782 241.625 79.2937 242.292 79.2752 242.378Z" fill="#263238"/>
<path d="M40.8906 232.146C40.8844 232.171 40.545 232.097 39.934 231.955C39.2676 231.788 38.4036 231.578 37.3545 231.319C35.1822 230.764 32.1769 230.011 28.9 229.023C25.6169 228.042 22.7103 226.937 20.6615 226.006C19.6371 225.536 18.8286 225.129 18.2732 224.827C17.724 224.524 17.4216 224.345 17.434 224.327C17.4463 224.308 17.761 224.444 18.3288 224.716C18.8965 224.981 19.7173 225.358 20.7479 225.796C22.809 226.672 25.7095 227.734 28.9864 228.715C32.2571 229.702 35.2501 230.486 37.41 231.097C38.4468 231.393 39.3046 231.64 39.9649 231.831C40.5635 232.01 40.8967 232.121 40.8906 232.146Z" fill="#263238"/>
<path d="M59.8544 175.844L59.0768 175.857L58.9657 173.228L48.5426 173.863C48.5426 173.863 48.6475 175.11 48.6413 175.955C42.2295 176.591 31.936 179.868 31.6953 194.315L39.9277 194.501C39.2241 201.129 39.3352 205.085 38.6379 207.578C37.49 211.688 33.8491 220.359 34.5834 220.797C35.3178 221.235 69.0926 221.865 70.7033 220.982C72.3139 220.106 69.3826 208.788 68.6483 205.708C68.1793 203.752 68.0867 199.253 68.0744 195.778L77.5286 195.358C77.5286 195.352 78.1951 175.789 59.8544 175.844Z" fill="#680A83"/>
<path d="M59.039 175.739C59.0452 175.782 58.4589 175.893 57.5086 175.998C56.5582 176.109 55.2376 176.208 53.775 176.239C52.3125 176.27 50.9857 176.22 50.0291 176.153C49.0726 176.085 48.4863 175.998 48.4863 175.955C48.4925 175.912 49.0788 175.912 50.0353 175.924C50.9918 175.937 52.3063 175.949 53.7627 175.918C55.2191 175.887 56.5335 175.819 57.4839 175.77C58.4404 175.721 59.0329 175.696 59.039 175.739Z" fill="#263238"/>
<path d="M50.4319 173.746C50.5183 173.746 50.5924 174.252 50.5924 174.882C50.5924 175.505 50.5183 176.017 50.4319 176.017C50.3455 176.017 50.2715 175.511 50.2715 174.882C50.2715 174.252 50.3394 173.746 50.4319 173.746Z" fill="#263238"/>
<path d="M53.2133 173.549C53.2997 173.549 53.3861 174.104 53.4046 174.795C53.4232 175.487 53.3676 176.048 53.2751 176.048C53.1887 176.048 53.1023 175.493 53.0837 174.802C53.0714 174.11 53.1269 173.549 53.2133 173.549Z" fill="#263238"/>
<path d="M56.0905 173.449C56.1769 173.443 56.3004 173.999 56.3189 174.696C56.3374 175.393 56.2325 175.955 56.1461 175.949C56.0535 175.943 56.0103 175.387 55.998 174.702C55.9795 174.017 56.0041 173.455 56.0905 173.449Z" fill="#263238"/>
<path d="M58.1751 173.351C58.2676 173.351 58.3293 173.894 58.4157 174.554C58.496 175.214 58.57 175.757 58.4836 175.782C58.3972 175.807 58.1812 175.282 58.101 174.597C58.0146 173.906 58.0887 173.344 58.1751 173.351Z" fill="#263238"/>
<path d="M41.2415 194.322C41.1551 194.322 41.0687 192.933 41.0564 191.218C41.0441 189.502 41.0996 188.113 41.1922 188.113C41.2786 188.113 41.365 189.502 41.3773 191.218C41.3896 192.927 41.3341 194.322 41.2415 194.322Z" fill="#263238"/>
<path d="M67.7472 195.352C67.6608 195.358 67.4633 193.865 67.3028 192.02C67.1486 190.168 67.093 188.662 67.1794 188.656C67.2658 188.65 67.4633 190.144 67.6238 191.989C67.7842 193.84 67.8397 195.346 67.7472 195.352Z" fill="#263238"/>
<path d="M41.2429 194.322C41.2429 194.365 40.6998 194.371 39.8297 194.365C38.8361 194.359 37.6883 194.347 36.4232 194.34C35.1581 194.347 34.0164 194.353 33.0167 194.359C32.1466 194.365 31.6035 194.359 31.6035 194.31C31.6035 194.266 32.1404 194.192 33.0105 194.131C33.8807 194.069 35.0902 194.02 36.4232 194.02C37.7562 194.02 38.9657 194.075 39.8359 194.137C40.7122 194.205 41.2491 194.279 41.2429 194.322Z" fill="#263238"/>
<path d="M77.5303 195.352C77.5303 195.438 75.2779 195.512 72.4947 195.512C69.7115 195.512 67.459 195.438 67.459 195.352C67.459 195.265 69.7115 195.191 72.4947 195.191C75.2717 195.191 77.5303 195.265 77.5303 195.352Z" fill="#263238"/>
<path d="M77.1091 195.432C77.1091 195.432 79.5714 218.47 72.5178 220.735C65.4641 223 51.5234 212.267 51.5234 212.267L55.5409 204.152C55.5409 204.152 64.8223 210.583 66.7971 209.132C68.7719 207.682 67.7474 195.432 67.7474 195.432H77.1091Z" fill="#B78876"/>
<path d="M31.8252 194.322C31.8252 194.322 29.3135 217.131 36.3671 219.396C43.4208 221.661 57.3615 210.929 57.3615 210.929L53.3502 202.807C53.3502 202.807 44.0379 208.757 42.1063 207.251C40.9894 206.381 40.9585 194.433 40.9585 194.433C37.6569 194.297 34.6207 194.155 31.8252 194.322Z" fill="#B78876"/>
<path d="M72.7208 199.073L68.0369 222.031C68.0369 222.031 39.2545 221.809 38.9521 221.723C38.6559 221.636 35.8789 199.079 35.8789 199.079H72.7208V199.073Z" fill="#263238"/>
<path d="M52.0469 210.701C52.0469 211.589 52.8183 212.311 53.7686 212.311C54.719 212.311 55.4966 211.589 55.4966 210.701C55.4966 209.812 54.7252 209.09 53.7686 209.09C52.8183 209.09 52.0469 209.812 52.0469 210.701Z" fill="white"/>
<path d="M58.0898 160.335C58.4107 160.02 59.4722 159.965 59.8424 160.224C60.2127 160.489 60.4102 160.927 60.4966 161.372C60.6385 162.106 60.4904 162.921 59.972 163.464C59.4537 164.007 58.5465 164.174 57.9355 163.742" fill="#B78876"/>
<path d="M58.837 163.119C58.8308 163.069 59.0283 163.038 59.2628 162.866C59.4973 162.699 59.7318 162.366 59.6886 161.94C59.6577 161.514 59.3554 161.23 59.0962 161.113C58.837 160.989 58.6395 160.989 58.6333 160.94C58.621 160.903 58.8308 160.798 59.1764 160.891C59.5096 160.959 59.9786 161.335 60.0157 161.909C60.0836 162.483 59.6886 162.94 59.3739 163.069C59.0591 163.217 58.8308 163.156 58.837 163.119Z" fill="#A36957"/>
<path d="M200.785 240.28L199.581 233.757L187.881 235.83L189.584 245.6L190.318 245.52C193.583 245.131 206.833 243.107 208.869 242.039C211.14 240.854 200.785 240.28 200.785 240.28Z" fill="#680A83"/>
<path d="M209.035 241.397C209.054 241.508 204.703 242.403 199.31 243.396C193.916 244.39 189.535 245.106 189.51 244.995C189.491 244.884 193.842 243.989 199.236 242.995C204.629 242.008 209.017 241.292 209.035 241.397Z" fill="#263238"/>
<path d="M201.235 241.577C201.13 241.546 201.149 241.182 201.34 240.799C201.525 240.41 201.797 240.176 201.89 240.237C201.982 240.299 201.877 240.62 201.704 240.978C201.532 241.33 201.346 241.607 201.235 241.577Z" fill="#263238"/>
<path d="M202.062 241.867C201.951 241.848 201.932 241.453 202.086 241.003C202.241 240.552 202.5 240.256 202.599 240.305C202.697 240.355 202.611 240.719 202.469 241.132C202.327 241.552 202.173 241.885 202.062 241.867Z" fill="#263238"/>
<path d="M193.028 244.304C192.991 244.347 192.782 244.205 192.479 243.964C192.171 243.723 191.763 243.384 191.263 243.125C190.77 242.866 190.258 242.785 189.9 242.804C189.536 242.822 189.313 242.921 189.283 242.866C189.252 242.829 189.443 242.625 189.856 242.52C190.264 242.415 190.881 242.465 191.449 242.761C192.01 243.057 192.411 243.458 192.677 243.748C192.936 244.057 193.065 244.267 193.028 244.304Z" fill="#263238"/>
<path d="M201.049 240.342C201.123 240.422 200.963 240.687 200.654 240.872C200.346 241.057 200.037 241.07 200 240.965C199.963 240.86 200.179 240.687 200.451 240.527C200.716 240.36 200.969 240.255 201.049 240.342Z" fill="#263238"/>
<path d="M200.748 239.743C200.779 239.848 200.483 240.002 200.094 240.077C199.699 240.157 199.372 240.126 199.36 240.015C199.347 239.904 199.644 239.756 200.014 239.682C200.39 239.614 200.717 239.638 200.748 239.743Z" fill="#263238"/>
<path d="M214.863 171.376C211.234 164.062 191.826 135.772 191.826 135.772L181.464 136.852L181.452 136.791L169.856 138.062L163.463 138.766L186.611 239.873L202.619 239.583L198.768 220.877C201.422 214.249 216.868 175.424 214.863 171.376ZM198.349 175.739L192.628 191.1L186.142 159.607L198.349 175.739Z" fill="#263238"/>
<path d="M185.498 89.0721C185.35 88.0168 185.918 83.6289 185.918 83.6289C185.918 83.6289 189.947 83.3327 190.324 79.3582C190.694 75.3776 190.75 66.1821 190.75 66.1821L183.548 62.3682L175.303 68.2126L173.168 73.7669L175.976 80.6666L175.889 82.95L175.877 88.1773L185.498 89.0721Z" fill="#FFBE9D"/>
<path d="M190.206 72.8479C190.2 73.1318 189.959 73.354 189.681 73.3417C189.397 73.3355 189.181 73.0948 189.188 72.8171C189.194 72.5332 189.434 72.3172 189.712 72.3234C189.996 72.3295 190.218 72.5641 190.206 72.8479Z" fill="#263238"/>
<path d="M190.243 72.3107C190.175 72.3724 189.811 72.0391 189.262 71.9959C188.712 71.9404 188.293 72.1996 188.237 72.1255C188.213 72.0947 188.28 71.9713 188.466 71.854C188.645 71.7367 188.947 71.6318 189.293 71.6627C189.632 71.6935 189.91 71.854 190.07 72.0021C190.224 72.1564 190.274 72.286 190.243 72.3107Z" fill="#263238"/>
<path d="M183.764 72.2246C183.992 72.3913 184.041 72.7122 183.875 72.9405C183.708 73.1689 183.387 73.2182 183.159 73.0516C182.931 72.885 182.881 72.5641 183.048 72.3357C183.221 72.1074 183.535 72.058 183.764 72.2246Z" fill="#263238"/>
<path d="M184.159 72.1193C184.091 72.181 183.727 71.8477 183.178 71.8045C182.628 71.749 182.209 72.0082 182.153 71.9341C182.129 71.9033 182.197 71.7799 182.382 71.6626C182.561 71.5453 182.863 71.4404 183.209 71.4713C183.548 71.5021 183.826 71.6626 183.986 71.8107C184.14 71.9588 184.19 72.0884 184.159 72.1193Z" fill="#263238"/>
<path d="M185.992 76.8217C185.992 76.7908 186.338 76.76 186.893 76.7353C187.035 76.7353 187.171 76.7168 187.202 76.6119C187.245 76.5069 187.196 76.3403 187.14 76.1675C187.035 75.8034 186.918 75.4208 186.801 75.0196C186.332 73.3842 185.998 72.045 186.054 72.0265C186.085 72.0203 186.208 72.3412 186.381 72.8719C186.554 73.4027 186.782 74.1371 187.017 74.9579C187.128 75.3591 187.239 75.7479 187.337 76.112C187.381 76.2848 187.455 76.4761 187.375 76.6859C187.331 76.7908 187.226 76.8587 187.134 76.8772C187.041 76.8957 186.961 76.8896 186.893 76.8896C186.332 76.8772 185.992 76.8525 185.992 76.8217Z" fill="#263238"/>
<path d="M184.158 77.2782C183.615 76.8894 185.664 78.2409 186.781 78.278C186.781 78.278 186.059 79.2469 184.942 78.7347C183.788 78.2039 184.158 77.2782 184.158 77.2782Z" fill="white"/>
<path d="M185.918 83.6289C185.918 83.6289 183.234 83.5734 180.697 81.6787C180.697 81.6787 181.802 84.641 185.801 84.604L185.918 83.6289Z" fill="#EB996E"/>
<path d="M176.44 74.8717C176.422 74.8594 176.385 74.9149 176.286 74.9704C176.193 75.0198 176.027 75.063 175.842 75.0075C175.478 74.8964 175.138 74.3471 175.083 73.7362C175.058 73.4276 175.101 73.1313 175.2 72.8783C175.286 72.6253 175.44 72.4401 175.619 72.3969C175.798 72.3476 175.928 72.4463 175.977 72.5389C176.027 72.6315 176.014 72.6993 176.027 72.7055C176.039 72.7117 176.095 72.6438 176.058 72.508C176.039 72.4401 175.996 72.3661 175.909 72.3044C175.823 72.2427 175.7 72.218 175.576 72.2365C175.317 72.2735 175.095 72.5265 174.99 72.7981C174.873 73.0758 174.811 73.4091 174.842 73.7547C174.904 74.4397 175.292 75.0568 175.792 75.1679C176.033 75.2173 176.23 75.1309 176.329 75.0445C176.44 74.9519 176.453 74.8779 176.44 74.8717Z" fill="#EB996E"/>
<path d="M191.799 66.8428C191.559 66.923 191.337 66.96 191.133 66.9724C191.874 66.5774 192.509 65.9726 192.904 65.2258C193.466 64.1829 193.54 62.8375 192.898 61.8439C192.256 60.8503 190.824 60.3812 189.806 60.9799C190.3 60.1652 189.905 59.0235 189.121 58.4866C188.337 57.9558 187.282 57.9497 186.381 58.2459C185.48 58.5421 184.69 59.1037 183.919 59.653C183.833 59.0112 183.37 58.4619 182.796 58.1718C182.216 57.8818 181.543 57.8324 180.907 57.9312C179.056 58.2089 177.47 59.7703 177.161 61.6217C176.581 61.0231 175.687 60.7577 174.878 60.9428C174.07 61.128 173.379 61.7575 173.119 62.5474C173.107 62.5783 173.107 62.603 173.095 62.6338C172.755 62.7758 172.428 63.035 172.206 63.4052C171.873 63.9422 171.768 64.6951 172.015 65.3863C172.237 66.0775 172.761 66.6021 173.237 66.9353C173.465 67.1143 173.669 67.2871 173.798 67.4846C173.928 67.6759 173.99 67.8796 174.014 68.0771C173.965 69.4101 173.28 70.6691 172.947 71.9836C172.49 73.7918 173.496 76.2728 174.076 78.0502C174.656 79.8275 174.86 80.5373 175.983 80.6607L176.162 75.884C174.915 76.8961 173.28 73.4154 174.36 72.0268C175.44 70.6382 176.588 71.1134 176.785 71.9898C176.915 72.5761 177.075 72.9834 177.075 72.9834H178.328L178.192 71.9342C178.192 71.9342 177.939 67.2994 180.154 67.0156C180.938 66.9168 181.117 66.9909 181.833 67.3303C182.543 67.6697 183.296 67.6697 184.086 67.6451C184.875 67.6204 185.937 66.7502 185.912 65.9602C186.801 67.0156 188.233 67.5957 189.609 67.4537C189.967 67.4167 190.318 67.3303 190.652 67.2007C190.973 67.2994 191.442 67.3241 191.917 67.1637C192.41 66.997 192.787 66.6823 192.978 66.4046C193.176 66.1269 193.213 65.917 193.176 65.8985C193.083 65.8553 192.688 66.565 191.799 66.8428ZM173.409 66.6946C172.947 66.3367 172.521 65.8924 172.311 65.2752C172.095 64.6766 172.175 64.0347 172.453 63.5657C172.595 63.3065 172.792 63.1152 173.002 62.9732C172.792 64.3742 173.706 65.7936 173.946 67.2501C173.804 67.0464 173.613 66.8613 173.409 66.6946Z" fill="#680A83"/>
<path d="M212.992 72.6378V80.5866C212.992 82.3887 214.455 83.8513 216.257 83.8513H230.018V88.3997L232.487 84.055C234.005 83.9439 235.178 82.6787 235.178 81.1544V72.6378C235.178 70.8357 233.715 69.373 231.913 69.373H216.257C214.455 69.373 212.992 70.8357 212.992 72.6378Z" fill="#680A83"/>
<path d="M220.489 77.0387C220.489 77.7793 219.885 78.3841 219.144 78.3841C218.404 78.3841 217.799 77.7793 217.799 77.0387C217.799 76.2982 218.404 75.6934 219.144 75.6934C219.891 75.6934 220.489 76.2982 220.489 77.0387Z" fill="white"/>
<path d="M225.599 77.0387C225.599 77.7793 224.994 78.3841 224.254 78.3841C223.513 78.3841 222.908 77.7793 222.908 77.0387C222.908 76.2982 223.513 75.6934 224.254 75.6934C225 75.6934 225.599 76.2982 225.599 77.0387Z" fill="white"/>
<path d="M230.71 77.0387C230.71 77.7793 230.105 78.3841 229.365 78.3841C228.624 78.3841 228.02 77.7793 228.02 77.0387C228.02 76.2982 228.624 75.6934 229.365 75.6934C230.105 75.6934 230.71 76.2982 230.71 77.0387Z" fill="white"/>
<path d="M223.865 96.281C223.594 95.6515 206.061 111.136 202.575 111.666L192.349 98.3546C192.349 98.3546 190.226 94.985 185.672 89.2208C182.734 85.4994 174.619 86.2709 172.484 90.8069C168.862 98.5089 168.732 108.735 165.936 125.102L163.561 139C163.554 139.025 167.06 138.593 167.047 138.617L191.929 136.007L192.547 119.375C197.465 124.361 198.989 125.398 201.55 125.003C207.987 124.003 230.505 103.748 230.505 103.748C230.505 103.748 224.137 96.9105 223.865 96.281Z" fill="#455A64"/>
<path d="M227.476 106.581C227.451 106.612 226.951 106.254 226.211 105.606C225.47 104.958 224.495 103.995 223.52 102.853C222.545 101.705 221.755 100.588 221.23 99.7553C220.706 98.9222 220.434 98.3729 220.465 98.3544C220.508 98.3297 220.848 98.8358 221.416 99.6319C221.983 100.428 222.792 101.514 223.761 102.65C224.73 103.785 225.668 104.76 226.365 105.445C227.062 106.13 227.507 106.544 227.476 106.581Z" fill="#263238"/>
<path d="M201.581 116.943C201.494 116.924 201.63 115.733 201.889 114.277C202.148 112.82 202.426 111.654 202.519 111.666C202.605 111.685 202.469 112.876 202.21 114.332C201.945 115.789 201.667 116.955 201.581 116.943Z" fill="#263238"/>
<path d="M203.809 116.394C203.723 116.419 203.371 115.394 203.025 114.111C202.68 112.827 202.464 111.765 202.55 111.741C202.637 111.716 202.988 112.74 203.334 114.024C203.686 115.308 203.896 116.369 203.809 116.394Z" fill="#263238"/>
<path opacity="0.2" d="M179.334 101.885L192.287 126.373L192.577 119.109L179.334 101.885Z" fill="#0A0A0A"/>
<path d="M178.495 100.694C178.513 100.681 178.723 100.947 179.093 101.434C179.494 101.971 180.013 102.669 180.636 103.508C181.938 105.261 183.759 107.661 185.801 110.284C187.832 112.889 189.671 115.24 191.047 117.005C191.683 117.838 192.213 118.523 192.621 119.054C192.985 119.541 193.182 119.819 193.164 119.832C193.145 119.844 192.917 119.597 192.522 119.128C192.096 118.616 191.541 117.943 190.868 117.141C189.486 115.456 187.591 113.105 185.542 110.476C183.5 107.847 181.704 105.421 180.451 103.631C179.822 102.737 179.322 102.008 178.988 101.496C178.655 100.996 178.482 100.706 178.495 100.694Z" fill="#263238"/>
<path d="M178.902 108.347C178.877 108.353 178.797 108.081 178.673 107.594C178.55 107.106 178.389 106.409 178.198 105.557L178.389 105.644C177.63 106.057 176.773 106.526 175.847 107.032L175.674 107.125L175.618 106.933C175.526 106.6 175.421 106.248 175.322 105.89C175.168 105.341 175.02 104.804 174.878 104.292L175.106 104.385C174.181 104.909 173.329 105.384 172.595 105.798L172.44 105.884L172.416 105.711C172.212 104.298 172.113 103.41 172.156 103.403C172.206 103.397 172.391 104.267 172.65 105.674L172.471 105.588C173.193 105.156 174.033 104.656 174.946 104.113L175.119 104.008L175.174 104.206C175.322 104.718 175.47 105.249 175.631 105.804C175.73 106.162 175.828 106.514 175.927 106.847L175.699 106.748C176.637 106.261 177.507 105.804 178.272 105.409L178.433 105.329L178.463 105.502C178.624 106.359 178.747 107.069 178.828 107.563C178.902 108.063 178.932 108.341 178.902 108.347Z" fill="#263238"/>
<path d="M181.944 94.5032C181.932 94.5279 181.685 94.3859 181.259 94.1206C180.834 93.8552 180.229 93.4664 179.501 92.985L179.698 92.9171C179.439 93.7379 179.149 94.676 178.834 95.682L178.772 95.8733L178.6 95.7745C178.297 95.6017 177.983 95.4166 177.662 95.2314C177.168 94.9414 176.687 94.6637 176.23 94.3921L176.458 94.2995C176.156 95.3178 175.878 96.2497 175.638 97.0582L175.588 97.231L175.452 97.1261C174.323 96.2497 173.638 95.682 173.663 95.6449C173.694 95.6079 174.428 96.1016 175.594 96.9348L175.409 96.9965C175.631 96.1818 175.884 95.2438 176.162 94.2193L176.218 94.028L176.397 94.1329C176.859 94.3983 177.341 94.676 177.834 94.9661C178.155 95.1512 178.47 95.3364 178.772 95.5153L178.544 95.6017C178.877 94.602 179.186 93.6701 179.464 92.8492L179.519 92.6826L179.661 92.7814C180.371 93.2874 180.957 93.7071 181.352 94.0095C181.741 94.2995 181.957 94.4847 181.944 94.5032Z" fill="#263238"/>
<path d="M191.034 99.2622C191.016 99.2807 190.806 99.0894 190.448 98.7438C190.09 98.392 189.59 97.8798 188.979 97.2503L189.189 97.2256C188.757 97.9723 188.27 98.824 187.739 99.7374L187.64 99.9102L187.492 99.7744C187.233 99.5399 186.968 99.2869 186.696 99.04C186.276 98.6512 185.869 98.2686 185.48 97.9045L185.721 97.8674C185.203 98.7932 184.727 99.6448 184.314 100.379L184.228 100.534L184.116 100.398C183.209 99.293 182.66 98.5957 182.697 98.5648C182.734 98.534 183.345 99.182 184.302 100.243L184.104 100.262C184.499 99.5152 184.95 98.6574 185.443 97.7131L185.536 97.5342L185.684 97.6699C186.073 98.0279 186.486 98.4044 186.906 98.7932C187.177 99.0462 187.443 99.293 187.702 99.5337L187.455 99.5708C187.998 98.6697 188.504 97.8242 188.955 97.0898L189.047 96.9355L189.164 97.0651C189.751 97.7131 190.226 98.2501 190.547 98.6327C190.88 99.0153 191.053 99.2437 191.034 99.2622Z" fill="#E0E0E0"/>
<path d="M215.004 114.845C214.979 114.864 214.8 114.648 214.485 114.253C214.177 113.858 213.738 113.29 213.22 112.586L213.43 112.592C212.911 113.277 212.313 114.061 211.677 114.901L211.56 115.055L211.43 114.901C211.208 114.635 210.974 114.351 210.733 114.067C210.369 113.629 210.011 113.197 209.672 112.79L209.918 112.784C209.289 113.642 208.709 114.425 208.209 115.098L208.104 115.24L208.012 115.092C207.246 113.882 206.79 113.117 206.833 113.092C206.87 113.068 207.401 113.783 208.209 114.956L208.012 114.95C208.493 114.259 209.055 113.463 209.665 112.592L209.783 112.426L209.912 112.58C210.258 112.987 210.616 113.413 210.98 113.851C211.221 114.135 211.449 114.419 211.677 114.685L211.43 114.691C212.085 113.864 212.695 113.092 213.226 112.413L213.337 112.271L213.436 112.413C213.936 113.129 214.337 113.722 214.615 114.141C214.88 114.592 215.028 114.833 215.004 114.845Z" fill="#263238"/>
<path d="M200.167 113.598C200.149 113.617 199.92 113.456 199.525 113.148C199.13 112.839 198.569 112.389 197.896 111.84L198.1 111.79C197.76 112.58 197.372 113.481 196.958 114.456L196.878 114.635L196.718 114.518C196.434 114.314 196.137 114.098 195.841 113.882C195.378 113.543 194.934 113.216 194.502 112.901L194.737 112.833C194.329 113.814 193.959 114.715 193.638 115.493L193.57 115.66L193.447 115.542C192.416 114.555 191.787 113.919 191.824 113.888C191.855 113.851 192.54 114.425 193.613 115.37L193.422 115.413C193.725 114.629 194.076 113.722 194.459 112.728L194.533 112.543L194.7 112.66C195.132 112.975 195.582 113.296 196.045 113.635C196.347 113.858 196.637 114.074 196.921 114.277L196.681 114.339C197.119 113.376 197.52 112.481 197.878 111.698L197.952 111.537L198.081 111.654C198.736 112.228 199.272 112.71 199.637 113.049C199.982 113.376 200.18 113.574 200.167 113.598Z" fill="#E0E0E0"/>
<path d="M221.404 110.118C221.379 110.118 221.324 109.846 221.243 109.346C221.169 108.852 221.071 108.143 220.96 107.272L221.138 107.377C220.349 107.717 219.448 108.106 218.479 108.525L218.3 108.606L218.263 108.408C218.201 108.062 218.133 107.704 218.065 107.34C217.96 106.779 217.862 106.229 217.769 105.705L217.985 105.816C217.016 106.248 216.127 106.649 215.356 106.989L215.196 107.063L215.189 106.89C215.122 105.464 215.103 104.576 215.146 104.569C215.196 104.563 215.301 105.452 215.424 106.871L215.251 106.773C216.01 106.408 216.887 105.989 217.849 105.532L218.028 105.446L218.065 105.643C218.164 106.168 218.263 106.711 218.368 107.272C218.436 107.637 218.497 107.995 218.565 108.34L218.349 108.223C219.324 107.822 220.238 107.451 221.034 107.131L221.2 107.063L221.219 107.235C221.299 108.106 221.361 108.822 221.392 109.321C221.429 109.834 221.435 110.118 221.404 110.118Z" fill="#E0E0E0"/>
<path d="M191.811 103.533C191.824 103.558 191.583 103.706 191.151 103.953C190.719 104.199 190.083 104.545 189.318 104.958L189.355 104.755C189.954 105.372 190.639 106.075 191.373 106.835L191.509 106.977L191.342 107.081C191.046 107.267 190.731 107.452 190.417 107.649C189.929 107.945 189.454 108.236 188.997 108.507L189.028 108.26C189.781 109.013 190.466 109.704 191.065 110.297L191.188 110.42L191.028 110.488C189.719 111.062 188.892 111.395 188.874 111.352C188.855 111.309 189.645 110.895 190.929 110.266L190.898 110.463C190.287 109.883 189.584 109.211 188.812 108.476L188.664 108.34L188.837 108.236C189.294 107.958 189.763 107.668 190.25 107.365C190.571 107.174 190.88 106.983 191.176 106.804L191.145 107.051C190.423 106.279 189.75 105.563 189.164 104.934L189.04 104.804L189.195 104.73C189.979 104.347 190.627 104.033 191.083 103.829C191.54 103.613 191.799 103.508 191.811 103.533Z" fill="#263238"/>
<path d="M203.142 116.943C203.154 116.968 202.913 117.116 202.481 117.363C202.049 117.61 201.414 117.955 200.649 118.369L200.686 118.165C201.284 118.782 201.969 119.486 202.704 120.245L202.839 120.387L202.667 120.492C202.37 120.677 202.056 120.862 201.741 121.059C201.253 121.356 200.778 121.646 200.322 121.917L200.352 121.67C201.105 122.423 201.79 123.114 202.389 123.707L202.512 123.83L202.352 123.898C201.044 124.472 200.217 124.805 200.198 124.762C200.18 124.719 200.969 124.306 202.253 123.676L202.222 123.874C201.611 123.293 200.908 122.621 200.136 121.886L199.988 121.751L200.161 121.646C200.618 121.368 201.087 121.078 201.574 120.775C201.895 120.584 202.204 120.393 202.5 120.214L202.469 120.461C201.747 119.689 201.074 118.973 200.488 118.344L200.365 118.214L200.519 118.14C201.303 117.758 201.951 117.443 202.407 117.239C202.864 117.023 203.129 116.918 203.142 116.943Z" fill="#E0E0E0"/>
<path d="M180.649 116.764C180.625 116.77 180.544 116.498 180.421 116.011C180.298 115.523 180.137 114.826 179.946 113.974L180.137 114.061C179.378 114.474 178.52 114.943 177.595 115.449L177.422 115.542L177.366 115.35C177.268 115.011 177.169 114.665 177.07 114.307C176.916 113.758 176.768 113.221 176.626 112.709L176.854 112.802C175.928 113.326 175.077 113.801 174.349 114.215L174.194 114.301L174.17 114.128C173.966 112.715 173.867 111.827 173.91 111.82C173.96 111.814 174.145 112.684 174.404 114.091L174.225 114.005C174.947 113.573 175.786 113.073 176.7 112.53L176.873 112.425L176.928 112.623C177.076 113.135 177.224 113.666 177.385 114.221C177.483 114.579 177.582 114.931 177.675 115.264L177.446 115.165C178.384 114.678 179.255 114.221 180.02 113.826L180.174 113.746L180.205 113.919C180.365 114.776 180.489 115.486 180.569 115.98C180.643 116.474 180.674 116.758 180.649 116.764Z" fill="#E0E0E0"/>
<path d="M190.954 122.59C190.93 122.596 190.849 122.324 190.726 121.837C190.603 121.349 190.442 120.652 190.251 119.8L190.442 119.887C189.683 120.3 188.825 120.769 187.9 121.275L187.727 121.368L187.671 121.177C187.579 120.843 187.474 120.492 187.375 120.134C187.221 119.584 187.073 119.047 186.931 118.535L187.159 118.628C186.233 119.152 185.382 119.628 184.647 120.041L184.493 120.127L184.468 119.955C184.265 118.541 184.166 117.653 184.209 117.647C184.259 117.64 184.444 118.511 184.703 119.911L184.524 119.825C185.246 119.393 186.085 118.893 186.999 118.35L187.171 118.245L187.227 118.443C187.375 118.955 187.523 119.492 187.684 120.041C187.782 120.399 187.881 120.751 187.974 121.084L187.745 120.985C188.683 120.498 189.553 120.041 190.319 119.646L190.473 119.566L190.504 119.739C190.664 120.596 190.788 121.306 190.868 121.8C190.948 122.3 190.979 122.584 190.954 122.59Z" fill="#263238"/>
<path d="M175.866 135.439C175.842 135.446 175.761 135.174 175.638 134.687C175.515 134.199 175.354 133.502 175.163 132.65L175.354 132.736C174.595 133.15 173.737 133.619 172.812 134.125L172.639 134.218L172.583 134.026C172.485 133.693 172.386 133.341 172.287 132.983C172.133 132.434 171.985 131.897 171.843 131.385L172.071 131.477C171.145 132.002 170.294 132.477 169.559 132.891L169.405 132.977L169.381 132.804C169.177 131.391 169.078 130.502 169.121 130.496C169.171 130.49 169.356 131.36 169.615 132.767L169.436 132.681C170.158 132.249 170.997 131.749 171.911 131.206L172.083 131.101L172.139 131.298C172.287 131.811 172.435 132.341 172.596 132.897C172.694 133.255 172.793 133.607 172.886 133.94L172.657 133.841C173.595 133.354 174.466 132.897 175.231 132.502L175.385 132.422L175.416 132.594C175.576 133.452 175.7 134.162 175.78 134.656C175.86 135.156 175.891 135.433 175.866 135.439Z" fill="#E0E0E0"/>
<path d="M176.155 121.954C176.137 121.973 175.902 121.812 175.507 121.51C175.106 121.207 174.545 120.763 173.866 120.22L174.07 120.171C173.736 120.967 173.36 121.874 172.953 122.843L172.878 123.022L172.718 122.905C172.434 122.701 172.138 122.491 171.836 122.275C171.373 121.942 170.922 121.615 170.484 121.306L170.719 121.238C170.324 122.226 169.959 123.127 169.645 123.911L169.577 124.077L169.447 123.96C168.404 122.985 167.775 122.355 167.806 122.318C167.837 122.281 168.528 122.843 169.608 123.781L169.416 123.824C169.713 123.034 170.052 122.127 170.422 121.127L170.49 120.936L170.657 121.053C171.089 121.362 171.545 121.683 172.008 122.016C172.311 122.232 172.607 122.448 172.891 122.652L172.65 122.719C173.076 121.751 173.471 120.856 173.816 120.066L173.891 119.905L174.02 120.016C174.68 120.584 175.224 121.059 175.594 121.393C175.97 121.732 176.174 121.936 176.155 121.954Z" fill="#263238"/>
<path d="M181.536 122.319C181.549 122.343 181.32 122.51 180.907 122.788C180.493 123.065 179.889 123.454 179.148 123.917L179.167 123.707C179.808 124.281 180.543 124.935 181.327 125.639L181.475 125.768L181.314 125.886C181.03 126.089 180.734 126.299 180.432 126.515C179.963 126.848 179.512 127.163 179.074 127.472L179.086 127.225C179.889 127.922 180.623 128.564 181.259 129.113L181.394 129.231L181.24 129.311C179.975 129.977 179.179 130.366 179.154 130.329C179.13 130.286 179.889 129.817 181.123 129.101L181.104 129.298C180.456 128.762 179.704 128.144 178.883 127.466L178.729 127.336L178.895 127.219C179.327 126.91 179.778 126.589 180.247 126.256C180.549 126.04 180.845 125.83 181.135 125.626L181.123 125.873C180.352 125.157 179.63 124.485 179 123.898L178.87 123.775L179.019 123.689C179.771 123.25 180.395 122.892 180.839 122.652C181.271 122.417 181.524 122.294 181.536 122.319Z" fill="#263238"/>
<path d="M187.481 126.528C187.499 126.546 187.345 126.781 187.049 127.182C186.752 127.583 186.314 128.157 185.777 128.842L185.728 128.638C186.53 128.959 187.437 129.323 188.419 129.718L188.604 129.792L188.493 129.959C188.295 130.249 188.085 130.545 187.876 130.854C187.548 131.323 187.228 131.779 186.925 132.218L186.851 131.983C187.845 132.366 188.752 132.718 189.536 133.02L189.702 133.082L189.585 133.211C188.622 134.267 188.005 134.908 187.968 134.878C187.931 134.847 188.486 134.149 189.406 133.051L189.455 133.242C188.659 132.958 187.746 132.631 186.746 132.273L186.555 132.205L186.672 132.039C186.975 131.6 187.289 131.144 187.616 130.669C187.826 130.366 188.036 130.064 188.233 129.78L188.301 130.014C187.326 129.601 186.425 129.218 185.629 128.885L185.469 128.817L185.58 128.681C186.141 128.009 186.604 127.466 186.937 127.089C187.265 126.713 187.462 126.509 187.481 126.528Z" fill="#E0E0E0"/>
<path d="M184.098 136.587C184.104 136.587 184.129 136.655 184.172 136.791C184.215 136.945 184.277 137.142 184.351 137.395C184.499 137.932 184.721 138.722 184.974 139.753C185.221 140.784 185.542 142.042 185.758 143.548C185.894 144.295 185.82 145.171 185.443 145.961C185.079 146.757 184.548 147.51 183.863 148.202L183.894 148.097C185.511 155.768 187.776 166.525 190.288 178.43C192.725 190.137 194.904 200.739 196.44 208.417C197.212 212.255 197.823 215.366 198.224 217.52C198.427 218.6 198.576 219.433 198.668 220.001C198.761 220.568 198.792 220.877 198.767 220.877C198.767 220.877 198.717 220.581 198.606 220.013C198.489 219.427 198.316 218.6 198.1 217.544C197.65 215.384 197.008 212.28 196.218 208.46C194.614 200.776 192.411 190.186 189.973 178.491C187.504 166.58 185.271 155.817 183.678 148.14L183.666 148.078L183.709 148.035C185.018 146.72 185.9 145.067 185.585 143.567C185.388 142.08 185.085 140.814 184.857 139.778C184.616 138.759 184.425 137.969 184.295 137.408C184.234 137.149 184.184 136.945 184.147 136.791C184.104 136.661 184.092 136.587 184.098 136.587Z" fill="#455A64"/>
<path d="M171.109 138.069C171.127 138.062 171.202 138.204 171.3 138.488C171.399 138.766 171.498 139.192 171.535 139.723C171.615 140.772 171.362 142.333 170.344 143.641C169.319 144.95 167.869 145.579 166.832 145.752C166.308 145.845 165.876 145.851 165.58 145.826C165.283 145.801 165.123 145.764 165.129 145.74C165.129 145.678 165.783 145.764 166.789 145.524C167.777 145.302 169.128 144.672 170.097 143.438C171.053 142.203 171.337 140.735 171.319 139.723C171.288 138.698 171.047 138.087 171.109 138.069Z" fill="#455A64"/>
<path d="M181.444 138.729C181.432 138.716 181.469 138.642 181.592 138.562C181.716 138.482 181.938 138.42 182.203 138.482C182.463 138.531 182.79 138.778 182.833 139.167C182.882 139.531 182.703 139.981 182.277 140.166C181.845 140.333 181.407 140.142 181.179 139.858C180.932 139.562 180.957 139.167 181.074 138.932C181.327 138.432 181.734 138.42 181.716 138.463C181.741 138.506 181.42 138.605 181.284 139.019C181.216 139.216 181.228 139.475 181.401 139.667C181.568 139.858 181.889 139.975 182.154 139.87C182.413 139.765 182.561 139.451 182.537 139.204C182.524 138.945 182.333 138.772 182.135 138.704C181.722 138.55 181.463 138.766 181.444 138.729Z" fill="#455A64"/>
<path d="M194.485 140.099C194.503 140.129 194.077 140.395 193.287 140.512C192.516 140.629 191.343 140.531 190.307 139.858C189.27 139.185 188.696 138.161 188.492 137.402C188.276 136.636 188.35 136.136 188.381 136.143C188.437 136.136 188.449 136.624 188.708 137.334C188.961 138.037 189.523 138.963 190.486 139.586C191.448 140.203 192.528 140.339 193.269 140.284C194.022 140.234 194.466 140.049 194.485 140.099Z" fill="#455A64"/>
<path d="M201.261 234.455C201.261 234.479 201.045 234.504 200.644 234.529C200.175 234.553 199.613 234.584 198.965 234.621C197.459 234.695 195.546 234.782 193.423 234.887C191.3 234.998 189.381 235.096 187.882 235.17C187.227 235.201 186.672 235.226 186.203 235.245C185.808 235.257 185.586 235.251 185.586 235.232C185.586 235.208 185.802 235.17 186.197 235.121C186.592 235.072 187.166 235.01 187.869 234.948C189.282 234.819 191.245 234.677 193.411 234.566C195.577 234.461 197.539 234.405 198.965 234.399C199.675 234.393 200.249 234.399 200.65 234.405C201.045 234.418 201.261 234.43 201.261 234.455Z" fill="#455A64"/>
<path d="M173.089 145.109C173.175 145.091 178.038 165.123 183.944 189.853C189.856 214.594 194.571 234.657 194.484 234.676C194.398 234.695 189.541 214.668 183.629 189.927C177.724 165.198 173.003 145.128 173.089 145.109Z" fill="#455A64"/>
<path d="M188.882 145.881C188.888 145.875 188.925 145.925 188.993 146.011C189.073 146.116 189.172 146.252 189.295 146.412C189.573 146.789 189.955 147.313 190.437 147.98C191.436 149.368 192.85 151.349 194.596 153.787C196.349 156.249 198.428 159.181 200.736 162.427C201.89 164.056 203.094 165.766 204.347 167.537C205.562 169.321 206.809 171.308 207.148 173.659C207.482 176.011 206.79 178.269 206.075 180.3C205.334 182.342 204.593 184.299 203.871 186.163C202.434 189.884 201.057 193.204 199.866 195.981C198.675 198.752 197.669 200.98 196.96 202.511C196.608 203.258 196.33 203.844 196.133 204.27C196.04 204.455 195.966 204.603 195.911 204.72C195.861 204.819 195.83 204.874 195.824 204.868C195.818 204.868 195.837 204.813 195.88 204.708C195.929 204.584 195.997 204.43 196.077 204.239C196.262 203.807 196.522 203.214 196.849 202.455C197.521 200.906 198.496 198.672 199.656 195.889C200.817 193.105 202.168 189.779 203.594 186.058C204.303 184.194 205.038 182.238 205.772 180.195C206.482 178.171 207.148 175.961 206.821 173.702C206.5 171.444 205.285 169.487 204.081 167.716C202.835 165.939 201.631 164.229 200.49 162.594C198.206 159.329 196.145 156.391 194.411 153.917C192.702 151.454 191.313 149.455 190.332 148.048C189.869 147.369 189.499 146.832 189.24 146.443C189.128 146.27 189.036 146.134 188.962 146.023C188.906 145.937 188.875 145.888 188.882 145.881Z" fill="#455A64"/>
<path d="M220.242 96.9111L234.029 86.8516L234.701 87.9316L221.007 98.1145L220.242 96.9111Z" fill="#263238"/>
<path d="M223.648 96.6023C223.648 96.6023 225.5 91.7886 225.913 90.7641C226.327 89.7397 227.036 87.9561 227.296 87.9191C227.561 87.8821 228.524 88.0363 227.265 91.0974C226.006 94.1584 228.752 92.2885 228.752 92.2885L231.406 90.3877C231.406 90.3877 233.504 96.6517 232.307 98.5402C231.017 100.577 229.159 102.527 229.159 102.527L223.648 96.6023Z" fill="#FFBE9D"/>
</g>
<defs>
<clipPath id="clip0_1187_87172">
<rect width="251" height="251" fill="white"/>
</clipPath>
</defs>
</svg>
