<svg width="375" height="391" viewBox="0 0 375 391" fill="none" xmlns="http://www.w3.org/2000/svg">
<path d="M295.374 217.184C277.936 232.686 264.847 257.289 241.63 259.479C207.774 262.673 186.372 214.912 152.387 215.992C129.602 216.716 112.922 239.512 90.4274 243.236C68.9191 246.794 49.1774 232.333 30.8662 220.525C12.5549 208.718 -11.9294 199.018 -30.0194 211.197C-45.5785 221.67 -48.331 244.561 -41.2816 261.927C-34.2321 279.293 -39.8177 392.412 -25.8534 404.906C-10.2195 418.894 5.41431 432.883 21.0479 446.868C30.7186 455.521 40.3961 464.178 50.5157 472.3C84.0111 499.187 121.948 519.895 159.663 540.455C181.594 552.413 203.922 564.519 228.369 569.675C248.278 573.872 269.397 573.218 288.567 566.355C329.768 551.602 376.675 410.035 385.954 367.266C391.763 340.491 391.748 312.946 389.728 285.752C388.821 273.554 384.098 258.269 385.741 246.279C386.78 238.704 396.743 229.005 396.643 222.79C396.013 184.058 313.13 201.399 295.374 217.184Z" fill="#680A83" fill-opacity="0.76"/>
<path d="M92.3546 217.184C109.793 232.686 122.882 257.289 146.098 259.479C179.954 262.673 201.357 214.912 235.341 215.992C258.126 216.716 274.806 239.512 297.301 243.236C318.809 246.794 338.551 232.333 356.862 220.525C375.174 208.718 399.658 199.018 417.748 211.197C433.307 221.67 436.06 244.561 429.01 261.927C421.961 279.293 427.546 392.412 413.582 404.906C397.948 418.894 382.314 432.883 366.681 446.868C357.01 455.521 347.332 464.178 337.213 472.3C303.717 499.187 265.78 519.895 228.065 540.455C206.135 552.413 183.807 564.519 159.359 569.675C139.45 573.872 118.332 573.218 99.1616 566.355C57.9605 551.602 -8.94661 410.035 -18.2253 367.266C-24.0344 340.491 -24.0191 312.946 -21.9997 285.752C-21.0928 273.554 -16.3692 258.269 -18.0124 246.279C-19.0512 238.704 -9.01484 229.005 -8.91471 222.79C-8.28494 184.058 74.5987 201.399 92.3546 217.184Z" fill="#680A83" fill-opacity="0.76"/>
</svg>
