<svg width="36" height="35" viewBox="0 0 36 35" fill="none" xmlns="http://www.w3.org/2000/svg">
<g clip-path="url(#clip0_1326_29055)">
<path d="M6.375 0.500003H29.625C30.4624 0.499238 31.2917 0.658443 32.0655 0.968506C32.8393 1.27857 33.5424 1.7334 34.1346 2.30698C34.7267 2.88055 35.1962 3.5616 35.5163 4.31116C35.8364 5.06072 36.0008 5.86406 36 6.67522V28.3248C36.0008 29.1359 35.8364 29.9393 35.5163 30.6888C35.1962 31.4384 34.7267 32.1195 34.1346 32.693C33.5424 33.2666 32.8393 33.7214 32.0655 34.0315C31.2917 34.3416 30.4624 34.5008 29.625 34.5H6.375C5.5376 34.5008 4.70827 34.3416 3.93446 34.0315C3.16066 33.7214 2.45757 33.2666 1.86544 32.693C1.27331 32.1195 0.803757 31.4384 0.483663 30.6888C0.163569 29.9393 -0.000786426 29.1359 2.82911e-06 28.3248V6.67522C-0.000786426 5.86406 0.163569 5.06072 0.483663 4.31116C0.803757 3.5616 1.27331 2.88055 1.86544 2.30698C2.45757 1.7334 3.16066 1.27857 3.93446 0.968506C4.70827 0.658443 5.5376 0.499238 6.375 0.500003Z" fill="#470137"/>
<path d="M18.9298 9.4366L14.4298 16.6289L19.2298 24.2571C19.2614 24.3098 19.2721 24.3718 19.2598 24.4315C19.2448 24.4896 19.1848 24.446 19.0948 24.4605H15.6598C15.4198 24.4605 15.2548 24.446 15.1498 24.3007C14.8348 23.6904 14.5048 23.0947 14.1898 22.4845C13.8748 21.8742 13.5298 21.2785 13.1698 20.6537C12.8098 20.0289 12.4498 19.4041 12.0898 18.7648H12.0598C11.7448 19.3896 11.3998 20.0144 11.0548 20.6392C10.7098 21.264 10.3648 21.8887 10.0348 22.499C9.70482 23.1093 9.34482 23.734 8.99982 24.3298C8.93982 24.4751 8.81982 24.4896 8.65482 24.4896H5.35482C5.29482 24.4896 5.24982 24.5187 5.24982 24.446C5.24313 24.4188 5.24234 24.3906 5.2475 24.363C5.25267 24.3355 5.26367 24.3094 5.27982 24.2862L9.94482 16.8759L5.39982 9.42207C5.35482 9.36395 5.33982 9.30583 5.36982 9.27677C5.38811 9.25606 5.41131 9.23995 5.43744 9.22983C5.46356 9.21971 5.49183 9.21587 5.51982 9.21865H8.92482C8.99577 9.22015 9.06628 9.22991 9.13482 9.24771C9.19492 9.27904 9.24636 9.32388 9.28482 9.37848C9.56982 10.0033 9.89982 10.6281 10.2448 11.2528C10.5898 11.8776 10.9498 12.4879 11.3248 13.0981C11.6998 13.7084 12.0148 14.3187 12.3298 14.9434H12.3598C12.6748 14.3041 13.0048 13.6793 13.3348 13.0691C13.6648 12.4588 14.0098 11.8486 14.3548 11.2383C14.6998 10.6281 15.0298 10.0033 15.3598 9.40754C15.3712 9.35035 15.4031 9.29888 15.4498 9.26224C15.5092 9.2305 15.5783 9.2202 15.6448 9.23318H18.8098C18.8276 9.22933 18.8459 9.2289 18.8638 9.23193C18.8817 9.23496 18.8988 9.24139 18.9141 9.25084C18.9295 9.26029 18.9427 9.27258 18.9531 9.287C18.9635 9.30143 18.9709 9.3177 18.9748 9.33489C18.9898 9.34942 18.9598 9.40754 18.9298 9.4366Z" fill="#FF61F6"/>
<path d="M25.8605 24.7654C24.7486 24.7831 23.6467 24.5597 22.6355 24.1116C21.6947 23.6854 20.9061 22.9975 20.3705 22.1355C19.8155 21.2492 19.5455 20.1449 19.5455 18.8227C19.5303 17.7474 19.8153 16.6881 20.3705 15.7569C20.9397 14.8104 21.7642 14.0318 22.7555 13.5047C23.8055 12.9381 25.0655 12.662 26.5505 12.662C26.6557 12.6608 26.7609 12.6657 26.8655 12.6765C27.0005 12.6911 27.1505 12.6911 27.3305 12.7056V8.11414C27.3305 8.01243 27.3755 7.95431 27.4805 7.95431H30.5255C30.5591 7.9499 30.5932 7.95792 30.621 7.97676C30.6488 7.99561 30.6683 8.02391 30.6755 8.05602V21.9176C30.6755 22.1791 30.6905 22.4697 30.7055 22.7893C30.7205 23.109 30.7505 23.3851 30.7655 23.6321C30.7687 23.6812 30.7559 23.73 30.729 23.7717C30.7021 23.8134 30.6624 23.8458 30.6155 23.8646C29.8298 24.1844 29.0097 24.4183 28.1705 24.562C27.4081 24.6952 26.6352 24.7632 25.8605 24.7654ZM27.3305 21.8594V15.4663C27.1969 15.435 27.0617 15.4108 26.9255 15.3936C26.7605 15.3791 26.5955 15.3646 26.4305 15.3646C25.8425 15.3581 25.2614 15.4877 24.7355 15.7423C24.2229 15.9897 23.7841 16.3598 23.4605 16.8176C23.1305 17.2825 22.9655 17.9073 22.9655 18.6629C22.9524 19.1728 23.0389 19.6806 23.2205 20.1594C23.3656 20.5467 23.5959 20.8987 23.8955 21.1911C24.1847 21.4584 24.5338 21.6573 24.9155 21.7723C25.3173 21.8997 25.7377 21.9635 26.1605 21.9611C26.3855 21.9611 26.5955 21.9466 26.7905 21.9321C26.9738 21.9447 27.1577 21.92 27.3305 21.8594Z" fill="#FF61F6"/>
</g>
<defs>
<clipPath id="clip0_1326_29055">
<rect width="36" height="34" fill="white" transform="translate(0 0.5)"/>
</clipPath>
</defs>
</svg>
